<svg xmlns="http://www.w3.org/2000/svg" viewBox="0 0 32 32"><title>hrc-icons</title><circle cx="16" cy="16" r="16" style="fill:#fcfcfc"/><polygon points="19.2 12.8 16.3 13.6 18.4 15.7 19.2 12.8" style="fill:#657c87"/><path d="M14.3,17l-2.9,2.9a2.8,2.8,0,0,0-3.4.3,2.6,2.6,0,0,0,0,3.7,2.7,2.7,0,0,0,3.8,0,2.6,2.6,0,0,0,.3-3.4L15,17.7Z" style="fill:#657c87"/><path d="M22,12.6a2.7,2.7,0,0,0,1.9-4.6,2.7,2.7,0,0,0-3.8,0A2.7,2.7,0,0,0,22,12.6ZM20.8,8.7a1.8,1.8,0,1,1,2.5,2.5,1.8,1.8,0,0,1-2.5,0A1.8,1.8,0,0,1,20.8,8.7Z" style="fill:#657c87"/><rect x="15.5" y="1.7" width="1" height="28.6" transform="translate(-6.6 16) rotate(-45)" style="fill:#657c87"/></svg>