<svg xmlns="http://www.w3.org/2000/svg" viewBox="0 0 84 58"><title>hrc-icons</title><polygon points="46 18.5 50 11.5 46 4.5 38 4.5 34 11.5 38 18.5 46 18.5" style="fill:#6e848e"/><polygon points="27 25.9 27 24.2 28.8 24.2 28.8 23.5 33.7 23.5 36.4 18.9 32.4 12 24.3 12 20.3 18.9 24.3 25.9 27 25.9" style="fill:#6e848e"/><polygon points="51.6 25.9 59.7 25.9 63.7 18.9 59.7 12 51.6 12 47.6 18.9 51.6 25.9" style="fill:#6e848e"/><polygon points="51.6 27.5 47.6 34.5 51.6 41.5 59.7 41.5 63.7 34.5 59.7 27.5 51.6 27.5" style="fill:#6e848e"/><path d="M47.1,42.6V38.2H45.7V35.3H44.3V32.5H42.9V29.6H42V26.7H40.4V25.1H38.6V24.4H29.7v0.7H27.9v1.6H26.3v2.9H25.4v2.9H24v2.9H22.6v2.9H21.2V50.7H20.3v2.8H48V50.7H47.1V42.6ZM27.2,27.7H41.1v1.9H27.2V27.7Zm-0.9,2.9H42v1.9H26.3V30.5Zm-1.4,2.9H43.4v1.9H24.9V33.4Zm-1.4,2.9H44.8v1.9H23.5V36.2ZM24,50.7H23V42.6H24v8.1Zm7.1,0H30.2V42.6h0.9v8.1Zm7.1,0H37.3V42.6h0.9v8.1Zm7.1,0H44.4V42.6h0.9v8.1Zm0.9-9.1h-24V39.1h24v2.5Z" style="fill:#6e848e"/></svg>