<svg xmlns="http://www.w3.org/2000/svg" viewBox="0 0 16 16"><title>hrc-icons</title><path d="M10.9,1.6a3.4,3.4,0,0,1,2.6,1A5.4,5.4,0,0,0,15.2,2l0.4-.2a3.3,3.3,0,0,1-1.1,1.5l-0.4.3h0A6.1,6.1,0,0,0,16,3.1h0a5.3,5.3,0,0,1-1.1,1.3l-0.5.4a9.2,9.2,0,0,1-.2,2.1,9.1,9.1,0,0,1-6.4,7.2,9.9,9.9,0,0,1-4.6.2l-1.9-.6-0.9-.5L0,13H2a6.8,6.8,0,0,0,2-.7,3.7,3.7,0,0,0,.9-0.6l-1-.2A3.3,3.3,0,0,1,1.8,9.4a3.3,3.3,0,0,0,1.5-.1,2.4,2.4,0,0,1-1.1-.4A3.1,3.1,0,0,1,.6,6.1L1,6.3,1.7,6.4H2.1L1.5,6A3.3,3.3,0,0,1,.8,3a3.8,3.8,0,0,1,.4-0.8h0L1.4,2.5l1,0.9a9.7,9.7,0,0,0,4,1.9L7.9,5.5A3,3,0,0,1,7.9,4,3.2,3.2,0,0,1,9.8,1.8l0.7-.2h0.4Z" style="fill:#fff;fill-rule:evenodd"/></svg>