<svg xmlns="http://www.w3.org/2000/svg" viewBox="0 0 32 32"><title>hrc-icons</title><circle cx="16" cy="16" r="16" style="fill:#fcfcfc"/><path d="M13.5,22H10.2V18.7h3.3V22Z" style="fill:#657c87"/><polygon points="24.4 10.4 24.4 9.5 22.3 9.5 22.3 7.6 21.4 7.6 21.4 9.5 12.2 9.5 13.1 10.4 24.4 10.4" style="fill:#657c87"/><polygon points="23.6 12.9 23.6 20.9 24.4 21.8 24.4 12 14.7 12 15.6 12.9 23.6 12.9" style="fill:#657c87"/><polygon points="8.4 23.6 8.4 12.9 10.2 12.9 9.3 12 7.6 12 7.6 24.4 21.8 24.4 20.9 23.6 8.4 23.6" style="fill:#657c87"/><polygon points="10.2 14.6 10.2 17.9 13.5 17.9 13.5 16.2 11.9 14.6 10.2 14.6" style="fill:#657c87"/><polygon points="14.3 17.9 15.2 17.9 14.3 17 14.3 17.9" style="fill:#657c87"/><polygon points="17.7 14.6 17.3 14.6 17.7 15 17.7 14.6" style="fill:#657c87"/><polygon points="21.8 17.9 21.8 14.6 18.5 14.6 18.5 15.8 20.6 17.9 21.8 17.9" style="fill:#657c87"/><rect x="10.2" y="18.7" width="3.3" height="3.3" style="fill:#657c87"/><polygon points="14.3 18.7 14.3 22 17.7 22 17.7 20.3 16 18.7 14.3 18.7" style="fill:#657c87"/><polygon points="18.5 22 19.3 22 18.5 21.2 18.5 22" style="fill:#657c87"/><polygon points="21.8 18.7 21.4 18.7 21.8 19.1 21.8 18.7" style="fill:#657c87"/><rect x="15.5" y="1.7" width="1" height="28.6" transform="translate(-6.6 16) rotate(-45)" style="fill:#657c87"/></svg>