<svg xmlns="http://www.w3.org/2000/svg" viewBox="0 0 32 32"><title>hrc-icons</title><circle cx="16" cy="16" r="16" style="fill:#c9d3d7"/><polygon points="21.8 10.2 21.8 11.3 22.7 10.4 22.7 9.3 12 9.3 12.9 10.2 21.8 10.2" style="fill:#546e7a"/><polygon points="22.7 15.4 21.8 16.3 21.8 19.1 22.7 20 22.7 15.4" style="fill:#546e7a"/><polygon points="10.2 21.8 10.2 12.9 9.3 12 9.3 22.7 20 22.7 19.1 21.8 10.2 21.8" style="fill:#546e7a"/><rect x="13.7" y="15.1" width="1.5" height="6.01" transform="translate(-8.6 15.5) rotate(-45)" style="fill:#546e7a"/><rect x="18.1" y="13" width="7.2" height="1.78" transform="translate(-3.5 19.4) rotate(-45)" style="fill:#546e7a"/><rect x="15.5" y="1.7" width="1" height="28.6" transform="translate(-6.6 16) rotate(-45)" style="fill:#546e7a"/></svg>