<?xml version="1.0" encoding="utf-8"?>
<!-- Generator: Adobe Illustrator 19.1.1, SVG Export Plug-In . SVG Version: 6.00 Build 0)  -->
<svg version="1.1" id="icons" xmlns="http://www.w3.org/2000/svg" xmlns:xlink="http://www.w3.org/1999/xlink" x="0px" y="0px"
	 viewBox="0 0 32 32" style="enable-background:new 0 0 32 32;" xml:space="preserve">
<g id="arrow-large-r">
</g>
<g id="link-external">
</g>
<g id="link-list">
</g>
<g id="download">
</g>
<g id="info">
</g>
<g id="close">
</g>
<g id="dismiss">
</g>
<g id="search">
</g>
<g id="filter-open">
</g>
<g id="filter-close">
</g>
<g id="fail">
</g>
<g id="pass">
</g>
<g id="smart-t-fail">
</g>
<g id="smart-r-fail">
</g>
<g id="smart-a-fail">
	<circle style="fill:#C9D3D7;" cx="16" cy="16" r="16"/>
	<g>
		<path style="fill:#546E7A;" d="M14.1,14.2l1.6,1.6l-4.2,4.2c-1-0.7-2.5-0.6-3.4,0.3c-1,1-1,2.7,0,3.7c0.5,0.5,1.2,0.8,1.9,0.8
			c0.7,0,1.4-0.3,1.9-0.8c0.9-0.9,1-2.4,0.3-3.4l4.2-4.2l1.6,1.6l1.4-5.1L14.1,14.2z"/>
		<g>
			<path style="fill:#546E7A;" d="M22,12.6c-0.7,0-1.4-0.3-1.9-0.8c-1-1-1-2.7,0-3.8c1-1,2.8-1,3.8,0c1,1,1,2.7,0,3.8
				C23.4,12.3,22.8,12.6,22,12.6z M22,8.2c-0.5,0-0.9,0.2-1.3,0.5c-0.7,0.7-0.7,1.8,0,2.5c0.7,0.7,1.8,0.7,2.5,0
				c0.7-0.7,0.7-1.8,0-2.5C23,8.4,22.5,8.2,22,8.2z"/>
		</g>
	</g>
	<g>
		<line style="fill:none;stroke:#C9D3D7;stroke-width:4;stroke-miterlimit:10;" x1="5.9" y1="5.9" x2="26.1" y2="26.1"/>
		<line style="fill:none;stroke:#546E7A;stroke-miterlimit:10;" x1="5.9" y1="5.9" x2="26.1" y2="26.1"/>
	</g>
</g>
<g id="smart-m-fail">
</g>
<g id="smart-s-fail">
	<g id="smart-s-fail_1_">
	</g>
</g>
<g id="smart-t">
</g>
<g id="smart-r">
</g>
<g id="smart-a">
</g>
<g id="smart-m">
</g>
<g id="smart-s">
	<g id="smart-s_1_">
	</g>
</g>
<g id="hrc-logo">
</g>
</svg>
