<?xml version="1.0" encoding="utf-8"?>
<!-- Generator: Adobe Illustrator 19.2.1, SVG Export Plug-In . SVG Version: 6.00 Build 0)  -->
<svg version="1.1" id="icons" xmlns="http://www.w3.org/2000/svg" xmlns:xlink="http://www.w3.org/1999/xlink" x="0px" y="0px"
	 viewBox="0 0 32 32" style="enable-background:new 0 0 32 32;" xml:space="preserve">
<g id="arrow-large-r">
</g>
<g id="link-external">
</g>
<g id="link-list">
</g>
<g id="linkedin_1_">
</g>
<g id="twitter">
</g>
<g id="facebook">
</g>
<g id="download">
</g>
<g id="info">
</g>
<g id="close">
</g>
<g id="delete">
</g>
<g id="dismiss-fat">
</g>
<g id="more">
</g>
<g id="dismiss">
</g>
<g id="search">
</g>
<g id="dropdown-close_1_">
</g>
<g id="dropdown-open_1_">
</g>
<g id="filter-open">
</g>
<g id="filter-close">
</g>
<g id="fail">
</g>
<g id="fail-active">
</g>
<g id="pass">
</g>
<g id="pass-active">
</g>
<g id="smart-t-fail">
	<g id="front_9_">
	</g>
</g>
<g id="smart-r-fail">
	<g id="front_8_">
	</g>
</g>
<g id="smart-a-fail">
	<g id="front_7_">
	</g>
</g>
<g id="smart-m-fail">
	<g id="front_6_">
	</g>
</g>
<g id="smart-s-fail">
	<g id="front_5_">
	</g>
</g>
<g id="smart-t">
</g>
<g id="smart-r">
</g>
<g id="smart-a">
</g>
<g id="smart-m">
</g>
<g id="smart-s">
	<g id="smart-s_1_">
	</g>
</g>
<g id="smart-m-pass">
</g>
<g id="smart-s-pass">
</g>
<g id="smart-a-pass">
</g>
<g id="smart-r-pass">
</g>
<g id="smart-t-pass">
	<circle id="back_16_" style="fill:#69A41E;" cx="16" cy="16" r="16"/>
	<g id="front_16_">
		<polygon style="fill:#FFFFFF;" points="22.3,9.5 22.3,7.6 21.4,7.6 21.4,9.5 10.6,9.5 10.6,7.6 9.7,7.6 9.7,9.5 7.6,9.5 7.6,10.4 
			24.4,10.4 24.4,9.5 		"/>
		<g>
			<path style="fill:#FFFFFF;" d="M7.6,12v12.4h16.9V12H7.6z M23.6,23.6H8.4V12.9h15.1V23.6z"/>
			<rect x="10.2" y="14.6" style="fill:#FFFFFF;" width="3.3" height="3.3"/>
			<rect x="14.3" y="14.6" style="fill:#FFFFFF;" width="3.3" height="3.3"/>
			<rect x="18.5" y="14.6" style="fill:#FFFFFF;" width="3.3" height="3.3"/>
			<rect x="10.2" y="18.7" style="fill:#FFFFFF;" width="3.3" height="3.3"/>
			<rect x="14.3" y="18.7" style="fill:#FFFFFF;" width="3.3" height="3.3"/>
			<rect x="18.5" y="18.7" style="fill:#FFFFFF;" width="3.3" height="3.3"/>
		</g>
	</g>
</g>
<g id="hrc-logo">
</g>
<g id="hrc-logo-icon">
</g>
</svg>
