<?xml version="1.0" encoding="utf-8"?>
<!-- Generator: Adobe Illustrator 19.2.1, SVG Export Plug-In . SVG Version: 6.00 Build 0)  -->
<svg version="1.1" id="icons" xmlns="http://www.w3.org/2000/svg" xmlns:xlink="http://www.w3.org/1999/xlink" x="0px" y="0px"
	 viewBox="0 0 32 32" style="enable-background:new 0 0 32 32;" xml:space="preserve">
<g id="arrow-large-r">
</g>
<g id="link-external">
</g>
<g id="link-list">
</g>
<g id="linkedin_1_">
</g>
<g id="twitter">
</g>
<g id="facebook">
</g>
<g id="download">
</g>
<g id="info">
</g>
<g id="close">
</g>
<g id="delete">
</g>
<g id="dismiss-fat">
</g>
<g id="more">
</g>
<g id="dismiss">
</g>
<g id="search">
</g>
<g id="dropdown-close_1_">
</g>
<g id="dropdown-open_1_">
</g>
<g id="filter-open">
</g>
<g id="filter-close">
</g>
<g id="fail">
</g>
<g id="fail-active">
</g>
<g id="pass">
</g>
<g id="pass-active">
</g>
<g id="smart-t-fail">
	<circle id="back_9_" style="fill:#C9D3D7;" cx="16" cy="16" r="16"/>
	<g id="front_9_">
		<g>
			<g>
				<path style="fill:#546E7A;" d="M13.5,22h-3.3v-3.3h3.3V22z"/>
				<polygon style="fill:#546E7A;" points="24.4,10.4 24.4,9.5 22.3,9.5 22.3,7.6 21.4,7.6 21.4,9.5 12.2,9.5 13.1,10.4 				"/>
				<polygon style="fill:#546E7A;" points="23.6,12.9 23.6,20.9 24.4,21.8 24.4,12 14.7,12 15.6,12.9 				"/>
				<polygon style="fill:#546E7A;" points="8.4,23.6 8.4,12.9 10.2,12.9 9.3,12 7.6,12 7.6,24.4 21.8,24.4 20.9,23.6 				"/>
				<polygon style="fill:#546E7A;" points="10.2,14.6 10.2,17.9 13.5,17.9 13.5,16.2 11.9,14.6 				"/>
				<polygon style="fill:#546E7A;" points="14.3,17.9 15.2,17.9 14.3,17 				"/>
				<polygon style="fill:#546E7A;" points="17.7,14.6 17.3,14.6 17.7,15 				"/>
				<polygon style="fill:#546E7A;" points="21.8,17.9 21.8,14.6 18.5,14.6 18.5,15.8 20.6,17.9 				"/>
				<rect x="10.2" y="18.7" style="fill:#546E7A;" width="3.3" height="3.3"/>
				<polygon style="fill:#546E7A;" points="14.3,18.7 14.3,22 17.7,22 17.7,20.3 16,18.7 				"/>
				<polygon style="fill:#546E7A;" points="18.5,22 19.3,22 18.5,21.2 				"/>
				<polygon style="fill:#546E7A;" points="21.8,18.7 21.4,18.7 21.8,19.1 				"/>
			</g>
			<g>
				
					<rect x="15.5" y="1.7" transform="matrix(0.7071 -0.7071 0.7071 0.7071 -6.6275 15.9999)" style="fill:#546E7A;" width="1" height="28.6"/>
			</g>
		</g>
	</g>
</g>
<g id="smart-r-fail">
	<g id="front_8_">
	</g>
</g>
<g id="smart-a-fail">
	<g id="front_7_">
	</g>
</g>
<g id="smart-m-fail">
	<g id="front_6_">
	</g>
</g>
<g id="smart-s-fail">
	<g id="front_5_">
	</g>
</g>
<g id="smart-t">
</g>
<g id="smart-r">
</g>
<g id="smart-a">
</g>
<g id="smart-m">
</g>
<g id="smart-s">
	<g id="smart-s_1_">
	</g>
</g>
<g id="smart-m-pass">
</g>
<g id="smart-s-pass">
</g>
<g id="smart-a-pass">
</g>
<g id="smart-r-pass">
</g>
<g id="smart-t-pass">
</g>
<g id="hrc-logo">
</g>
<g id="hrc-logo-icon">
</g>
</svg>
