<?xml version="1.0" encoding="utf-8"?>
<!-- Generator: Adobe Illustrator 19.1.1, SVG Export Plug-In . SVG Version: 6.00 Build 0)  -->
<svg version="1.1" id="icons" xmlns="http://www.w3.org/2000/svg" xmlns:xlink="http://www.w3.org/1999/xlink" x="0px" y="0px"
	 viewBox="0 0 32 32" style="enable-background:new 0 0 32 32;" xml:space="preserve">
<g id="arrow-large-r">
</g>
<g id="link-external">
</g>
<g id="link-list">
</g>
<g id="download">
</g>
<g id="info">
</g>
<g id="close">
</g>
<g id="dismiss">
</g>
<g id="search">
</g>
<g id="filter-open">
</g>
<g id="filter-close">
</g>
<g id="fail">
</g>
<g id="pass">
</g>
<g id="smart-t-fail">
	<circle style="fill:#C9D3D7;" cx="16" cy="16" r="16"/>
	<g>
		<polygon style="fill:#546E7A;" points="22.3,9.5 22.3,7.6 21.4,7.6 21.4,9.5 10.6,9.5 10.6,8.4 9.7,8.4 9.7,9.5 8.4,9.5 8.4,10.4 
			24.4,10.4 24.4,9.5 		"/>
		<g>
			<path style="fill:#546E7A;" d="M7.6,12v12.4h16.9V12H7.6z M23.6,23.6H8.4V12.9h15.1V23.6z"/>
			<rect x="10.2" y="14.6" style="fill:#546E7A;" width="3.3" height="3.3"/>
			<rect x="14.3" y="14.6" style="fill:#546E7A;" width="3.3" height="3.3"/>
			<rect x="18.5" y="14.6" style="fill:#546E7A;" width="3.3" height="3.3"/>
			<rect x="10.2" y="18.7" style="fill:#546E7A;" width="3.3" height="3.3"/>
			<rect x="14.3" y="18.7" style="fill:#546E7A;" width="3.3" height="3.3"/>
			<rect x="18.5" y="18.7" style="fill:#546E7A;" width="3.3" height="3.3"/>
		</g>
	</g>
	<g>
		<line style="fill:none;stroke:#C9D3D7;stroke-width:4;stroke-miterlimit:10;" x1="5.9" y1="5.9" x2="26.1" y2="26.1"/>
		<line style="fill:none;stroke:#546E7A;stroke-miterlimit:10;" x1="5.9" y1="5.9" x2="26.1" y2="26.1"/>
	</g>
</g>
<g id="smart-r-fail">
</g>
<g id="smart-a-fail">
</g>
<g id="smart-m-fail">
</g>
<g id="smart-s-fail">
	<g id="smart-s-fail_1_">
	</g>
</g>
<g id="smart-t">
</g>
<g id="smart-r">
</g>
<g id="smart-a">
</g>
<g id="smart-m">
</g>
<g id="smart-s">
	<g id="smart-s_1_">
	</g>
</g>
<g id="hrc-logo">
</g>
</svg>
