<svg xmlns="http://www.w3.org/2000/svg" viewBox="0 0 32 32"><title>hrc-icons</title><circle cx="16" cy="16" r="16" style="fill:#c9d3d7"/><polygon points="21.8 8.9 19.1 8.9 19.1 16.4 21.8 19.1 21.8 8.9" style="fill:#546e7a"/><polygon points="17.3 11.8 14.7 11.8 14.7 12 17.3 14.6 17.3 11.8" style="fill:#546e7a"/><polygon points="19.1 22.2 17.3 22.2 17.3 20 14.7 17.4 14.7 22.2 12.9 22.2 12.9 15.6 12.4 15.1 10.2 15.1 10.2 22.2 7.6 22.2 7.6 23.1 20.4 23.1 19.1 21.8 19.1 22.2" style="fill:#546e7a"/><rect x="15.5" y="1.7" width="1" height="28.6" transform="translate(-6.6 16) rotate(-45)" style="fill:#546e7a"/></svg>