<?xml version="1.0" encoding="utf-8"?>
<!-- Generator: Adobe Illustrator 19.1.1, SVG Export Plug-In . SVG Version: 6.00 Build 0)  -->
<svg version="1.1" id="icons" xmlns="http://www.w3.org/2000/svg" xmlns:xlink="http://www.w3.org/1999/xlink" x="0px" y="0px"
	 viewBox="0 0 32 32" style="enable-background:new 0 0 32 32;" xml:space="preserve">
<g id="arrow-large-r">
</g>
<g id="link-external">
</g>
<g id="link-list">
</g>
<g id="download">
</g>
<g id="info">
</g>
<g id="close">
</g>
<g id="dismiss">
</g>
<g id="search">
</g>
<g id="filter-open">
</g>
<g id="filter-close">
</g>
<g id="fail">
</g>
<g id="pass">
</g>
<g id="smart-t-fail">
</g>
<g id="smart-r-fail">
	<circle style="fill:#C9D3D7;" cx="16" cy="16" r="16"/>
	<g>
		<path style="fill:#546E7A;" d="M21.6,12.4c0.7,1,1.1,2.3,1.1,3.6c0,3.7-3,6.7-6.7,6.7s-6.7-3-6.7-6.7s3-6.7,6.7-6.7
			c1.4,0,2.6,0.4,3.7,1.1l0.6-0.6C19.1,9,17.6,8.4,16,8.4c-4.2,0-7.6,3.4-7.6,7.6s3.4,7.6,7.6,7.6s7.6-3.4,7.6-7.6
			c0-1.6-0.5-3.1-1.3-4.3L21.6,12.4z"/>
		<path style="fill:#546E7A;" d="M16,12.2c0.6,0,1.1,0.1,1.6,0.4l0.7-0.7c-0.7-0.4-1.4-0.6-2.2-0.6c-2.6,0-4.7,2.1-4.7,4.7
			s2.1,4.7,4.7,4.7s4.7-2.1,4.7-4.7c0-0.8-0.2-1.5-0.6-2.2l-0.7,0.6c0.2,0.5,0.3,1,0.3,1.5c0,2.1-1.7,3.8-3.8,3.8s-3.8-1.7-3.8-3.8
			S13.9,12.2,16,12.2z"/>
		<path style="fill:#546E7A;" d="M24.8,7.6l-2.6,2.5l-0.3-0.3l2.6-2.5l0.1-1.9l-2.7,2.7c0,0.5,0,1,0,1.6l0,0l-6,6l0.6,0.6l6-6l1.5,0
			l0.1,0l2.8-2.7L24.8,7.6z"/>
	</g>
	<g>
		<line style="fill:none;stroke:#C9D3D7;stroke-width:4;stroke-miterlimit:10;" x1="5.9" y1="5.9" x2="26.1" y2="26.1"/>
		<line style="fill:none;stroke:#546E7A;stroke-miterlimit:10;" x1="5.9" y1="5.9" x2="26.1" y2="26.1"/>
	</g>
</g>
<g id="smart-a-fail">
</g>
<g id="smart-m-fail">
</g>
<g id="smart-s-fail">
	<g id="smart-s-fail_1_">
	</g>
</g>
<g id="smart-t">
</g>
<g id="smart-r">
</g>
<g id="smart-a">
</g>
<g id="smart-m">
</g>
<g id="smart-s">
	<g id="smart-s_1_">
	</g>
</g>
<g id="hrc-logo">
</g>
</svg>
