<?xml version="1.0" encoding="utf-8"?>
<!-- Generator: Adobe Illustrator 19.1.1, SVG Export Plug-In . SVG Version: 6.00 Build 0)  -->
<svg version="1.1" id="icons" xmlns="http://www.w3.org/2000/svg" xmlns:xlink="http://www.w3.org/1999/xlink" x="0px" y="0px"
	 viewBox="0 0 32 32" style="enable-background:new 0 0 32 32;" xml:space="preserve">
<g id="arrow-large-r">
</g>
<g id="link-external">
</g>
<g id="link-list">
</g>
<g id="linkedin_1_">
</g>
<g id="twitter">
</g>
<g id="facebook">
</g>
<g id="download">
</g>
<g id="info">
</g>
<g id="close">
</g>
<g id="delete">
</g>
<g id="dismiss-fat">
</g>
<g id="more">
</g>
<g id="dismiss">
</g>
<g id="search">
</g>
<g id="dropdown-close_1_">
</g>
<g id="dropdown-open_1_">
</g>
<g id="filter-open">
</g>
<g id="filter-close">
</g>
<g id="fail">
</g>
<g id="pass">
</g>
<g id="smart-t-fail">
	<g id="front_9_">
	</g>
</g>
<g id="smart-r-fail">
	<g id="front_8_">
	</g>
</g>
<g id="smart-a-fail">
	<g id="front_7_">
	</g>
</g>
<g id="smart-m-fail">
	<g id="front_6_">
	</g>
</g>
<g id="smart-s-fail">
	<circle id="back_5_" style="fill:#C9D3D7;" cx="16" cy="16" r="16"/>
	<g id="front_5_">
		<g>
			<g>
				<polygon style="fill:#546E7A;" points="21.8,10.2 21.8,11.3 22.7,10.4 22.7,9.3 12,9.3 12.9,10.2 				"/>
				<polygon style="fill:#546E7A;" points="22.7,15.4 21.8,16.3 21.8,19.1 22.7,20 				"/>
				<polygon style="fill:#546E7A;" points="10.2,21.8 10.2,12.9 9.3,12 9.3,22.7 20,22.7 19.1,21.8 				"/>
				
					<rect x="13.7" y="15.1" transform="matrix(-0.7071 0.7071 -0.7071 -0.7071 37.4401 20.7771)" style="fill:#546E7A;" width="1.5" height="6"/>
				
					<rect x="20.8" y="10.3" transform="matrix(0.7071 0.7071 -0.7071 0.7071 16.1658 -11.2512)" style="fill:#546E7A;" width="1.8" height="7.2"/>
			</g>
			<g>
				
					<rect x="1.7" y="15.5" transform="matrix(0.7071 0.7071 -0.7071 0.7071 16.0005 -6.6273)" style="fill:#546E7A;" width="28.6" height="1"/>
			</g>
		</g>
	</g>
</g>
<g id="smart-t">
</g>
<g id="smart-r">
</g>
<g id="smart-a">
</g>
<g id="smart-m">
</g>
<g id="smart-s">
	<g id="smart-s_1_">
	</g>
</g>
<g id="smart-m-pass">
</g>
<g id="smart-s-pass">
</g>
<g id="smart-a-pass">
</g>
<g id="smart-r-pass">
</g>
<g id="smart-t-pass">
</g>
<g id="hrc-logo">
</g>
<g id="hrc-logo-icon">
</g>
</svg>
