<svg xmlns="http://www.w3.org/2000/svg" viewBox="0 0 32 32"><title>hrc-icons</title><circle cx="16" cy="16" r="16" style="fill:#69a41e"/><polygon points="22.3 9.5 22.3 7.6 21.4 7.6 21.4 9.5 10.6 9.5 10.6 7.6 9.7 7.6 9.7 9.5 7.6 9.5 7.6 10.4 24.4 10.4 24.4 9.5 22.3 9.5" style="fill:#fff"/><path d="M7.6,12V24.4H24.4V12H7.6Zm16,11.6H8.4V12.9H23.6V23.6Z" style="fill:#fff"/><rect x="10.2" y="14.6" width="3.3" height="3.3" style="fill:#fff"/><rect x="14.3" y="14.6" width="3.3" height="3.3" style="fill:#fff"/><rect x="18.5" y="14.6" width="3.3" height="3.3" style="fill:#fff"/><rect x="10.2" y="18.7" width="3.3" height="3.3" style="fill:#fff"/><rect x="14.3" y="18.7" width="3.3" height="3.3" style="fill:#fff"/><rect x="18.5" y="18.7" width="3.3" height="3.3" style="fill:#fff"/></svg>