<?xml version="1.0" encoding="utf-8"?>
<!-- Generator: Adobe Illustrator 19.2.1, SVG Export Plug-In . SVG Version: 6.00 Build 0)  -->
<svg version="1.1" id="icons" xmlns="http://www.w3.org/2000/svg" xmlns:xlink="http://www.w3.org/1999/xlink" x="0px" y="0px"
	 viewBox="0 0 32 32" style="enable-background:new 0 0 32 32;" xml:space="preserve">
<g id="arrow-large-r">
</g>
<g id="link-external">
</g>
<g id="link-list">
</g>
<g id="linkedin_1_">
</g>
<g id="twitter">
</g>
<g id="facebook">
</g>
<g id="download">
</g>
<g id="info">
</g>
<g id="close">
</g>
<g id="delete">
</g>
<g id="dismiss-fat">
</g>
<g id="more">
</g>
<g id="dismiss">
</g>
<g id="search">
</g>
<g id="dropdown-close_1_">
</g>
<g id="dropdown-open_1_">
</g>
<g id="filter-open">
</g>
<g id="filter-close">
</g>
<g id="fail">
</g>
<g id="fail-active">
</g>
<g id="pass">
</g>
<g id="pass-active">
</g>
<g id="smart-t-fail">
	<g id="front_9_">
	</g>
</g>
<g id="smart-r-fail">
	<circle id="back_8_" style="fill:#C9D3D7;" cx="16" cy="16" r="16"/>
	<g id="front_8_">
		<g>
			<g>
				<path style="fill:#546E7A;" d="M23.6,16c0-1.6-0.5-3.1-1.3-4.3l-0.6,0.6c0.7,1,1.1,2.3,1.1,3.6c0,1.1-0.3,2.2-0.8,3.2l0.6,0.6
					C23.2,18.7,23.6,17.4,23.6,16z"/>
				<path style="fill:#546E7A;" d="M16,9.3c1.4,0,2.6,0.4,3.7,1.1l0.6-0.6C19.1,9,17.6,8.4,16,8.4c-1.4,0-2.7,0.4-3.8,1l0.6,0.6
					C13.8,9.6,14.9,9.3,16,9.3z"/>
				<path style="fill:#546E7A;" d="M16,22.7c-3.7,0-6.7-3-6.7-6.7c0-1.1,0.3-2.2,0.8-3.2l-0.6-0.6c-0.7,1.1-1,2.4-1,3.8
					c0,4.2,3.4,7.6,7.6,7.6c1.4,0,2.7-0.4,3.8-1l-0.6-0.6C18.2,22.4,17.1,22.7,16,22.7z"/>
				<path style="fill:#546E7A;" d="M16,12.2c0.6,0,1.1,0.1,1.6,0.4l0.7-0.7c-0.7-0.4-1.4-0.6-2.2-0.6c-0.6,0-1.1,0.1-1.7,0.3
					l0.7,0.7C15.4,12.3,15.7,12.2,16,12.2z"/>
				<path style="fill:#546E7A;" d="M16,20.7c0.6,0,1.1-0.1,1.7-0.3L17,19.6c-0.3,0.1-0.6,0.1-1,0.1c-2.1,0-3.8-1.7-3.8-3.8
					c0-0.3,0.1-0.6,0.1-1l-0.7-0.7c-0.2,0.5-0.3,1.1-0.3,1.7C11.3,18.6,13.4,20.7,16,20.7z"/>
				<path style="fill:#546E7A;" d="M20.7,16c0-0.8-0.2-1.5-0.6-2.2l-0.7,0.6c0.2,0.5,0.3,1,0.3,1.5c0,0.3-0.1,0.6-0.1,1l0.7,0.7
					C20.5,17.1,20.7,16.6,20.7,16z"/>
				<path style="fill:#546E7A;" d="M22.3,10.4l1.5,0l0.1,0l2.8-2.7l-1.9,0l-2.6,2.5l-0.3-0.3l2.6-2.5l0.1-1.9l-2.7,2.7
					c0,0.5,0,1,0,1.6l0,0L17,14.4l0.6,0.6L22.3,10.4z"/>
			</g>
			<g>
				
					<rect x="15.5" y="1.7" transform="matrix(0.7071 -0.7071 0.7071 0.7071 -6.6275 15.9993)" style="fill:#546E7A;" width="1" height="28.6"/>
			</g>
		</g>
	</g>
</g>
<g id="smart-a-fail">
	<g id="front_7_">
	</g>
</g>
<g id="smart-m-fail">
	<g id="front_6_">
	</g>
</g>
<g id="smart-s-fail">
	<g id="front_5_">
	</g>
</g>
<g id="smart-t">
</g>
<g id="smart-r">
</g>
<g id="smart-a">
</g>
<g id="smart-m">
</g>
<g id="smart-s">
	<g id="smart-s_1_">
	</g>
</g>
<g id="smart-m-pass">
</g>
<g id="smart-s-pass">
</g>
<g id="smart-a-pass">
</g>
<g id="smart-r-pass">
</g>
<g id="smart-t-pass">
</g>
<g id="hrc-logo">
</g>
<g id="hrc-logo-icon">
</g>
</svg>
