<?xml version="1.0" encoding="utf-8"?>
<!-- Generator: Adobe Illustrator 19.1.1, SVG Export Plug-In . SVG Version: 6.00 Build 0)  -->
<svg version="1.1" id="icons" xmlns="http://www.w3.org/2000/svg" xmlns:xlink="http://www.w3.org/1999/xlink" x="0px" y="0px"
	 viewBox="0 0 200 100" style="enable-background:new 0 0 200 100;" xml:space="preserve">
<g id="arrow-large-r">
</g>
<g id="link-external">
</g>
<g id="link-list">
</g>
<g id="download">
</g>
<g id="info">
</g>
<g id="close">
</g>
<g id="dismiss">
</g>
<g id="search">
</g>
<g id="filter-open">
</g>
<g id="filter-close">
</g>
<g id="fail">
</g>
<g id="pass">
</g>
<g id="smart-t-fail">
</g>
<g id="smart-r-fail">
</g>
<g id="smart-a-fail">
</g>
<g id="smart-m-fail">
</g>
<g id="smart-s-fail">
	<g id="smart-s-fail_1_">
	</g>
</g>
<g id="smart-t">
</g>
<g id="smart-r">
</g>
<g id="smart-a">
</g>
<g id="smart-m">
</g>
<g id="smart-s">
	<g id="smart-s_1_">
	</g>
</g>
<g id="hrc-logo">
	<g id="logo_1_">
		<path style="fill:#FFFFFF;" d="M112.4,17.8c-0.1,0-0.3,0-0.6-0.1c-0.3-0.1-0.5-0.1-0.6-0.1c-0.4,0-0.7,0.2-1,0.5
			c-0.3,0.3-0.4,0.7-0.4,1.2c0,1.2,0.6,1.8,1.8,1.8c0.2,0,0.7,0,1.4-0.1c0.7-0.1,1.3-0.1,1.8-0.1c0.5,0,1,0,1.6,0.1
			c0.8,0.1,1.3,0.2,1.7,0.2c1.2,0,1.8-0.6,1.8-1.8c0-0.5-0.1-0.9-0.4-1.2c-0.2-0.3-0.5-0.5-0.9-0.5c-0.1,0-0.3,0-0.5,0.1
			c-0.2,0.1-0.4,0.1-0.5,0.1c-0.4,0-0.7-0.6-0.7-1.7V8.5l4.8,11.1c0.3,0.6,0.4,0.9,0.6,1.1c0.2,0.2,0.6,0.4,1.1,0.4h0.6
			c0.8-0.1,1.2-0.1,1.2-0.1c0.2,0,0.4,0,0.8,0c0.3,0,0.6,0,0.8,0c0.9,0,1.4-0.6,1.4-1.7V9.1c0-0.5,0-0.9,0.1-1.1
			c0.1-0.4,0.3-0.6,0.7-0.6c0.1,0,0.3,0,0.6,0.1c0.3,0.1,0.5,0.1,0.6,0.1c0.4,0,0.7-0.2,1-0.5c0.3-0.3,0.4-0.7,0.4-1.2
			c0-0.6-0.2-1-0.5-1.3c-0.3-0.3-0.8-0.5-1.3-0.5c-0.2,0-0.8,0.1-1.7,0.2c-0.6,0.1-1.1,0.1-1.6,0.1c-0.5,0-1.1,0-1.7-0.1
			c-0.7-0.1-1.1-0.1-1.4-0.1c-0.5,0-0.9,0.2-1.3,0.5c-0.3,0.3-0.5,0.8-0.5,1.3c0,0.5,0.1,0.9,0.4,1.2c0.2,0.3,0.5,0.5,0.9,0.5
			c0.1,0,0.3,0,0.5-0.1c0.2-0.1,0.4-0.1,0.5-0.1c0.4,0,0.7,0.6,0.7,1.7v7.4l-4.4-10.7c-0.3-0.6-0.5-1-0.6-1.2
			c-0.3-0.4-0.6-0.5-1.1-0.5c-0.2,0-0.5,0-0.7,0.1c-0.5,0-0.9,0.1-1.2,0.1c-0.8,0.1-1.3,0.1-1.6,0.1c-0.4,0-0.9,0-1.6-0.1
			c-0.7-0.1-1.2-0.1-1.5-0.1c-0.5,0-1,0.2-1.3,0.5C110,5,109.8,5.4,109.8,6c0,0.5,0.1,0.9,0.4,1.2c0.3,0.3,0.6,0.5,1,0.5
			c0.2,0,0.4,0,0.6-0.1c0.3-0.1,0.5-0.1,0.6-0.1c0.5,0,0.7,0.6,0.7,1.7v6.9C113,17.2,112.8,17.8,112.4,17.8z"/>
		<path style="fill:#FFFFFF;" d="M131.7,17.9c-0.4,0.6-0.5,1.1-0.5,1.4c0,0.5,0.2,0.9,0.5,1.3c0.3,0.3,0.8,0.5,1.4,0.5
			c0.6,0,1.2,0,2-0.1c0.5,0,1.4,0,2.6,0h2.6c1.4,0,2.3,0,2.6,0l1.3,0.1h0.1c1.2,0,1.9-0.5,1.9-1.5c0-0.2,0-0.5-0.1-1
			c-0.1-0.4-0.1-0.8-0.1-1c0-0.4,0-0.8,0.1-1.4c0-0.4,0.1-0.8,0.1-1c0-0.6-0.2-1.1-0.5-1.4c-0.3-0.4-0.8-0.5-1.3-0.5
			c-0.6,0-1,0.2-1.4,0.5c-0.3,0.3-0.5,0.8-0.5,1.3c0,0.2,0,0.5,0.1,0.9c0,0.4,0.1,0.7,0.1,0.9c0,0.5-0.2,0.8-0.7,0.9
			c-0.2,0-0.6,0.1-1.3,0.1h-3.7l8.1-10c0.6-0.8,0.9-1.4,0.9-2c0-1.2-0.5-1.7-1.6-1.7c-0.3,0-0.8,0-1.4,0c-0.6,0-1.1,0-1.4,0h-2.6
			c-1.3,0-2.1,0-2.6,0c-1.1-0.1-1.6-0.1-1.7-0.1l-1.1,0.1c-0.5,0-0.9,0.1-1.1,0.2c-0.3,0.1-0.4,0.4-0.4,0.9c0,0.4,0,0.6,0,0.8
			c0,0.6,0.1,1,0.1,1.1c0,0.2,0,0.5-0.1,1c-0.1,0.6-0.1,1-0.1,1.1c0,0.6,0.2,1,0.5,1.4c0.3,0.3,0.8,0.5,1.4,0.5c0.5,0,1-0.2,1.4-0.5
			c0.4-0.3,0.6-0.8,0.6-1.2c0-0.1,0-0.2-0.1-0.5l0-0.3c0-0.1,0-0.3,0-0.6c0-0.4,0.1-0.6,0.3-0.8c0.2-0.1,0.5-0.2,1-0.2h3.4l-8,10.1
			L131.7,17.9z"/>
		<path style="fill:#FFFFFF;" d="M112.4,37.6c-0.1,0-0.3,0-0.6-0.1c-0.3-0.1-0.5-0.1-0.6-0.1c-0.4,0-0.7,0.2-1,0.5
			c-0.3,0.3-0.4,0.7-0.4,1.2c0,0.6,0.2,1,0.5,1.3c0.3,0.3,0.8,0.5,1.3,0.5c0.3,0,0.9-0.1,1.7-0.2c0.5-0.1,1.2-0.1,1.9-0.1
			c0.3,0,0.8,0,1.4,0.1c0.6,0.1,1.1,0.1,1.4,0.1c0.5,0,0.9-0.2,1.2-0.5c0.3-0.3,0.5-0.8,0.5-1.3c0-1-0.4-1.5-1.1-1.5
			c-0.1,0-0.2,0-0.2,0c0,0-0.1,0-0.2,0c-0.1,0-0.1,0-0.1,0c-0.3,0-0.5-0.2-0.5-0.5c0,0,0-0.3,0-0.9v-2.5h5.3v2.5c0,0.4,0,0.7,0,0.8
			c-0.1,0.4-0.2,0.5-0.5,0.5c0,0-0.1,0-0.1,0c-0.1,0-0.1,0-0.2,0s-0.1,0-0.2,0c-0.7,0-1.1,0.5-1.1,1.5c0,0.6,0.2,1,0.5,1.3
			c0.3,0.3,0.7,0.5,1.2,0.5c0.3,0,0.8-0.1,1.5-0.2c0.5-0.1,1-0.1,1.7-0.1c0.4,0,0.9,0,1.5,0.1c0.7,0.1,1.2,0.1,1.5,0.1
			c0,0,0.1,0,0.1,0c0,0,0.1,0,0.1,0c0.5,0,1-0.2,1.3-0.5c0.3-0.3,0.5-0.8,0.5-1.3c0-0.5-0.1-0.9-0.4-1.2c-0.3-0.3-0.6-0.5-1-0.5
			c-0.1,0-0.3,0-0.6,0.1c-0.3,0.1-0.5,0.1-0.6,0.1c-0.5,0-0.7-0.6-0.7-1.7v-6.9c0-0.5,0-0.9,0.1-1.1c0.1-0.4,0.3-0.6,0.7-0.6
			c0.1,0,0.3,0,0.6,0.1c0.3,0.1,0.5,0.1,0.6,0.1c0.4,0,0.7-0.2,1-0.5c0.3-0.3,0.4-0.7,0.4-1.2c0-0.6-0.2-1-0.5-1.3
			c-0.3-0.3-0.8-0.5-1.3-0.5c0,0-0.5,0.1-1.7,0.2c-0.7,0.1-1.2,0.1-1.6,0.1c-0.3,0-0.8,0-1.5-0.1c-0.7-0.1-1.2-0.1-1.5-0.1
			c-0.5,0-0.9,0.2-1.2,0.5c-0.3,0.3-0.5,0.8-0.5,1.3c0,1,0.4,1.5,1.1,1.5h0.2c0.1,0,0.2,0,0.3,0c0.3,0,0.4,0.2,0.5,0.5
			c0,0.1,0,0.3,0,0.9v1.8h-5.3v-1.8c0-0.6,0-0.8,0-0.9c0-0.4,0.2-0.5,0.5-0.5c0.1,0,0.2,0,0.3,0h0.2c0.7,0,1.1-0.5,1.1-1.5
			c0-0.5-0.2-1-0.5-1.3c-0.3-0.3-0.7-0.5-1.2-0.5c-0.3,0-0.8,0.1-1.4,0.2c-0.5,0.1-0.9,0.1-1.5,0.1c-0.6,0-1.2,0-1.8-0.1
			c-0.9-0.1-1.4-0.2-1.6-0.2c-0.5,0-1,0.2-1.3,0.5c-0.3,0.3-0.5,0.8-0.5,1.3c0,0.5,0.1,0.9,0.4,1.2c0.3,0.3,0.6,0.5,1,0.5
			c0.2,0,0.4,0,0.6-0.1c0.3-0.1,0.5-0.1,0.6-0.1c0.5,0,0.7,0.6,0.7,1.7v6.9C113,37,112.8,37.6,112.4,37.6z"/>
		<path style="fill:#FFFFFF;" d="M134,28.1c-0.2,0-0.5,0-0.9,0.1c-0.4,0.1-0.7,0.1-0.9,0.1c-0.2,0-0.5,0-0.9-0.1
			c-0.4-0.1-0.7-0.1-0.9-0.1c-1,0-1.5,0.6-1.5,1.7c0,0.9,0.4,1.4,1.1,1.4c0.1,0,0.2,0,0.3,0h0.3c0.2,0,0.3,0,0.4,0.2
			c0.1,0.1,0.1,0.4,0.1,1v3.9c0,1.5,0.1,2.5,0.4,3.1c0.3,0.6,0.7,1,1.4,1.3c0.6,0.3,1.3,0.5,2.1,0.5c1.8,0,3.3-0.7,4.4-2.1v1
			c0,0.5,0.2,0.8,0.7,0.8c0.2,0,0.5,0,0.8-0.1s0.6-0.1,0.8-0.1c0.2,0,0.5,0,0.9,0.1c0.4,0.1,0.7,0.1,0.9,0.1c1,0,1.5-0.6,1.5-1.7
			c0-0.9-0.4-1.3-1.1-1.3c-0.2,0-0.3,0-0.4,0.1s-0.2,0-0.4,0c-0.3,0-0.5-0.4-0.5-1.3V29c0-0.6-0.3-0.9-0.8-0.9c-0.2,0-0.4,0-0.8,0.1
			c-0.7,0.1-1,0.1-1.1,0.1c-0.2,0-0.6,0-1-0.1c-0.5-0.1-0.8-0.1-1-0.1c-0.9,0-1.4,0.6-1.4,1.7c0,0.9,0.3,1.3,0.9,1.3
			c0.1,0,0.2,0,0.4-0.1c0.2,0,0.3,0,0.4,0c0.4,0,0.6,0.4,0.6,1.3v2.3c0,2.1-0.8,3.1-2.3,3.1c-1,0-1.5-0.7-1.6-2v-6.7
			C134.8,28.5,134.5,28.1,134,28.1z"/>
		<path style="fill:#FFFFFF;" d="M145.2,29.8c0,0.9,0.4,1.4,1.2,1.4c0.1,0,0.2,0,0.4-0.1c0.2-0.1,0.3-0.1,0.4-0.1
			c0.3,0,0.4,0.5,0.4,1.4v4.1c0,0.9-0.1,1.4-0.4,1.4c-0.1,0-0.2,0-0.4-0.1c-0.2-0.1-0.3-0.1-0.5-0.1c-0.8,0-1.2,0.5-1.2,1.4
			c0,0.5,0.1,0.9,0.4,1.2c0.3,0.3,0.6,0.5,1.1,0.5c0.2,0,0.6,0,1.3-0.1c0.4,0,0.8-0.1,1.2-0.1c0.3,0,0.7,0,1.3,0.1s1,0.1,1.3,0.1
			c0.9,0,1.4-0.5,1.4-1.6c0-0.7-0.3-1.2-1-1.3c-0.3,0-0.4-0.1-0.5-0.2s-0.1-0.2-0.1-0.5v-3c0-2,0.7-3,2.2-3c0.6,0,1,0.2,1.2,0.6
			c0.2,0.4,0.3,1,0.3,2v2.8c0,0.1,0,0.4,0,0.8c0,0.3-0.2,0.5-0.5,0.6c-0.5,0.1-0.8,0.6-0.8,1.3c0,1.1,0.4,1.6,1.2,1.6
			c0.2,0,0.5,0,0.9-0.1c0.4-0.1,0.7-0.1,0.9-0.1c0.2,0,0.6,0,1.1,0.1c0.3,0,0.6,0.1,0.8,0.1c0.9,0,1.4-0.6,1.4-1.7
			c0-0.7-0.3-1.1-0.8-1.3c-0.2,0-0.4-0.1-0.4-0.3c-0.1-0.1-0.1-0.5-0.1-1.1v-2.3c0-2,0.7-3,2.1-3c0.6,0,1.1,0.2,1.3,0.6
			c0.2,0.4,0.3,1.1,0.3,2.2v2.6c0,0.6,0,1-0.1,1.1s-0.2,0.2-0.6,0.3c-0.6,0.1-0.9,0.6-0.9,1.3c0,0.5,0.1,0.9,0.4,1.2
			c0.3,0.3,0.6,0.5,1,0.5c0.2,0,0.6,0,1.1-0.1c0.5-0.1,1-0.1,1.6-0.1c0.4,0,0.8,0,1.1,0.1l0.6,0.1c0.4,0,0.7,0.1,0.7,0.1
			c0.4,0,0.8-0.2,1.1-0.5c0.3-0.3,0.4-0.7,0.4-1.3c0-0.9-0.4-1.3-1.1-1.3c-0.2,0-0.3,0-0.4,0.1c-0.2,0.1-0.3,0.1-0.4,0.1
			c-0.3,0-0.5-0.4-0.5-1.3v-3.8c0-1.6-0.3-2.7-0.8-3.5c-0.8-1.1-2-1.6-3.6-1.6c-0.8,0-1.5,0.1-2.1,0.4c-0.6,0.3-1.3,0.8-2.1,1.5
			c-0.8-1.3-1.9-1.9-3.2-1.9c-1.5,0-2.9,0.8-4.2,2.3v-1.2c0-0.5-0.2-0.8-0.7-0.8c-0.2,0-0.5,0-0.9,0.1c-0.4,0.1-0.7,0.1-0.9,0.1
			c-0.2,0-0.5,0-0.8-0.1c-0.5-0.1-0.7-0.1-0.8-0.1c-0.5,0-0.8,0.2-1.1,0.5C145.3,28.9,145.2,29.3,145.2,29.8z"/>
		<path style="fill:#FFFFFF;" d="M180.5,41.2c0.8,0,1.4-0.2,1.9-0.5c0.5-0.3,0.7-0.8,0.7-1.3c0-0.4-0.1-0.7-0.4-1
			c-0.3-0.3-0.6-0.4-1-0.4c-0.1,0-0.1,0-0.2,0c-0.1,0-0.2,0-0.4,0c-0.3,0-0.4-0.3-0.4-0.8V32c0-1.6-0.5-2.8-1.4-3.4
			c-0.9-0.6-2.2-0.8-4-0.8c-1.7,0-3,0.3-3.9,0.8s-1.4,1.2-1.4,2.1c0,0.6,0.2,1.1,0.6,1.5c0.4,0.4,1,0.6,1.6,0.6
			c0.6,0,1.1-0.2,1.5-0.5c0.4-0.3,0.6-0.7,0.6-1.2V31c0-0.1,0-0.2,0-0.4c0-0.4,0.3-0.5,0.8-0.5c0.5,0,0.9,0.1,1.2,0.4
			c0.3,0.3,0.5,0.6,0.5,1c0,0.5-0.2,0.9-0.6,1.2c-0.4,0.3-1.2,0.5-2.4,0.7c-0.9,0.2-1.6,0.3-2.3,0.6c-1.5,0.5-2.3,1.7-2.3,3.4
			c0,1.2,0.4,2.1,1.2,2.8c0.8,0.7,1.8,1,3.2,1c1.6,0,3-0.6,4.2-1.7C178.2,40.6,179.1,41.2,180.5,41.2z M176.8,35.8
			c0,1.6-0.7,2.3-2.2,2.3c-0.9,0-1.3-0.4-1.3-1.2c0-0.5,0.5-0.9,1.4-1.1c1.3-0.4,2.1-0.6,2.2-0.6V35.8z"/>
		<path style="fill:#FFFFFF;" d="M198.9,37.8c-0.2,0-0.3,0-0.4,0.1c-0.2,0.1-0.3,0.1-0.4,0.1c-0.3,0-0.5-0.4-0.5-1.3v-3.8
			c0-1.4-0.2-2.5-0.6-3.2c-0.7-1.3-1.9-2-3.7-2c-1.6,0-3.1,0.8-4.4,2.3v-1.2c0-0.5-0.2-0.7-0.7-0.7c-0.1,0-0.3,0-0.8,0.1
			c-0.5,0.1-0.8,0.1-1,0.1c-0.2,0-0.4,0-0.7-0.1c-0.4-0.1-0.7-0.1-0.9-0.1c-0.5,0-0.8,0.2-1.1,0.5c-0.3,0.3-0.4,0.7-0.4,1.2
			c0,0.9,0.4,1.4,1.2,1.4c0.1,0,0.2,0,0.4-0.1c0.2-0.1,0.3-0.1,0.4-0.1c0.3,0,0.4,0.5,0.4,1.4v4.1c0,0.9-0.1,1.4-0.4,1.4
			c-0.1,0-0.2,0-0.4-0.1c-0.2-0.1-0.3-0.1-0.5-0.1c-0.8,0-1.2,0.5-1.2,1.4c0,1.1,0.5,1.7,1.6,1.7c0.3,0,0.7,0,1.3-0.1s1-0.1,1.3-0.1
			c0.3,0,0.8,0,1.4,0.1c0.4,0,0.7,0.1,0.9,0.1c0.9,0,1.3-0.5,1.3-1.6c0-0.8-0.3-1.3-0.9-1.4c-0.3,0-0.5-0.2-0.6-0.3
			c-0.1-0.2-0.1-0.6-0.1-1.4v-2.6c0-0.7,0.2-1.3,0.7-1.8c0.4-0.5,1-0.7,1.7-0.7c0.6,0,1,0.2,1.3,0.6c0.3,0.4,0.4,1.1,0.4,2v3.5
			c0,0.4-0.2,0.6-0.7,0.6c-0.7,0-1,0.5-1,1.4c0,1,0.5,1.5,1.5,1.5c0.3,0,0.7,0,1.2-0.1c0.5-0.1,0.9-0.1,1.3-0.1c0.3,0,0.7,0,1.2,0.1
			c0.5,0.1,0.9,0.1,1.2,0.1c1,0,1.5-0.6,1.5-1.8C200,38.2,199.6,37.8,198.9,37.8z"/>
		<path style="fill:#FFFFFF;" d="M113.4,60.5c0.7-0.1,1.3-0.1,1.9-0.1c0.5,0,1.1,0,1.8,0.1c0.7,0.1,1.2,0.1,1.6,0.1
			c1.2,0,1.8-0.6,1.8-1.8c0-0.5-0.1-0.9-0.4-1.2c-0.2-0.3-0.5-0.5-0.9-0.5c-0.1,0-0.3,0-0.6,0.1c-0.2,0.1-0.4,0.1-0.5,0.1
			c-0.4,0-0.6-0.6-0.6-1.7V55c0-0.5,0-0.8,0.1-0.9c0.1-0.3,0.4-0.4,0.9-0.4c1.2,0,2,0.2,2.4,0.5c0.4,0.3,0.7,0.9,0.7,1.8v0.2v1.5
			c-0.1,0-0.1,0.1-0.1,0.2c0,0.8,0.2,1.5,0.6,2c0.4,0.5,0.9,0.8,1.5,0.8c0.2,0,0.5,0,0.9-0.1c0.4,0,0.7-0.1,0.9-0.1
			c0.2,0,0.5,0,0.9,0.1c0.4,0,0.7,0.1,0.9,0.1c0.5,0,1-0.2,1.3-0.5c0.3-0.3,0.5-0.8,0.5-1.3c0-0.5-0.1-0.9-0.3-1.2
			c-0.2-0.3-0.5-0.5-0.9-0.5c-0.1,0-0.3,0-0.5,0.1c-0.2,0-0.4,0.1-0.5,0.1c-0.4,0-0.6-0.3-0.6-1v-0.3c0-0.3,0-0.6,0-0.9
			c0-1-0.3-1.8-0.8-2.3c-0.5-0.5-1.4-0.9-2.6-1.1c1-0.2,1.8-0.5,2.3-0.9c0.9-0.6,1.3-1.5,1.3-2.8c0-1.4-0.5-2.5-1.4-3.3
			c-0.9-0.8-2.2-1.2-3.8-1.2c-0.5,0-1.2,0-2.2,0.1c-1.5,0.1-2.7,0.2-3.7,0.2c-0.6,0-1.1,0-1.6-0.1l-1.8-0.2c-0.1,0-0.1,0-0.2,0
			c-0.5,0-0.9,0.2-1.3,0.5s-0.5,0.8-0.5,1.3c0,0.5,0.1,0.9,0.4,1.2c0.3,0.3,0.6,0.5,1,0.5c0.2,0,0.4,0,0.6-0.1
			c0.3-0.1,0.5-0.1,0.6-0.1c0.3,0,0.5,0.2,0.6,0.7c0,0.2,0.1,0.5,0.1,1v6.9c0,1.1-0.2,1.7-0.7,1.7c-0.1,0-0.3,0-0.6-0.1
			c-0.3-0.1-0.5-0.1-0.6-0.1c-0.4,0-0.7,0.2-1,0.5c-0.3,0.3-0.4,0.7-0.4,1.2c0,1.2,0.6,1.8,1.8,1.8
			C112.1,60.6,112.7,60.6,113.4,60.5z M117.5,48.2c0-0.6,0.2-0.9,0.6-1.1c0.2-0.1,0.6-0.1,1.3-0.1c1.5,0,2.3,0.6,2.3,1.7
			c0,1.3-1.1,1.9-3.3,1.9c-0.4,0-0.6-0.1-0.7-0.2c-0.1-0.1-0.2-0.4-0.2-0.8V48.2z"/>
		<path style="fill:#FFFFFF;" d="M131,57.7c-0.1,0-0.1,0-0.2,0l-0.7-0.2c-0.8,0-1.2,0.5-1.2,1.4c0,0.5,0.1,0.9,0.4,1.2
			c0.3,0.3,0.7,0.5,1.1,0.5c0.3,0,0.7,0,1.3-0.1s1-0.1,1.3-0.1c0.6,0,1.1,0,1.6,0.1c0.8,0.1,1.2,0.1,1.4,0.1c1,0,1.5-0.6,1.5-1.8
			c0-0.9-0.4-1.3-1.1-1.3c-0.1,0-0.3,0-0.4,0.1c-0.2,0.1-0.3,0.1-0.4,0.1c-0.3,0-0.5-0.4-0.5-1.3v-7.5c0-0.7-0.2-1-0.7-1
			c-0.1,0-0.3,0-0.8,0.1c-0.5,0.1-0.8,0.1-1.1,0.1c-0.4,0-0.8,0-1.4-0.1c-0.4,0-0.6-0.1-0.8-0.1c-0.5,0-0.8,0.2-1.1,0.5
			c-0.3,0.3-0.4,0.7-0.4,1.2c0,0.9,0.4,1.4,1.2,1.4c0.1,0,0.2,0,0.4,0c0.3-0.1,0.4-0.1,0.5-0.1c0.3,0,0.4,0.5,0.4,1.4v4.1
			C131.4,57.2,131.3,57.7,131,57.7z"/>
		<path style="fill:#FFFFFF;" d="M133.2,42.4c-0.6,0-1.2,0.2-1.6,0.7c-0.4,0.4-0.7,1-0.7,1.6c0,0.6,0.2,1.2,0.7,1.6
			c0.5,0.5,1,0.7,1.6,0.7c0.6,0,1.2-0.2,1.6-0.7c0.4-0.4,0.7-1,0.7-1.6c0-0.6-0.2-1.2-0.7-1.6C134.3,42.6,133.8,42.4,133.2,42.4z"/>
		<path style="fill:#FFFFFF;" d="M150.1,58.1c-0.9-0.6-2.1-0.9-3.7-0.9h-1.6h-0.3c-1,0-1.6,0-1.8-0.1c-0.8-0.1-1.2-0.5-1.2-1
			c0-0.2,0.1-0.4,0.4-0.6l0.1,0c0.9,0.4,1.8,0.6,2.7,0.6c1.6,0,2.9-0.4,3.9-1.2c1-0.8,1.5-1.8,1.5-3.1c0-1.7-0.8-2.8-2.4-3.4
			c0,0,0-0.1,0-0.3c0-0.5,0.2-0.7,0.5-0.7c0.2,0,0.3,0.1,0.3,0.2l0.3,0.4c0.2,0.4,0.6,0.5,1,0.5c0.4,0,0.8-0.1,1-0.4
			c0.3-0.3,0.4-0.6,0.4-1.1c0-0.6-0.3-1.1-0.8-1.5s-1.2-0.6-2-0.6c-1,0-1.7,0.2-2.3,0.7c-0.6,0.5-0.8,1.1-0.9,2h-1
			c-1.5,0-2.7,0.4-3.7,1.2c-1,0.8-1.5,1.8-1.5,2.9c0,0.8,0.3,1.5,0.9,2.2c-0.8,0.3-1.3,0.7-1.6,1.1c-0.3,0.4-0.4,0.9-0.4,1.5
			c0,1.3,0.7,2,2,2.3c-1.7,0.5-2.5,1.4-2.5,2.8c0,1.2,0.6,2.2,1.8,3c1.2,0.7,2.8,1.1,4.8,1.1c2.2,0,4-0.4,5.3-1.3c1.3-0.9,2-2,2-3.5
			C151.5,59.7,151,58.8,150.1,58.1z M143.5,50.6c0.3-0.3,0.7-0.5,1.2-0.5c0.5,0,0.9,0.2,1.2,0.5c0.3,0.3,0.5,0.7,0.5,1.2
			c0,0.5-0.2,0.8-0.5,1.2c-0.3,0.3-0.7,0.5-1.2,0.5c-0.5,0-0.9-0.2-1.2-0.5c-0.3-0.3-0.5-0.7-0.5-1.2
			C143,51.3,143.2,50.9,143.5,50.6z M144.5,62.5c-2,0-3-0.4-3-1.3c0-0.5,0.4-0.9,1.1-1.2c0.6,0,1.1,0.1,1.5,0.1h0.7
			c0.4,0,0.6,0,0.7,0c1.3,0,2,0.4,2,1.1C147.4,62.1,146.5,62.5,144.5,62.5z"/>
		<path style="fill:#FFFFFF;" d="M166.7,57.5c-0.2,0-0.3,0-0.4,0.1c-0.1,0.1-0.2,0.1-0.4,0.1c-0.3,0-0.5-0.4-0.5-1.3v-4.3
			c0-1.4-0.2-2.5-0.7-3.1c-0.7-1-1.8-1.5-3.3-1.5c-0.7,0-1.3,0.1-1.8,0.3c-0.5,0.2-1.1,0.6-1.8,1.2v-4.6c0-0.6-0.2-0.9-0.7-0.9
			c-0.2,0-0.5,0-0.9,0.1c-0.4,0-0.8,0.1-1.3,0.1c-0.2,0-0.5,0-1-0.1c-0.4,0-0.7-0.1-1-0.1c-0.5,0-0.8,0.2-1.1,0.5
			c-0.3,0.3-0.4,0.7-0.4,1.2c0,0.9,0.4,1.4,1.2,1.4c0.2,0,0.3,0,0.4,0c0.2-0.1,0.3-0.1,0.5-0.1c0.3,0,0.4,0.5,0.4,1.4v8.4
			c0,0.9-0.1,1.4-0.4,1.4c-0.1,0-0.2,0-0.4-0.1c-0.2-0.1-0.3-0.1-0.4-0.1c-0.8,0-1.2,0.5-1.2,1.4c0,0.5,0.1,0.9,0.4,1.2
			c0.3,0.3,0.7,0.5,1.1,0.5c0.2,0,0.6,0,1.3-0.1c0.4,0,0.8-0.1,1.1-0.1c0.4,0,0.9,0,1.4,0.1c0.5,0.1,0.9,0.1,1.1,0.1
			c0.9,0,1.4-0.6,1.4-1.7c0-0.8-0.3-1.2-0.8-1.3c-0.3-0.1-0.5-0.1-0.6-0.2c-0.1-0.1-0.1-0.3-0.1-0.7v-3c0-2,0.7-3,2.2-3
			c1.1,0,1.6,0.7,1.6,2.1v3.8c0,0.3,0,0.5-0.1,0.7s-0.2,0.2-0.5,0.2c-0.6,0-1,0.5-1,1.4c0,0.5,0.1,0.8,0.4,1.1
			c0.3,0.3,0.6,0.4,1,0.4c0.3,0,0.7,0,1.2-0.1c0.5-0.1,0.9-0.1,1.2-0.1c0.3,0,0.7,0,1.3,0.1c0.6,0.1,1,0.1,1.3,0.1
			c1,0,1.5-0.6,1.5-1.8C167.8,58,167.4,57.5,166.7,57.5z"/>
		<path style="fill:#FFFFFF;" d="M175.4,54.2c-0.9,0-1.4,0.5-1.4,1.4c0,0.1,0,0.1,0,0.3c0,0.1,0,0.2,0,0.3c0,0.1,0,0.2,0,0.3
			c0,0.9-0.3,1.3-0.9,1.3c-0.6,0-0.9-0.5-0.9-1.5c0,0.1,0-0.1,0.1-0.7l0-1.7v-1.6v-1c0-0.3,0-0.4,0.1-0.6c0.1-0.1,0.3-0.2,0.6-0.2
			h2.1c0.9,0,1.4-0.4,1.4-1.3c0-0.9-0.5-1.4-1.5-1.4h-1.8c-0.4,0-0.6-0.1-0.7-0.2c-0.1-0.1-0.1-0.4-0.1-0.9v-1.4
			c0-0.6-0.1-0.9-0.3-1.1c-0.2-0.2-0.6-0.3-1.2-0.3c-0.8,0-1.4,0.1-1.7,0.3c-0.3,0.2-0.5,0.6-0.5,1.2v1.2c0,0.3,0,0.5-0.1,0.7
			c-0.1,0.2-0.3,0.4-0.7,0.4h-0.5c-0.3,0-0.5,0.1-0.7,0.4c-0.2,0.3-0.3,0.6-0.3,1s0.1,0.7,0.3,0.9c0.2,0.2,0.5,0.4,0.8,0.4h0.4
			c0.3,0,0.5,0.1,0.5,0.2c0.1,0.1,0.1,0.4,0.1,0.8v0.8c0,0.5,0,1.2-0.1,2.1c0,0.9-0.1,1.6-0.1,2.1c0,2.9,1.4,4.4,4.1,4.4
			c1.4,0,2.5-0.4,3.3-1.1c0.8-0.7,1.2-1.8,1.2-3.1C176.9,55,176.4,54.2,175.4,54.2z"/>
		<path style="fill:#FFFFFF;" d="M187.6,53.3c-0.5-0.3-1.3-0.5-2.4-0.7c-1.4-0.2-2.2-0.4-2.5-0.6c-0.3-0.1-0.5-0.4-0.5-0.7
			c0-0.7,0.5-1,1.5-1c0.8,0,1.5,0.4,2.1,1.1c0.5,0.6,1,0.9,1.7,0.9c0.9,0,1.3-0.4,1.3-1.3V51c0-0.2,0-0.4,0-0.6c0-0.2,0-0.4,0-0.4
			c0-0.3,0-0.6,0.1-0.9c0.1-0.3,0.1-0.5,0.1-0.7c0-0.6-0.4-0.9-1.3-0.9c-0.8,0-1.3,0.4-1.4,1.1c-0.9-0.7-2-1.1-3.3-1.1
			c-1.3,0-2.4,0.4-3.2,1.2c-0.8,0.8-1.2,1.8-1.2,3.1c0,0.7,0.1,1.3,0.4,1.9c0.3,0.5,0.7,0.9,1.2,1.2c0.5,0.3,1.3,0.5,2.5,0.8
			l1.5,0.3c1,0.2,1.5,0.6,1.5,1.1c0,0.8-0.6,1.1-1.8,1.1c-0.7,0-1.2-0.1-1.6-0.3c-0.4-0.2-0.7-0.6-1.2-1.2c-0.3-0.4-0.5-0.6-0.8-0.8
			c-0.2-0.1-0.6-0.2-1-0.2c-0.9,0-1.4,0.4-1.4,1.1c0,0.2,0,0.4,0,0.7c0,0.3,0,0.5,0,0.7c0,0.2,0,0.4-0.1,0.8c0,0.4,0,0.6,0,0.8
			c0,0.7,0.5,1.1,1.4,1.1c0.8,0,1.3-0.4,1.3-1.2c1.2,0.9,2.5,1.4,4,1.4c1.5,0,2.7-0.4,3.7-1.3c1-0.9,1.5-1.9,1.5-3.2
			c0-0.8-0.2-1.5-0.6-2.1C188.5,53.9,188.1,53.5,187.6,53.3z"/>
		<path style="fill:#FFFFFF;" d="M192.1,55.8c-0.7,0-1.3,0.2-1.8,0.7s-0.7,1.1-0.7,1.8c0,0.7,0.2,1.3,0.7,1.8
			c0.5,0.5,1.1,0.8,1.8,0.8c0.7,0,1.3-0.3,1.8-0.8c0.5-0.5,0.7-1.1,0.7-1.8c0-0.7-0.2-1.3-0.7-1.8C193.4,56.1,192.8,55.8,192.1,55.8
			z"/>
		<path style="fill:#FFFFFF;" d="M37,62.2V47.3l6-6l6,6v16.1c0.7,0,1.5,0,2.2,0c0.7,0,1.4,0,2.1,0V47.3l6-6l6,6v14.9
			c1.5-0.3,2.9-0.6,4.3-0.9v-14l6-6l6,6v9.9c1.5-0.7,2.9-1.4,4.3-2.2v-7.7l16.5-16.5c0-1.8-0.3-3.5-0.8-5.2L83.7,43.4l-5.1-5.1
			l19.6-19.6c-0.8-1.2-1.7-2.3-2.7-3.3L75.6,35.2l-2.1-2.1l-3-3l19.6-19.6c-1.2-0.8-2.4-1.6-3.7-2.4l-19,19l-1.5-1.5l-3.6-3.6
			l2.3-2.3l15-15c-1.4-0.6-2.9-1.1-4.4-1.6L61.9,16.4v0l-2.6,2.6l-5.1-5.1L67.1,0.9c-1.7-0.3-3.4-0.6-5.2-0.9L51.1,10.8L40.4,0
			c-1.8,0.2-3.5,0.5-5.2,0.9l12.9,12.9L43,18.9L27.1,3.1c-1.5,0.5-3,1.1-4.4,1.7l14.8,14.8l2.4,2.4l-2.3,2.3l-2.9,2.9L15.9,8.1
			c-1.3,0.8-2.5,1.6-3.6,2.4l19.6,19.6L29,32.9l0,0l-2.3,2.3L6.8,15.4c-1,1.1-1.9,2.2-2.7,3.4l19.5,19.5l-5.1,5.1L0.8,25.6
			C0.3,27.3,0,29.1,0,30.9l16.4,16.4v7.6c1.4,0.8,2.8,1.5,4.3,2.2v-9.8l6-6l6,6v14C34.1,61.6,35.5,61.9,37,62.2z M51.1,43.4L46,38.2
			l5.1-5.1l5.1,5.1L51.1,43.4z M70.3,36l2.2,2.2l-5.1,5.1l-5.1-5.1l5.1-5.1L70.3,36z M62.8,28.5L62.8,28.5l1.6,1.6l-5.1,5.1
			l-5.1-5.1l3-3l2.1-2.1L62.8,28.5z M51.1,16.8l5.1,5.1L54.2,24l0,0l-3,3L46,21.9L51.1,16.8z M43,25l5.1,5.1L43,35.2l-5.1-5.1L43,25
			z M29.7,38.2l5.1-5.1l5.1,5.1l-5.1,5.1L29.7,38.2z"/>
		<path style="fill:#FFFFFF;" d="M45.7,92.4c-0.8,0-1.4,0.3-1.9,0.8c-0.5,0.6-0.7,1.3-0.7,2.2c0,0.9,0.2,1.6,0.7,2.1
			c0.5,0.5,1.1,0.8,1.8,0.8c0.6,0,1.2-0.2,1.6-0.6c0.5-0.4,0.7-0.8,0.7-1.3c0-0.3-0.1-0.4-0.4-0.4c-0.2,0-0.3,0.1-0.4,0.3l-0.1,0.3
			c-0.1,0.3-0.3,0.5-0.5,0.7c-0.3,0.2-0.6,0.3-0.9,0.3c-0.5,0-0.9-0.2-1.2-0.5c-0.3-0.4-0.5-0.8-0.5-1.4c0-0.1,0-0.1,0-0.1
			c0,0,0.1,0,0.2,0h3.5c0.2,0,0.3,0,0.3-0.1c0-0.1,0.1-0.2,0.1-0.5c0-0.7-0.2-1.3-0.7-1.7C47,92.6,46.4,92.4,45.7,92.4z M47,94.7
			h-2.6c-0.2,0-0.2-0.1-0.2-0.2c0-0.4,0.2-0.7,0.5-1c0.3-0.3,0.7-0.4,1.1-0.4c0.4,0,0.7,0.1,1,0.4c0.3,0.3,0.4,0.6,0.4,1
			C47.2,94.6,47.1,94.7,47,94.7z"/>
		<path style="fill:#FFFFFF;" d="M42.3,90.7c-0.2,0-0.4,0-0.7,0c-0.3,0-0.6,0-0.7,0c-0.6,0-1,0-1.2,0h-1.2c-0.6,0-0.9,0-0.9,0
			c-0.4,0-0.6,0-0.7,0c-0.3,0-0.4,0.2-0.4,0.5c0-0.1,0,0.1,0,0.5c0,0.2,0,0.4,0,0.6c0,0.1,0,0.3,0,0.7c0,0.2,0,0.4,0,0.5
			c0,0.3,0.1,0.5,0.4,0.5c0.3,0,0.4-0.2,0.4-0.7c0-0.1,0-0.2,0-0.3l0-0.4c0-0.1,0-0.2,0-0.4c0-0.5,0.3-0.8,0.8-0.8h0.3
			c0.5,0,0.8,0.3,0.8,0.8v1.8v0.9v1v0.8c0,0.5-0.2,0.8-0.5,0.8c-0.1,0-0.1,0-0.3,0c-0.1,0-0.2,0-0.3,0c-0.2,0-0.3,0.1-0.3,0.3
			c0,0.3,0.2,0.4,0.5,0.4h0.1c0,0,0.1,0,0.1,0l0.5-0.1c0.2,0,0.5,0,0.7,0c0.3,0,0.5,0,0.7,0l0.5,0.1c0,0,0,0,0.1,0H41
			c0.3,0,0.5-0.1,0.5-0.4c0-0.1,0-0.2-0.1-0.2c-0.1-0.1-0.2-0.1-0.2-0.1c-0.1,0-0.1,0-0.3,0c-0.1,0-0.2,0-0.3,0
			c-0.4,0-0.6-0.3-0.6-0.8v-3.7l0-0.8c0-0.3,0.1-0.5,0.2-0.6c0.1-0.1,0.3-0.2,0.6-0.2h0.3c0.6,0,0.9,0.3,0.9,0.8c0,0.1,0,0.3,0,0.6
			c0,0.3,0,0.5,0,0.6c0,0.4,0.1,0.5,0.4,0.5c0.3,0,0.4-0.1,0.4-0.4c0-0.1,0-0.3,0-0.6c0-0.2,0-0.4,0-0.5v-0.1c0-0.2,0-0.4,0.1-0.6
			c0-0.2,0-0.3,0-0.4v0C42.8,90.8,42.6,90.7,42.3,90.7z"/>
		<path style="fill:#FFFFFF;" d="M92.6,91c-0.1,0.1-0.2,0.3-0.2,0.4c0,0.2,0.1,0.3,0.2,0.4c0.1,0.1,0.3,0.2,0.4,0.2s0.3-0.1,0.4-0.2
			c0.1-0.1,0.2-0.3,0.2-0.4c0-0.2-0.1-0.3-0.2-0.4c-0.1-0.1-0.3-0.2-0.4-0.2S92.7,90.8,92.6,91z"/>
		<path style="fill:#FFFFFF;" d="M101.2,97.4c-0.1,0-0.1,0-0.2,0c-0.1,0-0.1,0-0.2,0c-0.2,0-0.4-0.2-0.8-0.7l-1.4-1.8
			c-0.1-0.1-0.1-0.1-0.1-0.2c0,0,0-0.1,0.1-0.2l1.1-1.1c0.2-0.2,0.4-0.3,0.6-0.3c0.1,0,0.1,0,0.2,0c0.1,0,0.2,0,0.2,0
			c0.2,0,0.4-0.1,0.4-0.4c0-0.2-0.2-0.4-0.5-0.4c-0.1,0-0.1,0-0.3,0l-0.4,0.1c-0.1,0-0.2,0-0.4,0c-0.3,0-0.6,0-1.1-0.1
			c-0.1,0-0.2,0-0.3,0c-0.3,0-0.5,0.1-0.5,0.4c0,0.2,0.1,0.3,0.4,0.3c0.1,0,0.2,0,0.3,0c0.1,0,0.2,0,0.3,0c0.1,0,0.1,0,0.1,0.1
			c0,0.1,0,0.1-0.1,0.2l-1.9,1.8V91c0-0.3-0.1-0.4-0.4-0.4h-0.1c-0.1,0-0.1,0-0.2,0c-0.1,0-0.2,0-0.3,0c-0.1,0-0.2,0-0.4,0
			c-0.1,0-0.2,0-0.3,0c-0.3,0-0.4,0.1-0.4,0.4c0,0.2,0.1,0.3,0.4,0.3c0.1,0,0.2,0,0.3,0c0.1,0,0.2,0,0.2,0c0.1,0,0.2,0.1,0.2,0.2
			c0,0.1,0.1,0.4,0.1,0.7v4.4l0,0.4c0,0.3-0.1,0.4-0.3,0.4c0,0-0.1,0-0.2,0c-0.1,0-0.1,0-0.2,0c-0.3,0-0.4,0.1-0.4,0.4
			c0,0.2,0.1,0.4,0.4,0.4c0.1,0,0.3,0,0.6-0.1c0.2,0,0.4,0,0.6,0c0.1,0,0.3,0,0.6,0c0.3,0,0.4,0,0.6,0c0.3,0,0.4-0.1,0.4-0.4
			c0-0.2-0.1-0.4-0.4-0.4c-0.1,0-0.2,0-0.2,0c-0.1,0-0.1,0-0.2,0c-0.2,0-0.3-0.1-0.3-0.4v-0.6v-0.3l0.8-0.7c0.1-0.1,0.1-0.1,0.2-0.1
			c0,0,0.1,0,0.2,0.1l1.1,1.5l0.1,0.2l0.1,0.2c0,0,0,0,0,0v0c0,0.1,0,0.1-0.1,0.1c0,0-0.1,0-0.3-0.1c0,0-0.1,0-0.2,0
			c-0.3,0-0.4,0.1-0.4,0.4c0,0.2,0.1,0.4,0.4,0.4c0.1,0,0.3,0,0.5,0c0.2,0,0.4,0,0.5,0c0.1,0,0.3,0,0.6,0c0.3,0,0.5,0,0.6,0
			c0.3,0,0.5-0.1,0.5-0.4C101.6,97.5,101.5,97.4,101.2,97.4z"/>
		<path style="fill:#FFFFFF;" d="M94.3,97.4c-0.1,0-0.1,0-0.2,0c-0.1,0-0.2,0-0.3,0c-0.2,0-0.3-0.2-0.3-0.5c0-0.1,0-0.3,0-0.6v-1.4
			c0-0.3,0-0.6,0-0.9c0-0.4,0-0.6,0-0.7c0,0,0-0.1,0-0.1c0-0.1,0-0.1,0-0.1c0-0.3-0.1-0.4-0.3-0.4c-0.1,0-0.1,0-0.3,0
			c-0.1,0-0.2,0-0.3,0c-0.1,0-0.2,0-0.4,0c-0.1,0-0.2,0-0.3,0c-0.3,0-0.5,0.1-0.5,0.4c0,0.2,0.1,0.4,0.4,0.4c0.1,0,0.1,0,0.2,0
			c0.1,0,0.2,0,0.2,0c0.2,0,0.3,0.2,0.3,0.7v1v0.9v1c0,0.5-0.1,0.7-0.3,0.7c-0.1,0-0.1,0-0.3,0c-0.1,0-0.2,0-0.3,0
			c-0.3,0-0.4,0.1-0.4,0.4c0,0.2,0.1,0.4,0.4,0.4c0.1,0,0.3,0,0.6-0.1c0.2,0,0.4,0,0.6,0c0.1,0,0.3,0,0.5,0c0.2,0,0.4,0,0.5,0
			c0.1,0,0.3,0,0.3-0.1c0.1-0.1,0.1-0.2,0.1-0.3C94.7,97.5,94.6,97.4,94.3,97.4z"/>
		<path style="fill:#FFFFFF;" d="M144.8,95.4c-0.3,0-0.4,0.1-0.4,0.4v0.7c0,0.6-0.3,0.9-0.8,0.9c-0.5,0-0.8-0.4-0.8-1.1v-2.7
			c0-0.2,0.1-0.2,0.2-0.2h1.2c0.3,0,0.4-0.1,0.4-0.4c0-0.3-0.1-0.4-0.4-0.4H143c-0.1,0-0.2-0.1-0.2-0.2v-1.2c0-0.3-0.1-0.4-0.4-0.4
			c-0.3,0-0.4,0.1-0.4,0.4v1.1c0,0.1-0.1,0.2-0.2,0.2h-0.4c-0.1,0-0.2,0-0.3,0.1c-0.1,0.1-0.1,0.2-0.1,0.3c0,0.1,0,0.2,0.1,0.3
			c0.1,0.1,0.2,0.1,0.3,0.1h0.4c0.1,0,0.2,0.1,0.2,0.2v2.6c0,0.6,0.1,1.1,0.3,1.4c0.2,0.4,0.7,0.6,1.2,0.6c0.6,0,1.1-0.2,1.4-0.6
			c0.2-0.3,0.3-0.9,0.3-1.7C145.1,95.5,145,95.4,144.8,95.4z"/>
		<path style="fill:#FFFFFF;" d="M90.4,90.7c-0.2,0-0.4,0-0.7,0c-0.3,0-0.6,0-0.7,0c-0.6,0-1,0-1.2,0h-1.2c-0.6,0-0.9,0-0.9,0
			c-0.4,0-0.6,0-0.7,0c-0.3,0-0.4,0.2-0.4,0.5c0-0.1,0,0.1,0,0.5c0,0.2,0,0.4,0,0.6c0,0.1,0,0.3,0,0.7c0,0.2,0,0.4,0,0.5
			c0,0.3,0.1,0.5,0.4,0.5c0.3,0,0.4-0.2,0.4-0.7c0-0.1,0-0.2,0-0.3l0-0.4c0-0.1,0-0.2,0-0.4c0-0.5,0.3-0.8,0.8-0.8h0.3
			c0.5,0,0.8,0.3,0.8,0.8v1.8v0.9v1v0.8c0,0.5-0.2,0.8-0.5,0.8c-0.1,0-0.1,0-0.3,0c-0.1,0-0.2,0-0.3,0c-0.2,0-0.3,0.1-0.3,0.3
			c0,0.3,0.2,0.4,0.5,0.4h0.1c0,0,0.1,0,0.1,0L87,98c0.2,0,0.5,0,0.7,0c0.3,0,0.5,0,0.7,0l0.5,0.1c0,0,0,0,0.1,0h0.1
			c0.3,0,0.5-0.1,0.5-0.4c0-0.1,0-0.2-0.1-0.2c-0.1-0.1-0.2-0.1-0.2-0.1c-0.1,0-0.1,0-0.3,0c-0.1,0-0.2,0-0.3,0
			c-0.4,0-0.6-0.3-0.6-0.8v-3.7l0-0.8c0-0.3,0.1-0.5,0.2-0.6c0.1-0.1,0.3-0.2,0.6-0.2h0.3c0.6,0,0.9,0.3,0.9,0.8c0,0.1,0,0.3,0,0.6
			c0,0.3,0,0.5,0,0.6c0,0.4,0.1,0.5,0.4,0.5c0.3,0,0.4-0.1,0.4-0.4c0-0.1,0-0.3,0-0.6c0-0.2,0-0.4,0-0.5v-0.1c0-0.2,0-0.4,0.1-0.6
			c0-0.2,0-0.3,0-0.4v0C91,90.8,90.8,90.7,90.4,90.7z"/>
		<path style="fill:#FFFFFF;" d="M80.2,91.8c0.1-0.1,0.2-0.3,0.2-0.4c0-0.2-0.1-0.3-0.2-0.4c-0.1-0.1-0.3-0.2-0.4-0.2
			c-0.2,0-0.3,0.1-0.4,0.2c-0.1,0.1-0.2,0.3-0.2,0.4c0,0.2,0.1,0.3,0.2,0.4c0.1,0.1,0.3,0.2,0.4,0.2C80,92,80.1,91.9,80.2,91.8z"/>
		<path style="fill:#FFFFFF;" d="M107.4,95.9c-0.2,0-0.3,0.1-0.3,0.3v0.5c0,0.5-0.1,0.7-0.4,0.7c-0.2,0-0.3-0.1-0.4-0.4
			c0-0.1,0-0.3,0-0.6v-2.2c0-1.3-0.7-1.9-2-1.9c-0.6,0-1.1,0.1-1.5,0.4c-0.4,0.3-0.6,0.6-0.6,1c0,0.2,0.1,0.3,0.2,0.5
			c0.1,0.1,0.3,0.2,0.5,0.2c0.2,0,0.3,0,0.4-0.1c0.1-0.1,0.2-0.2,0.2-0.4c0-0.2-0.1-0.3-0.2-0.4c-0.1,0-0.1-0.1-0.1-0.1
			c0-0.1,0.1-0.2,0.2-0.2c0.3-0.2,0.6-0.3,0.9-0.3c0.4,0,0.7,0.1,0.9,0.3c0.2,0.2,0.3,0.4,0.3,0.7c0,0.3-0.1,0.5-0.3,0.6
			s-0.6,0.2-1.2,0.3c-0.4,0.1-0.7,0.1-0.9,0.1c-0.1,0-0.3,0.1-0.5,0.2c-0.5,0.3-0.8,0.7-0.8,1.3c0,0.5,0.2,0.9,0.5,1.2
			c0.4,0.3,0.8,0.4,1.4,0.4c0.8,0,1.4-0.3,1.7-0.8c0.1,0.5,0.5,0.8,1.1,0.8c0.7,0,1.1-0.3,1.1-1v-0.6v-0.1
			C107.8,96.1,107.7,95.9,107.4,95.9z M105.5,96c0,0.5-0.2,0.8-0.4,1.1s-0.7,0.4-1.2,0.4c-0.3,0-0.6-0.1-0.8-0.2
			c-0.2-0.2-0.3-0.4-0.3-0.7c0-0.5,0.4-0.8,1.2-0.9c0.5,0,0.8-0.1,1-0.2c0.2-0.1,0.3-0.2,0.5-0.3V96z"/>
		<path style="fill:#FFFFFF;" d="M134.4,96.8c-0.4-0.1-1-0.2-1.7-0.2h-0.1h-0.2h-0.1c-0.8,0-1.2-0.2-1.2-0.6c0-0.1,0-0.2,0.1-0.3
			c0.1-0.1,0.2-0.1,0.3-0.1c0.1,0,0.2,0,0.3,0.1c0.4,0.2,0.9,0.3,1.3,0.3c0.6,0,1-0.2,1.4-0.5c0.4-0.3,0.6-0.8,0.6-1.3
			c0-0.6-0.3-1.1-0.8-1.5c0-0.5,0.2-0.7,0.6-0.7c0.2,0,0.3,0.1,0.4,0.2c-0.2,0.1-0.2,0.2-0.2,0.4c0,0.1,0,0.2,0.1,0.3
			c0.1,0.1,0.2,0.1,0.3,0.1c0.2,0,0.3-0.1,0.4-0.2c0.1-0.1,0.2-0.3,0.2-0.4c0-0.3-0.1-0.5-0.3-0.7c-0.2-0.2-0.5-0.3-0.8-0.3
			c-0.8,0-1.2,0.4-1.2,1.1c-0.2-0.1-0.5-0.1-0.6-0.1c-0.6,0-1.1,0.2-1.4,0.5s-0.6,0.7-0.6,1.2c0,0.3,0.1,0.6,0.3,0.9
			c-0.6,0.2-0.9,0.5-0.9,1.1c0,0.5,0.3,0.8,0.9,1c-0.7,0.2-1,0.7-1,1.3c0,0.5,0.2,0.9,0.7,1.2c0.5,0.3,1.1,0.4,2,0.4
			c0.8,0,1.5-0.2,2-0.5c0.5-0.3,0.7-0.7,0.7-1.3c0-0.3-0.1-0.6-0.4-0.9C135.1,97.1,134.8,96.9,134.4,96.8z M131.8,94.1
			c0-0.3,0.1-0.5,0.4-0.7c0.2-0.2,0.5-0.3,0.8-0.3c0.3,0,0.6,0.1,0.9,0.3c0.2,0.2,0.3,0.5,0.3,0.8c0,0.3-0.1,0.6-0.3,0.8
			c-0.2,0.2-0.5,0.3-0.9,0.3c-0.3,0-0.6-0.1-0.9-0.3C132,94.7,131.8,94.5,131.8,94.1L131.8,94.1z M134.4,99
			c-0.3,0.2-0.8,0.3-1.4,0.3c-0.6,0-1-0.1-1.3-0.3c-0.3-0.2-0.5-0.4-0.5-0.7c0-0.3,0.2-0.5,0.5-0.7s0.8-0.3,1.4-0.3
			c0.6,0,1,0.1,1.4,0.3c0.3,0.2,0.5,0.4,0.5,0.7C134.9,98.6,134.7,98.8,134.4,99z"/>
		<path style="fill:#FFFFFF;" d="M129.6,97.4c0,0-0.1,0-0.2,0c-0.1,0-0.2,0-0.3,0c-0.2,0-0.3-0.1-0.3-0.4c0-0.1,0-0.2,0-0.6v-2.1
			c0-0.4-0.1-0.7-0.2-1c-0.1-0.3-0.4-0.5-0.7-0.7c-0.3-0.2-0.7-0.3-1.1-0.3c-0.7,0-1.3,0.3-1.8,0.8v-0.3c0-0.2-0.1-0.3-0.3-0.3
			c0,0-0.1,0-0.3,0c-0.1,0-0.2,0-0.3,0l-0.4,0c0,0-0.1,0-0.1,0c-0.3,0-0.5,0.1-0.5,0.4c0,0.2,0.1,0.4,0.4,0.4c0.1,0,0.1,0,0.2,0
			c0.1,0,0.2,0,0.2,0c0.1,0,0.2,0,0.3,0.1c0,0.1,0.1,0.3,0.1,0.5v0.4v1.3v1.2c0,0.4-0.1,0.6-0.3,0.6c-0.1,0-0.2,0-0.3,0
			c-0.1,0-0.2,0-0.2,0c-0.2,0-0.4,0.1-0.4,0.4c0,0.2,0.2,0.4,0.5,0.4c0,0,0.2,0,0.5-0.1c0.3,0,0.5,0,0.6,0c0.2,0,0.4,0,0.5,0
			c0.3,0,0.5,0.1,0.6,0.1c0.3,0,0.4-0.1,0.4-0.4c0-0.2-0.1-0.4-0.3-0.4c-0.1,0-0.1,0-0.3,0c-0.1,0-0.2,0-0.2,0
			c-0.1,0-0.2-0.1-0.2-0.2c0-0.1-0.1-0.3-0.1-0.7v-1.5c0-0.7,0.1-1.2,0.3-1.5c0.3-0.4,0.7-0.6,1.3-0.6c0.3,0,0.6,0.1,0.8,0.3
			c0.2,0.2,0.4,0.4,0.4,0.6c0,0.1,0.1,0.4,0.1,0.8v0.8v0.7v0.6c0,0.4-0.1,0.6-0.3,0.6c0,0-0.1,0-0.3,0c-0.1,0-0.1,0-0.2,0
			c-0.3,0-0.4,0.1-0.4,0.3c0,0.3,0.1,0.4,0.4,0.4c0,0,0.2,0,0.6-0.1c0.1,0,0.3,0,0.5,0c0.2,0,0.4,0,0.7,0c0.2,0,0.4,0,0.5,0
			c0.1,0,0.2,0,0.3-0.1c0.1-0.1,0.1-0.2,0.1-0.3c0-0.1,0-0.2-0.1-0.2C129.8,97.4,129.7,97.4,129.6,97.4z"/>
		<path style="fill:#FFFFFF;" d="M141.3,95.9c-0.2,0-0.3,0.1-0.3,0.3v0.5c0,0.5-0.1,0.7-0.4,0.7c-0.2,0-0.3-0.1-0.4-0.4
			c0-0.1,0-0.3,0-0.6v-2.2c0-1.3-0.7-1.9-2-1.9c-0.6,0-1.1,0.1-1.5,0.4c-0.4,0.3-0.6,0.6-0.6,1c0,0.2,0.1,0.3,0.2,0.5
			s0.3,0.2,0.5,0.2c0.2,0,0.3,0,0.4-0.1c0.1-0.1,0.2-0.2,0.2-0.4c0-0.2-0.1-0.3-0.2-0.4c-0.1,0-0.1-0.1-0.1-0.1
			c0-0.1,0.1-0.2,0.2-0.2c0.3-0.2,0.6-0.3,0.9-0.3c0.4,0,0.7,0.1,0.9,0.3c0.2,0.2,0.3,0.4,0.3,0.7c0,0.3-0.1,0.5-0.3,0.6
			c-0.2,0.1-0.6,0.2-1.2,0.3c-0.4,0.1-0.7,0.1-0.9,0.1c-0.1,0-0.3,0.1-0.5,0.2c-0.5,0.3-0.8,0.7-0.8,1.3c0,0.5,0.2,0.9,0.5,1.2
			c0.4,0.3,0.8,0.4,1.4,0.4c0.8,0,1.4-0.3,1.7-0.8c0.1,0.5,0.5,0.8,1.1,0.8c0.7,0,1.1-0.3,1.1-1v-0.6v-0.1
			C141.6,96.1,141.5,95.9,141.3,95.9z M139.3,96c0,0.5-0.2,0.8-0.4,1.1c-0.3,0.3-0.7,0.4-1.2,0.4c-0.3,0-0.6-0.1-0.8-0.2
			c-0.2-0.2-0.3-0.4-0.3-0.7c0-0.5,0.4-0.8,1.2-0.9c0.5,0,0.8-0.1,1-0.2c0.2-0.1,0.3-0.2,0.5-0.3V96z"/>
		<path style="fill:#FFFFFF;" d="M122.7,95.9c-0.2,0-0.3,0.1-0.3,0.3v0.5c0,0.5-0.1,0.7-0.4,0.7c-0.2,0-0.3-0.1-0.4-0.4
			c0-0.1,0-0.3,0-0.6v-2.2c0-1.3-0.7-1.9-2-1.9c-0.6,0-1.1,0.1-1.5,0.4c-0.4,0.3-0.6,0.6-0.6,1c0,0.2,0.1,0.3,0.2,0.5
			c0.1,0.1,0.3,0.2,0.5,0.2c0.2,0,0.3,0,0.4-0.1c0.1-0.1,0.2-0.2,0.2-0.4c0-0.2-0.1-0.3-0.2-0.4c-0.1,0-0.1-0.1-0.1-0.1
			c0-0.1,0.1-0.2,0.2-0.2c0.3-0.2,0.6-0.3,0.9-0.3c0.4,0,0.7,0.1,0.9,0.3c0.2,0.2,0.3,0.4,0.3,0.7c0,0.3-0.1,0.5-0.3,0.6
			s-0.6,0.2-1.2,0.3c-0.4,0.1-0.7,0.1-0.9,0.1c-0.1,0-0.3,0.1-0.5,0.2c-0.5,0.3-0.8,0.7-0.8,1.3c0,0.5,0.2,0.9,0.5,1.2
			c0.4,0.3,0.8,0.4,1.4,0.4c0.8,0,1.4-0.3,1.8-0.8c0.1,0.5,0.5,0.8,1.1,0.8c0.7,0,1.1-0.3,1.1-1v-0.6v-0.1
			C123.1,96.1,123,95.9,122.7,95.9z M120.8,96c0,0.5-0.2,0.8-0.4,1.1c-0.3,0.3-0.7,0.4-1.2,0.4c-0.3,0-0.6-0.1-0.8-0.2
			c-0.2-0.2-0.3-0.4-0.3-0.7c0-0.5,0.4-0.8,1.2-0.9c0.5,0,0.8-0.1,1-0.2c0.2-0.1,0.3-0.2,0.5-0.3V96z"/>
		<path style="fill:#FFFFFF;" d="M81.1,97.4c-0.1,0-0.1,0-0.2,0c-0.1,0-0.2,0-0.3,0c-0.2,0-0.3-0.2-0.3-0.5c0-0.1,0-0.3,0-0.6v-1.4
			c0-0.3,0-0.6,0-0.9c0-0.4,0-0.6,0-0.7c0,0,0-0.1,0-0.1c0-0.1,0-0.1,0-0.1c0-0.3-0.1-0.4-0.3-0.4c-0.1,0-0.1,0-0.3,0
			c-0.1,0-0.2,0-0.3,0c-0.1,0-0.2,0-0.4,0c-0.1,0-0.2,0-0.3,0c-0.3,0-0.5,0.1-0.5,0.4c0,0.2,0.1,0.4,0.4,0.4c0.1,0,0.1,0,0.2,0
			c0.1,0,0.2,0,0.2,0c0.2,0,0.3,0.2,0.3,0.7v1v0.9v1c0,0.5-0.1,0.7-0.3,0.7c-0.1,0-0.1,0-0.3,0s-0.2,0-0.3,0c-0.3,0-0.4,0.1-0.4,0.4
			c0,0.2,0.1,0.4,0.4,0.4c0.1,0,0.3,0,0.6-0.1c0.2,0,0.4,0,0.6,0c0.1,0,0.3,0,0.5,0c0.2,0,0.4,0,0.5,0c0.1,0,0.3,0,0.3-0.1
			c0.1-0.1,0.1-0.2,0.1-0.3C81.5,97.5,81.4,97.4,81.1,97.4z"/>
		<path style="fill:#FFFFFF;" d="M116.6,90.7c-0.2,0-0.4,0-0.7,0c-0.3,0-0.6,0-0.7,0c-0.6,0-1,0-1.2,0h-1.2c-0.6,0-0.9,0-0.9,0
			c-0.4,0-0.6,0-0.7,0c-0.3,0-0.4,0.2-0.4,0.5c0-0.1,0,0.1,0,0.5c0,0.2,0,0.4,0,0.6c0,0.1,0,0.3,0,0.7c0,0.2,0,0.4,0,0.5
			c0,0.3,0.1,0.5,0.4,0.5c0.3,0,0.4-0.2,0.4-0.7c0-0.1,0-0.2,0-0.3l0-0.4c0-0.1,0-0.2,0-0.4c0-0.5,0.3-0.8,0.8-0.8h0.3
			c0.5,0,0.8,0.3,0.8,0.8v1.8v0.9v1v0.8c0,0.5-0.2,0.8-0.5,0.8c-0.1,0-0.1,0-0.3,0c-0.1,0-0.2,0-0.3,0c-0.2,0-0.4,0.1-0.4,0.3
			c0,0.3,0.2,0.4,0.5,0.4h0.1c0,0,0.1,0,0.1,0l0.5-0.1c0.2,0,0.5,0,0.7,0c0.3,0,0.5,0,0.7,0l0.5,0.1c0,0,0,0,0.1,0h0.1
			c0.3,0,0.5-0.1,0.5-0.4c0-0.1,0-0.2-0.1-0.2c-0.1-0.1-0.2-0.1-0.2-0.1c-0.1,0-0.1,0-0.3,0c-0.1,0-0.2,0-0.3,0
			c-0.4,0-0.6-0.3-0.6-0.8v-3.7l0-0.8c0-0.3,0.1-0.5,0.2-0.6c0.1-0.1,0.3-0.2,0.6-0.2h0.3c0.6,0,0.9,0.3,0.9,0.8c0,0.1,0,0.3,0,0.6
			c0,0.3,0,0.5,0,0.6c0,0.4,0.1,0.5,0.4,0.5c0.3,0,0.4-0.1,0.4-0.4c0-0.1,0-0.3,0-0.6c0-0.2,0-0.4,0-0.5v-0.1c0-0.2,0-0.4,0.1-0.6
			s0-0.3,0-0.4v0C117.1,90.8,117,90.7,116.6,90.7z"/>
		<path style="fill:#FFFFFF;" d="M77.8,97.4c-0.1,0-0.1,0-0.2,0c-0.1,0-0.2,0-0.2,0c-0.2,0-0.3-0.2-0.3-0.6c0-0.1,0-0.3,0-0.7v-1.7
			c0-0.5,0-1,0.1-1.2c0-0.1,0-0.1,0-0.2c0-0.2-0.1-0.4-0.3-0.4c-0.1,0-0.1,0-0.3,0c-0.1,0-0.2,0-0.3,0c-0.1,0-0.2,0-0.3,0
			c-0.1,0-0.2,0-0.3,0c-0.3,0-0.4,0.1-0.4,0.4c0,0.2,0.1,0.3,0.4,0.3h0.1h0.2c0.2,0,0.2,0.2,0.3,0.5v0.7v0.6c0,0.8-0.1,1.3-0.2,1.6
			c-0.1,0.2-0.3,0.4-0.5,0.6c-0.2,0.1-0.5,0.2-0.8,0.2c-0.6,0-1-0.2-1.2-0.7c-0.1-0.3-0.2-0.7-0.2-1.4v-0.7l0-0.8v-0.7V93
			c0-0.3-0.1-0.4-0.3-0.4c0,0-0.1,0-0.2,0c-0.2,0-0.3,0-0.3,0c-0.1,0-0.2,0-0.3,0c-0.1,0-0.2,0-0.3,0c-0.3,0-0.5,0.1-0.5,0.3
			c0,0.2,0.1,0.4,0.4,0.4c0.1,0,0.1,0,0.2,0c0.1,0,0.2,0,0.2,0c0.2,0,0.3,0.5,0.3,1.5v0.9c0,0.5,0,0.8,0,1c0,0.3,0.1,0.6,0.2,0.8
			c0.3,0.5,0.9,0.8,1.8,0.8c0.8,0,1.3-0.3,1.7-0.8v0.3c0,0.2,0.1,0.3,0.3,0.3c0.1,0,0.1,0,0.2,0c0.1,0,0.2,0,0.2,0c0,0,0.2,0,0.3,0
			c0.1,0,0.2,0,0.3,0c0.3,0,0.5-0.1,0.5-0.4C78.1,97.5,78,97.4,77.8,97.4z"/>
		<path style="fill:#FFFFFF;" d="M65,95.9c-0.2,0-0.3,0.1-0.3,0.3v0.5c0,0.5-0.1,0.7-0.4,0.7c-0.2,0-0.3-0.1-0.4-0.4
			c0-0.1,0-0.3,0-0.6v-2.2c0-1.3-0.7-1.9-2-1.9c-0.6,0-1.1,0.1-1.5,0.4c-0.4,0.3-0.6,0.6-0.6,1c0,0.2,0.1,0.3,0.2,0.5
			c0.1,0.1,0.3,0.2,0.5,0.2c0.2,0,0.3,0,0.4-0.1c0.1-0.1,0.2-0.2,0.2-0.4c0-0.2-0.1-0.3-0.2-0.4c-0.1,0-0.1-0.1-0.1-0.1
			c0-0.1,0.1-0.2,0.2-0.2c0.3-0.2,0.6-0.3,0.9-0.3c0.4,0,0.7,0.1,0.9,0.3c0.2,0.2,0.3,0.4,0.3,0.7c0,0.3-0.1,0.5-0.3,0.6
			s-0.6,0.2-1.2,0.3c-0.4,0.1-0.7,0.1-0.9,0.1c-0.1,0-0.3,0.1-0.5,0.2c-0.5,0.3-0.8,0.7-0.8,1.3c0,0.3,0.1,0.6,0.2,0.8
			c-0.1-0.1-0.2-0.1-0.3-0.1c0,0-0.2,0-0.4,0H59c0,0-0.1,0-0.1,0c-0.2,0-0.6-0.3-1-0.9l-1.8-2.4L56,93.8c-0.1-0.1-0.1-0.1-0.1-0.2
			c0-0.1,0-0.1,0.1-0.2l2.1-1.7c0.2-0.2,0.5-0.3,0.7-0.3H59h0.1h0.1c0.3,0,0.4-0.1,0.4-0.4c0-0.2-0.1-0.4-0.4-0.4
			c-0.1,0-0.2,0-0.4,0c-0.4,0.1-0.7,0.1-1,0.1c-0.1,0-0.3,0-0.6,0l-0.6-0.1c-0.1,0-0.3,0-0.4,0c-0.3,0-0.5,0.1-0.5,0.4
			c0,0.3,0.1,0.4,0.4,0.4c0.1,0,0.3,0,0.6,0c0,0,0.1,0,0.1,0c0.1,0,0.2,0,0.2,0.1c0,0.1,0,0.1-0.1,0.2l-3.1,2.6V93
			c0-0.7,0-1.1,0.1-1.3s0.2-0.3,0.5-0.3c0.1,0,0.2,0,0.2,0c0.1,0,0.2,0,0.3,0c0.1,0,0.2,0,0.2-0.1c0.1-0.1,0.1-0.2,0.1-0.3
			c0-0.3-0.2-0.4-0.5-0.4c-0.1,0-0.3,0-0.7,0.1c-0.4,0-0.7,0.1-0.9,0.1c-0.2,0-0.4,0-0.6,0l-0.5-0.1c-0.1,0-0.1,0-0.1,0
			c-0.3,0-0.5,0.1-0.5,0.4c0,0.2,0.1,0.4,0.3,0.4c0.1,0,0.2,0,0.3,0c0.1,0,0.2,0,0.2,0c0.4,0,0.5,0.3,0.5,0.8l0,0.8v1v0.9v1
			c0,0.5,0,0.8,0,0.8c0,0.5-0.2,0.8-0.5,0.8c-0.1,0-0.1,0-0.2,0c-0.1,0-0.2,0-0.3,0c-0.2,0-0.3,0.1-0.3,0.4c0,0.3,0.2,0.4,0.5,0.4
			H52c0,0,0.1,0,0.1,0l0.6-0.1c0.2,0,0.3,0,0.6,0c0.3,0,0.6,0,0.7,0l0.6,0.1c0,0,0,0,0.1,0h0.1c0.3,0,0.5-0.1,0.5-0.4
			c0-0.1,0-0.2-0.1-0.3c-0.1-0.1-0.1-0.1-0.2-0.1c-0.1,0-0.2,0-0.3,0s-0.2,0-0.2,0c-0.3,0-0.5-0.2-0.5-0.6c0,0,0-0.4,0-1
			c0-0.2,0-0.3,0-0.4l1.1-1c0.1-0.1,0.1-0.1,0.1-0.1c0,0,0.1,0,0.1,0.1l2,2.8c0.1,0.1,0.1,0.2,0.1,0.2c0,0.1-0.1,0.1-0.3,0.1
			c0,0-0.2,0-0.5,0c-0.1,0-0.3,0-0.3,0c-0.3,0-0.4,0.1-0.4,0.4c0,0.2,0.1,0.4,0.4,0.4c0,0,0.2,0,0.5,0c0.4,0,0.8-0.1,1.2-0.1
			c0.3,0,0.6,0,0.9,0l0.5,0.1c0.3,0,0.4-0.1,0.4-0.4c0-0.1,0-0.1-0.1-0.2c0.1,0.1,0.2,0.2,0.3,0.3c0.4,0.3,0.8,0.4,1.4,0.4
			c0.8,0,1.4-0.3,1.8-0.8c0.1,0.5,0.5,0.8,1.1,0.8c0.7,0,1.1-0.3,1.1-1v-0.6v-0.1C65.4,96.1,65.2,95.9,65,95.9z M63,96
			c0,0.5-0.2,0.8-0.4,1.1c-0.3,0.3-0.7,0.4-1.2,0.4c-0.3,0-0.6-0.1-0.8-0.2c-0.2-0.2-0.3-0.4-0.3-0.7c0-0.5,0.4-0.8,1.2-0.9
			c0.5,0,0.8-0.1,1-0.2c0.2-0.1,0.3-0.2,0.5-0.3V96z"/>
		<path style="fill:#FFFFFF;" d="M151.2,95.9c-0.2,0-0.3,0.1-0.3,0.3v0.5c0,0.5-0.1,0.7-0.4,0.7c-0.2,0-0.3-0.1-0.4-0.4
			c0-0.1,0-0.3,0-0.6v-2.2c0-1.3-0.7-1.9-2-1.9c-0.6,0-1.1,0.1-1.5,0.4c-0.4,0.3-0.6,0.6-0.6,1c0,0.2,0.1,0.3,0.2,0.5
			s0.3,0.2,0.5,0.2c0.2,0,0.3,0,0.4-0.1c0.1-0.1,0.2-0.2,0.2-0.4c0-0.2-0.1-0.3-0.2-0.4c-0.1,0-0.1-0.1-0.1-0.1
			c0-0.1,0.1-0.2,0.2-0.2c0.3-0.2,0.6-0.3,0.9-0.3c0.4,0,0.7,0.1,0.9,0.3c0.2,0.2,0.3,0.4,0.3,0.7c0,0.3-0.1,0.5-0.3,0.6
			c-0.2,0.1-0.6,0.2-1.2,0.3c-0.4,0.1-0.7,0.1-0.9,0.1c-0.1,0-0.3,0.1-0.5,0.2c-0.5,0.3-0.8,0.7-0.8,1.3c0,0.5,0.2,0.9,0.5,1.2
			c0.4,0.3,0.8,0.4,1.4,0.4c0.8,0,1.4-0.3,1.8-0.8c0.1,0.5,0.5,0.8,1.1,0.8c0.7,0,1.1-0.3,1.1-1v-0.6v-0.1
			C151.5,96.1,151.4,95.9,151.2,95.9z M149.2,96c0,0.5-0.2,0.8-0.4,1.1c-0.3,0.3-0.7,0.4-1.2,0.4c-0.3,0-0.6-0.1-0.8-0.2
			c-0.2-0.2-0.3-0.4-0.3-0.7c0-0.5,0.4-0.8,1.2-0.9c0.5,0,0.8-0.1,1-0.2c0.2-0.1,0.3-0.2,0.5-0.3V96z"/>
		<path style="fill:#FFFFFF;" d="M71.8,97.3c-0.1,0-0.1,0-0.2,0c-0.1,0-0.2,0.1-0.3,0.1c-0.2,0-0.3-0.2-0.3-0.5c0,0,0-0.3,0-0.7
			v-1.8c0-0.6-0.2-1.1-0.6-1.4c-0.4-0.4-0.9-0.5-1.5-0.5c-0.3,0-0.6,0.1-0.9,0.2c-0.2,0.1-0.5,0.3-0.8,0.6l0-2.1v0
			c0-0.2-0.1-0.4-0.3-0.4c-0.1,0-0.1,0-0.3,0c-0.1,0-0.2,0-0.3,0c-0.2,0-0.3,0-0.4,0c-0.2,0-0.3,0-0.4,0c-0.1,0-0.2,0-0.3,0.1
			c-0.1,0.1-0.1,0.2-0.1,0.3c0,0.2,0.1,0.4,0.4,0.4c0.1,0,0.1,0,0.2,0c0.1,0,0.2,0,0.2,0c0.2,0,0.3,0.1,0.3,0.4c0,0.3,0.1,1,0.1,2.1
			v2c0,0.7,0,1.1-0.1,1.4c0,0.2-0.1,0.3-0.2,0.3c-0.1,0-0.1,0-0.3,0c0,0-0.1,0-0.2,0c-0.3,0-0.4,0.1-0.4,0.3c0,0.3,0.2,0.4,0.5,0.4
			c0.1,0,0.3,0,0.6,0c0.2,0,0.4,0,0.5,0c0.2,0,0.4,0,0.7,0c0.2,0,0.4,0,0.5,0c0.3,0,0.5-0.1,0.5-0.4c0-0.2-0.1-0.3-0.4-0.3
			c-0.1,0-0.1,0-0.2,0c-0.1,0-0.2,0-0.3,0c-0.2,0-0.3-0.2-0.3-0.5c0-0.1,0-0.3,0-0.7V96c0-0.1,0-0.2,0-0.2V95c0-0.6,0.1-1,0.3-1.3
			c0.3-0.4,0.7-0.6,1.3-0.6c0.5,0,0.9,0.2,1.1,0.6c0.1,0.3,0.2,0.8,0.2,1.5v0.6v0.5c0,0.3,0,0.4,0,0.5c0,0.5-0.1,0.7-0.3,0.7
			c-0.1,0-0.1,0-0.2,0c-0.1,0-0.2-0.1-0.3-0.1c-0.1,0-0.2,0-0.3,0.1c-0.1,0.1-0.1,0.1-0.1,0.2c0,0.1,0,0.2,0.1,0.3s0.2,0.1,0.3,0.1
			c0.1,0,0.3,0,0.6-0.1c0.1,0,0.2,0,0.4,0c0.2,0,0.4,0,0.7,0.1c0.2,0,0.3,0,0.4,0c0.3,0,0.5-0.1,0.5-0.4S72.1,97.3,71.8,97.3z"/>
		<path style="fill:#FFFFFF;" d="M37.2,86.3c-0.1,0-0.1,0-0.2,0c-0.1,0-0.2,0-0.3,0c-0.1,0-0.2,0-0.2,0.1c-0.1,0.1-0.1,0.2-0.1,0.2
			c0,0.3,0.2,0.4,0.5,0.4c0,0,0.1,0,0.1,0l0.3,0c0.3-0.1,0.7-0.1,1-0.1c0.3,0,0.6,0,0.9,0.1c0.3,0,0.4,0.1,0.5,0.1
			c0.3,0,0.5-0.1,0.5-0.4c0-0.2-0.1-0.3-0.3-0.3c-0.1,0-0.1,0-0.3,0s-0.2,0-0.3,0c-0.3,0-0.5-0.2-0.5-0.6c0-0.1,0-0.4,0-1v-1.2h3.5
			v1.2c0,0.6,0,0.9,0,1c-0.1,0.4-0.2,0.6-0.5,0.6c-0.1,0-0.1,0-0.3,0c-0.1,0-0.2,0-0.3,0c-0.2,0-0.4,0.1-0.4,0.4
			c0,0.3,0.2,0.4,0.5,0.4c0,0,0.2,0,0.5-0.1c0.3,0,0.6-0.1,1-0.1c0.3,0,0.6,0,0.8,0.1c0.2,0,0.4,0.1,0.4,0.1c0.3,0,0.5-0.1,0.5-0.4
			c0-0.2-0.1-0.3-0.3-0.3c-0.1,0-0.1,0-0.3,0c-0.1,0-0.2,0-0.3,0c-0.4,0-0.5-0.3-0.5-0.8v-4.4c0-0.5,0.2-0.8,0.6-0.8
			c0.1,0,0.1,0,0.3,0c0.1,0,0.2,0,0.3,0c0.2,0,0.3-0.1,0.3-0.4c0-0.3-0.2-0.4-0.5-0.4c-0.1,0-0.2,0-0.4,0.1
			c-0.4,0.1-0.7,0.1-1.1,0.1c-0.2,0-0.5,0-0.7-0.1c-0.3,0-0.5-0.1-0.6-0.1c-0.3,0-0.5,0.1-0.5,0.4c0,0.2,0.1,0.4,0.4,0.4
			c0.1,0,0.2,0,0.3,0c0.1,0,0.2,0,0.2,0c0.4,0,0.6,0.3,0.6,0.8v1.6h-3.5l0-1.6c0-0.5,0.2-0.8,0.5-0.8c0,0,0.1,0,0.2,0
			c0.1,0,0.2,0,0.3,0c0.1,0,0.2,0,0.2-0.1c0.1-0.1,0.1-0.2,0.1-0.3c0-0.3-0.2-0.4-0.5-0.4c-0.1,0-0.4,0-0.7,0.1
			c-0.3,0-0.5,0.1-0.7,0.1c-0.4,0-0.7,0-1-0.1c-0.2,0-0.3-0.1-0.4-0.1c-0.3,0-0.5,0.1-0.5,0.4c0,0.1,0,0.2,0.1,0.3
			c0.1,0.1,0.2,0.1,0.2,0.1c0.1,0,0.2,0,0.3,0s0.2,0,0.2,0c0.4,0,0.6,0.3,0.6,0.8v4.4C37.7,86,37.6,86.3,37.2,86.3z"/>
		<path style="fill:#FFFFFF;" d="M135.9,84.6v1c0,0.5-0.1,0.7-0.3,0.7c-0.1,0-0.1,0-0.3,0c-0.1,0-0.2,0-0.3,0
			c-0.3,0-0.4,0.1-0.4,0.4c0,0.2,0.1,0.4,0.4,0.4c0.1,0,0.3,0,0.6-0.1c0.2,0,0.4,0,0.6,0c0.1,0,0.3,0,0.5,0c0.2,0,0.4,0,0.5,0
			c0.1,0,0.3,0,0.3-0.1s0.1-0.2,0.1-0.3c0-0.2-0.1-0.4-0.4-0.4c-0.1,0-0.1,0-0.2,0c-0.1,0-0.2,0-0.3,0c-0.2,0-0.3-0.2-0.3-0.5
			c0-0.1,0-0.3,0-0.6v-1.4c0-0.3,0-0.6,0-0.9c0-0.4,0-0.6,0-0.7c0,0,0-0.1,0-0.1c0-0.1,0-0.1,0-0.1c0-0.3-0.1-0.4-0.3-0.4
			c-0.1,0-0.1,0-0.3,0c-0.1,0-0.2,0-0.3,0c-0.1,0-0.2,0-0.4,0c-0.1,0-0.2,0-0.3,0c-0.3,0-0.5,0.1-0.5,0.4c0,0.2,0.1,0.4,0.4,0.4
			c0.1,0,0.1,0,0.2,0c0.1,0,0.2,0,0.2,0c0.2,0,0.3,0.2,0.3,0.7v1V84.6z"/>
		<path style="fill:#FFFFFF;" d="M118.2,80.3c-0.5-0.6-1.2-0.9-2-0.9c-1,0-1.8,0.4-2.4,1.1c-0.6,0.7-0.9,1.7-0.9,2.9
			c0,1.2,0.3,2.1,0.9,2.8c0.6,0.7,1.4,1,2.4,1c0.9,0,1.5-0.2,2.1-0.7c0.5-0.5,0.8-1.1,0.8-1.9c0-0.3-0.2-0.5-0.5-0.5
			c-0.3,0-0.4,0.2-0.4,0.5c0,0.4,0,0.6-0.1,0.9c-0.1,0.3-0.4,0.6-0.7,0.8c-0.3,0.2-0.7,0.3-1.1,0.3c-0.7,0-1.3-0.3-1.8-0.8
			c-0.4-0.6-0.6-1.3-0.6-2.3c0-1,0.2-1.7,0.6-2.3c0.4-0.6,1-0.8,1.7-0.8c0.6,0,1,0.2,1.3,0.5s0.5,0.7,0.5,1.3v0.4
			c0,0.3,0.1,0.5,0.4,0.5c0.3,0,0.4-0.2,0.4-0.5v-0.1l0-0.4c0-0.2,0-0.4,0-0.6c0-0.1,0-0.4,0.1-0.8c0-0.3,0-0.5,0-0.5
			c0-0.3-0.1-0.5-0.4-0.5c-0.2,0-0.3,0.1-0.3,0.4c0,0,0,0.1,0,0.2c0,0,0,0,0,0.1v0.1V80.3z"/>
		<path style="fill:#FFFFFF;" d="M120.2,82c-0.5,0.5-0.7,1.2-0.7,2.1c0,0.9,0.2,1.6,0.7,2.1c0.5,0.5,1.1,0.8,1.8,0.8
			c0.8,0,1.4-0.3,1.9-0.8c0.5-0.5,0.7-1.3,0.7-2.1s-0.2-1.6-0.7-2.1c-0.5-0.5-1.1-0.8-1.9-0.8C121.2,81.2,120.6,81.5,120.2,82z
			 M123.7,84.2c0,0.7-0.2,1.2-0.5,1.6c-0.3,0.4-0.7,0.6-1.3,0.6c-0.5,0-0.9-0.2-1.2-0.6c-0.3-0.4-0.4-0.9-0.4-1.6V84
			c0-0.7,0.2-1.2,0.5-1.5c0.3-0.4,0.7-0.5,1.2-0.5C123.2,82,123.7,82.7,123.7,84.2z"/>
		<path style="fill:#FFFFFF;" d="M135.7,79.8c-0.1,0.1-0.2,0.3-0.2,0.4c0,0.2,0.1,0.3,0.2,0.4c0.1,0.1,0.3,0.2,0.4,0.2
			s0.3-0.1,0.4-0.2c0.1-0.1,0.2-0.3,0.2-0.4c0-0.2-0.1-0.3-0.2-0.4c-0.1-0.1-0.3-0.2-0.4-0.2S135.8,79.7,135.7,79.8z"/>
		<path style="fill:#FFFFFF;" d="M50.4,86.2c-0.1,0-0.1,0-0.2,0c-0.1,0-0.2,0-0.2,0c-0.2,0-0.3-0.2-0.3-0.6c0-0.1,0-0.3,0-0.7v-1.7
			c0-0.5,0-1,0.1-1.2c0-0.1,0-0.1,0-0.2c0-0.2-0.1-0.4-0.3-0.4c-0.1,0-0.1,0-0.3,0c-0.1,0-0.2,0-0.3,0c-0.1,0-0.2,0-0.3,0
			c-0.1,0-0.2,0-0.3,0c-0.3,0-0.4,0.1-0.4,0.4c0,0.2,0.1,0.3,0.4,0.3h0.1h0.2c0.2,0,0.2,0.2,0.3,0.5v0.7V84c0,0.8-0.1,1.3-0.2,1.6
			c-0.1,0.2-0.3,0.4-0.5,0.6c-0.2,0.1-0.5,0.2-0.8,0.2c-0.6,0-1-0.2-1.2-0.7C46,85.4,46,84.9,46,84.3v-0.7l0-0.8v-0.7v-0.2
			c0-0.3-0.1-0.4-0.3-0.4c0,0-0.1,0-0.2,0c-0.2,0-0.3,0-0.3,0c-0.1,0-0.2,0-0.3,0c-0.1,0-0.3,0-0.3,0c-0.3,0-0.5,0.1-0.5,0.3
			c0,0.2,0.1,0.4,0.4,0.4c0.1,0,0.1,0,0.2,0c0.1,0,0.2,0,0.2,0c0.2,0,0.3,0.5,0.3,1.5v0.9c0,0.5,0,0.8,0,1c0,0.3,0.1,0.6,0.2,0.8
			c0.3,0.5,0.9,0.8,1.8,0.8c0.8,0,1.3-0.3,1.7-0.8v0.3c0,0.2,0.1,0.3,0.3,0.3c0.1,0,0.1,0,0.2,0c0.1,0,0.2,0,0.2,0c0,0,0.2,0,0.3,0
			c0.1,0,0.2,0,0.3,0c0.3,0,0.5-0.1,0.5-0.4C50.8,86.3,50.7,86.2,50.4,86.2z"/>
		<path style="fill:#FFFFFF;" d="M131,86.6c0-0.1,0-0.2-0.1-0.3c-0.1-0.1-0.2-0.1-0.3-0.1c0,0-0.1,0-0.2,0c-0.1,0-0.1,0-0.2,0
			c-0.1,0-0.2-0.1-0.3-0.3c0-0.2,0-0.6,0-1.3V84c0-0.7,0.1-1.2,0.2-1.5c0.2-0.4,0.6-0.5,1.1-0.5c0.3,0,0.5,0.1,0.7,0.2
			c0.2,0.1,0.4,0.3,0.4,0.5c0.1,0.2,0.1,0.6,0.1,1.1v0.7v0.7c0,0.5,0,0.8-0.1,0.9c0,0.1-0.1,0.2-0.2,0.2c-0.1,0-0.1,0-0.2,0
			c-0.1,0-0.2,0-0.2,0c-0.2,0-0.4,0.1-0.4,0.3c0,0.3,0.2,0.4,0.5,0.4c0.1,0,0.3,0,0.5,0c0.2,0,0.4,0,0.5,0c0.1,0,0.3,0,0.5,0
			c0.2,0,0.4,0,0.5,0c0.3,0,0.4-0.1,0.4-0.4c0-0.2-0.1-0.3-0.4-0.3c-0.1,0-0.1,0-0.2,0c-0.1,0-0.2,0-0.2,0c-0.2,0-0.2-0.1-0.3-0.4
			c0-0.1,0-0.2,0-0.5v-0.8v-1.1c0-0.5,0-0.9-0.1-1.1c-0.1-0.4-0.4-0.6-0.8-0.8c-0.3-0.2-0.7-0.3-1.1-0.3c-0.4,0-0.7,0.1-1,0.2
			c-0.3,0.1-0.5,0.3-0.8,0.6c-0.3-0.6-0.9-0.8-1.6-0.8c-0.4,0-0.6,0.1-0.9,0.2c-0.2,0.1-0.5,0.3-0.7,0.7v-0.3c0-0.2-0.1-0.3-0.3-0.3
			h0l-0.3,0h-0.1h-0.1c-0.1,0-0.2,0-0.4,0c-0.1,0-0.2,0-0.3,0c-0.3,0-0.4,0.1-0.4,0.4c0,0.2,0.1,0.4,0.4,0.4c0,0,0.1,0,0.2,0
			c0.2,0,0.3-0.1,0.3-0.1c0.1,0,0.2,0.1,0.3,0.2s0,0.5,0,1.2v1.7v0.6c0,0.4-0.1,0.5-0.3,0.5c0,0,0,0,0,0l-0.3-0.1c0,0,0,0-0.1,0H125
			c-0.3,0-0.4,0.1-0.4,0.3c0,0.3,0.1,0.4,0.4,0.4c0.1,0,0.3,0,0.6,0c0.2,0,0.4,0,0.5,0c0.2,0,0.4,0,0.6,0c0.2,0,0.3,0,0.5,0
			c0.3,0,0.5-0.1,0.5-0.4c0-0.2-0.1-0.4-0.4-0.4h-0.1c0,0-0.1,0-0.1,0c-0.1,0-0.2,0.1-0.2,0.1c-0.1,0-0.2-0.1-0.2-0.4
			c0-0.1,0-0.2,0-0.5V84c0-0.7,0.1-1.2,0.3-1.5c0.3-0.4,0.6-0.5,1.1-0.5c0.4,0,0.7,0.1,0.9,0.4c0.2,0.2,0.3,0.7,0.3,1.3v0.9v0.2v0.5
			l0,0.5c0,0.4-0.1,0.6-0.3,0.6c-0.1,0-0.1,0-0.2,0c0,0-0.1,0-0.2,0c-0.2,0-0.3,0.1-0.3,0.3c0,0.3,0.1,0.4,0.4,0.4
			c0.1,0,0.3,0,0.5,0c0.2,0,0.3,0,0.5,0c0.1,0,0.3,0,0.5,0c0.2,0,0.4,0,0.5,0C130.9,86.9,131,86.8,131,86.6z"/>
		<path style="fill:#FFFFFF;" d="M151.6,86.2c-0.1,0-0.1,0-0.2,0c-0.1,0-0.2,0-0.3,0c-0.2,0-0.3-0.2-0.3-0.5c0-0.1,0-0.3,0-0.6v-1.4
			c0-0.3,0-0.6,0-0.9c0-0.4,0-0.6,0-0.7c0,0,0-0.1,0-0.1c0-0.1,0-0.1,0-0.1c0-0.3-0.1-0.4-0.3-0.4c-0.1,0-0.1,0-0.3,0
			c-0.1,0-0.2,0-0.3,0c-0.1,0-0.2,0-0.4,0c-0.1,0-0.2,0-0.3,0c-0.3,0-0.5,0.1-0.5,0.4c0,0.2,0.1,0.4,0.4,0.4c0.1,0,0.1,0,0.2,0
			c0.1,0,0.2,0,0.2,0c0.2,0,0.3,0.2,0.3,0.7v1v0.9v1c0,0.5-0.1,0.7-0.3,0.7c-0.1,0-0.1,0-0.3,0c-0.1,0-0.2,0-0.3,0
			c-0.3,0-0.4,0.1-0.4,0.4c0,0.2,0.1,0.4,0.4,0.4c0.1,0,0.3,0,0.6-0.1c0.2,0,0.4,0,0.6,0c0.1,0,0.3,0,0.5,0c0.2,0,0.4,0,0.5,0
			c0.1,0,0.3,0,0.3-0.1s0.1-0.2,0.1-0.3C152,86.3,151.9,86.2,151.6,86.2z"/>
		<path style="fill:#FFFFFF;" d="M143.8,86.7c0,0.3,0.1,0.4,0.4,0.4c0.2,0,0.4-0.1,0.4-0.4v-0.2c0.4,0.3,1,0.5,1.6,0.5
			c0.6,0,1.2-0.2,1.6-0.5c0.4-0.3,0.6-0.7,0.6-1.3c0-0.9-0.6-1.4-1.9-1.5l-0.6-0.1c-0.6-0.1-1-0.4-1-0.8c0-0.3,0.1-0.5,0.3-0.6
			c0.2-0.2,0.5-0.3,0.8-0.3c0.3,0,0.6,0.1,0.9,0.2c0.2,0.2,0.4,0.3,0.4,0.6v0.4c0,0.2,0.1,0.4,0.4,0.4c0.2,0,0.4-0.1,0.4-0.4
			c0-0.1,0-0.2,0-0.4c0-0.2,0-0.3,0-0.4c0-0.1,0-0.3,0-0.4c0-0.2,0-0.3,0-0.3c0-0.2-0.1-0.3-0.4-0.3c-0.2,0-0.4,0.1-0.4,0.4v0
			c-0.3-0.3-0.7-0.4-1.2-0.4c-0.6,0-1.1,0.2-1.5,0.5c-0.4,0.3-0.6,0.7-0.6,1.2c0,0.5,0.2,0.9,0.6,1.1c0.4,0.2,1,0.4,1.7,0.4
			c0.8,0.1,1.2,0.4,1.2,0.9c0,0.3-0.1,0.5-0.4,0.7c-0.2,0.2-0.5,0.3-0.9,0.3c-0.5,0-0.9-0.1-1.2-0.3c-0.3-0.2-0.5-0.5-0.5-0.8
			c0-0.3,0-0.5-0.1-0.6c0-0.1-0.1-0.1-0.3-0.1c-0.2,0-0.3,0.1-0.3,0.4c0,0.1,0,0.2,0,0.4c0,0.2,0,0.3,0,0.5c0,0.1,0,0.2,0,0.3
			C143.8,86.6,143.8,86.8,143.8,86.7z"/>
		<path style="fill:#FFFFFF;" d="M149.9,79.8c-0.1,0.1-0.2,0.3-0.2,0.4c0,0.2,0.1,0.3,0.2,0.4c0.1,0.1,0.3,0.2,0.4,0.2
			c0.2,0,0.3-0.1,0.4-0.2c0.1-0.1,0.2-0.3,0.2-0.4c0-0.2-0.1-0.3-0.2-0.4c-0.1-0.1-0.3-0.2-0.4-0.2C150.1,79.7,150,79.7,149.9,79.8z
			"/>
		<path style="fill:#FFFFFF;" d="M138.4,86.7c0,0.3,0.1,0.4,0.4,0.4c0.2,0,0.4-0.1,0.4-0.4v-0.2c0.4,0.3,1,0.5,1.6,0.5
			c0.6,0,1.2-0.2,1.6-0.5c0.4-0.3,0.6-0.7,0.6-1.3c0-0.9-0.6-1.4-1.9-1.5l-0.6-0.1c-0.6-0.1-1-0.4-1-0.8c0-0.3,0.1-0.5,0.3-0.6
			c0.2-0.2,0.5-0.3,0.8-0.3c0.3,0,0.6,0.1,0.9,0.2c0.2,0.2,0.4,0.3,0.4,0.6v0.4c0,0.2,0.1,0.4,0.4,0.4c0.2,0,0.4-0.1,0.4-0.4
			c0-0.1,0-0.2,0-0.4c0-0.2,0-0.3,0-0.4c0-0.1,0-0.3,0-0.4c0-0.2,0-0.3,0-0.3c0-0.2-0.1-0.3-0.4-0.3c-0.2,0-0.4,0.1-0.4,0.4v0
			c-0.3-0.3-0.7-0.4-1.2-0.4c-0.6,0-1.1,0.2-1.5,0.5c-0.4,0.3-0.6,0.7-0.6,1.2c0,0.5,0.2,0.9,0.6,1.1c0.4,0.2,1,0.4,1.7,0.4
			c0.8,0.1,1.2,0.4,1.2,0.9c0,0.3-0.1,0.5-0.3,0.7c-0.2,0.2-0.5,0.3-0.9,0.3c-0.5,0-0.9-0.1-1.2-0.3c-0.3-0.2-0.5-0.5-0.5-0.8
			c0-0.3,0-0.5-0.1-0.6c0-0.1-0.1-0.1-0.3-0.1c-0.2,0-0.3,0.1-0.3,0.4c0,0.1,0,0.2,0,0.4c0,0.2,0,0.3,0,0.5c0,0.1,0,0.2,0,0.3
			C138.4,86.6,138.4,86.8,138.4,86.7z"/>
		<path style="fill:#FFFFFF;" d="M71.9,85.1v0.6c0,0.4-0.1,0.6-0.3,0.6c0,0-0.1,0-0.3,0c-0.1,0-0.1,0-0.2,0c-0.3,0-0.4,0.1-0.4,0.3
			c0,0.3,0.1,0.4,0.4,0.4c0,0,0.2,0,0.6-0.1c0.1,0,0.3,0,0.5,0c0.2,0,0.4,0,0.7,0c0.2,0,0.4,0,0.5,0c0.1,0,0.2,0,0.3-0.1
			c0.1-0.1,0.1-0.2,0.1-0.3c0-0.1,0-0.2-0.1-0.2c-0.1-0.1-0.2-0.1-0.2-0.1c0,0-0.1,0-0.2,0s-0.2,0-0.3,0c-0.2,0-0.3-0.1-0.3-0.4
			c0-0.1,0-0.2,0-0.6v-2.1c0-0.4-0.1-0.7-0.2-1c-0.1-0.3-0.4-0.5-0.7-0.7c-0.3-0.2-0.7-0.3-1.1-0.3c-0.7,0-1.3,0.3-1.8,0.8v-0.3
			c0-0.2-0.1-0.3-0.3-0.3c0,0-0.1,0-0.3,0c-0.1,0-0.2,0-0.3,0l-0.4,0c0,0-0.1,0-0.1,0c-0.3,0-0.5,0.1-0.5,0.4c0,0.2,0.1,0.4,0.4,0.4
			c0.1,0,0.1,0,0.2,0c0.1,0,0.2,0,0.2,0c0.1,0,0.2,0,0.3,0.1s0.1,0.3,0.1,0.5v0.4v1.3v1.2c0,0.4-0.1,0.6-0.3,0.6c-0.1,0-0.2,0-0.3,0
			c-0.1,0-0.2,0-0.2,0c-0.2,0-0.4,0.1-0.4,0.3c0,0.2,0.2,0.4,0.5,0.4c0,0,0.2,0,0.5-0.1c0.3,0,0.5,0,0.6,0c0.2,0,0.4,0,0.5,0
			c0.3,0,0.5,0.1,0.6,0.1c0.3,0,0.4-0.1,0.4-0.4c0-0.2-0.1-0.4-0.3-0.4c-0.1,0-0.1,0-0.3,0c-0.1,0-0.2,0-0.2,0
			c-0.1,0-0.2-0.1-0.2-0.2c0-0.1-0.1-0.3-0.1-0.7V84c0-0.7,0.1-1.2,0.3-1.5c0.3-0.4,0.7-0.6,1.3-0.6c0.3,0,0.6,0.1,0.8,0.3
			c0.2,0.2,0.4,0.4,0.4,0.6c0,0.1,0.1,0.4,0.1,0.8v0.8V85.1z"/>
		<path style="fill:#FFFFFF;" d="M156.5,82c-0.5-0.5-1.1-0.8-1.9-0.8c-0.8,0-1.4,0.3-1.9,0.8c-0.5,0.5-0.7,1.2-0.7,2.1
			c0,0.9,0.2,1.6,0.7,2.1c0.5,0.5,1.1,0.8,1.8,0.8c0.8,0,1.4-0.3,1.9-0.8c0.5-0.5,0.7-1.3,0.7-2.1S156.9,82.5,156.5,82z M155.8,85.8
			c-0.3,0.4-0.7,0.6-1.3,0.6c-0.5,0-0.9-0.2-1.2-0.6c-0.3-0.4-0.4-0.9-0.4-1.6V84c0-0.7,0.2-1.2,0.5-1.5c0.3-0.4,0.7-0.5,1.2-0.5
			c1.1,0,1.7,0.7,1.7,2.2C156.3,84.9,156.1,85.4,155.8,85.8z"/>
		<path style="fill:#FFFFFF;" d="M107.5,83.8l-0.6-0.1c-0.6-0.1-1-0.4-1-0.8c0-0.3,0.1-0.5,0.3-0.6c0.2-0.2,0.5-0.3,0.8-0.3
			c0.3,0,0.6,0.1,0.9,0.2c0.2,0.2,0.4,0.3,0.4,0.6v0.4c0,0.2,0.1,0.4,0.4,0.4c0.2,0,0.4-0.1,0.4-0.4c0-0.1,0-0.2,0-0.4
			c0-0.2,0-0.3,0-0.4c0-0.1,0-0.3,0-0.4c0-0.2,0-0.3,0-0.3c0-0.2-0.1-0.3-0.4-0.3c-0.2,0-0.4,0.1-0.4,0.4v0
			c-0.3-0.3-0.7-0.4-1.2-0.4c-0.6,0-1.1,0.2-1.5,0.5c-0.4,0.3-0.6,0.7-0.6,1.2c0,0.5,0.2,0.9,0.6,1.1c0.4,0.2,1,0.4,1.7,0.4
			c0.8,0.1,1.2,0.4,1.2,0.9c0,0.3-0.1,0.5-0.3,0.7c-0.2,0.2-0.5,0.3-0.9,0.3c-0.5,0-0.9-0.1-1.2-0.3c-0.3-0.2-0.5-0.5-0.5-0.8
			c0-0.3,0-0.5-0.1-0.6c0-0.1-0.1-0.1-0.3-0.1c-0.2,0-0.4,0.1-0.4,0.4c0,0.1,0,0.2,0,0.4c0,0.2,0,0.3,0,0.5c0,0.1,0,0.2,0,0.3
			c0,0.4-0.1,0.6-0.1,0.6c0,0.3,0.1,0.4,0.4,0.4c0.2,0,0.4-0.1,0.4-0.4v-0.2c0.4,0.3,1,0.5,1.6,0.5c0.6,0,1.2-0.2,1.6-0.5
			c0.4-0.3,0.6-0.7,0.6-1.3C109.4,84.5,108.8,84,107.5,83.8z"/>
		<path style="fill:#FFFFFF;" d="M85.9,84.6v1c0,0.5-0.1,0.7-0.3,0.7c-0.1,0-0.1,0-0.3,0s-0.2,0-0.3,0c-0.3,0-0.4,0.1-0.4,0.4
			c0,0.2,0.1,0.4,0.4,0.4c0.1,0,0.3,0,0.6-0.1c0.2,0,0.4,0,0.6,0c0.1,0,0.3,0,0.5,0c0.2,0,0.4,0,0.5,0c0.1,0,0.3,0,0.3-0.1
			c0.1-0.1,0.1-0.2,0.1-0.3c0-0.2-0.1-0.4-0.4-0.4c-0.1,0-0.1,0-0.2,0c-0.1,0-0.2,0-0.3,0c-0.2,0-0.3-0.2-0.3-0.5c0-0.1,0-0.3,0-0.6
			v-1.4c0-0.3,0-0.6,0-0.9c0-0.4,0-0.6,0-0.7c0,0,0-0.1,0-0.1c0-0.1,0-0.1,0-0.1c0-0.3-0.1-0.4-0.3-0.4c-0.1,0-0.1,0-0.3,0
			c-0.1,0-0.2,0-0.3,0c-0.1,0-0.2,0-0.4,0c-0.1,0-0.2,0-0.3,0c-0.3,0-0.5,0.1-0.5,0.4c0,0.2,0.1,0.4,0.4,0.4c0.1,0,0.1,0,0.2,0
			c0.1,0,0.2,0,0.2,0c0.2,0,0.3,0.2,0.3,0.7v1V84.6z"/>
		<path style="fill:#FFFFFF;" d="M84.2,83.9c-0.2,0-0.3,0.1-0.3,0.2c0,0.1,0,0.2,0,0.4v0.2V85v0.3c0,0.6-0.2,0.9-0.5,0.9
			c-0.3,0-0.5-0.3-0.5-0.8v-0.1v-0.5c0-0.6-0.1-0.9-0.2-1.2c-0.2-0.2-0.5-0.4-0.9-0.5c0.3-0.1,0.6-0.2,0.8-0.3
			c0.6-0.3,0.8-0.8,0.8-1.5c0-1.2-0.8-1.8-2.4-1.8c-0.2,0-0.5,0-0.8,0l-0.8,0c-0.3,0-0.5,0-0.8,0c-0.2,0-0.4,0-0.5,0l-0.6-0.1
			c-0.1,0-0.1,0-0.2,0c-0.3,0-0.5,0.1-0.5,0.4c0,0.1,0,0.2,0.1,0.2s0.1,0.1,0.2,0.1c0.1,0,0.1,0,0.3,0c0.1,0,0.2,0,0.3,0
			c0.4,0,0.6,0.3,0.6,0.8v4.4c0,0.5-0.2,0.8-0.6,0.8c-0.1,0-0.1,0-0.2,0c-0.2,0-0.3,0-0.3,0c-0.2,0-0.3,0.1-0.3,0.3
			c0,0.3,0.2,0.4,0.5,0.4c0,0,0,0,0.2,0l0.5-0.1c0.3,0,0.5-0.1,0.8-0.1c0.2,0,0.4,0,0.6,0l0.6,0.1l0.2,0c0.3,0,0.5-0.1,0.5-0.4
			c0-0.2-0.1-0.4-0.4-0.4c-0.1,0-0.2,0-0.3,0c-0.1,0-0.1,0-0.2,0c-0.3,0-0.5-0.2-0.5-0.5c0-0.1,0-0.4,0-0.9v-0.8
			c0-0.3,0.1-0.4,0.3-0.4h1c0.6,0,1,0.1,1.1,0.2c0.2,0.2,0.3,0.5,0.3,1V85v0.4v0.3c0,0.9,0.4,1.3,1.3,1.3c0.4,0,0.8-0.1,1-0.4
			c0.2-0.2,0.4-0.6,0.4-1c0-0.1,0-0.2,0-0.2v-0.3v-0.3v-0.2c0-0.2,0-0.2,0-0.2C84.6,84.1,84.4,83.9,84.2,83.9z M80.5,82.8h-1
			c-0.1,0-0.2,0-0.3,0c0,0-0.1-0.1-0.1-0.2v-1.3v-0.3c0-0.3,0.1-0.5,0.3-0.5c0.2-0.1,0.6-0.1,1.2-0.1c1.1,0,1.7,0.4,1.7,1.2
			c0,0.5-0.2,0.8-0.6,1.1C81.5,82.7,81.1,82.8,80.5,82.8z"/>
		<path style="fill:#FFFFFF;" d="M52.2,86.9c0.2,0,0.4,0,0.5,0c0.2,0,0.4,0,0.6,0c0.2,0,0.3,0,0.5,0c0.3,0,0.5-0.1,0.5-0.4
			c0-0.2-0.1-0.4-0.4-0.4h-0.1c0,0-0.1,0-0.1,0c-0.1,0-0.2,0.1-0.2,0.1c-0.1,0-0.2-0.1-0.2-0.4c0-0.1,0-0.2,0-0.5V84
			c0-0.7,0.1-1.2,0.3-1.5c0.3-0.4,0.6-0.5,1.1-0.5c0.4,0,0.7,0.1,0.9,0.4c0.2,0.2,0.3,0.7,0.3,1.3v0.9v0.2v0.5l0,0.5
			c0,0.4-0.1,0.6-0.3,0.6c-0.1,0-0.1,0-0.2,0c0,0-0.1,0-0.2,0c-0.2,0-0.3,0.1-0.3,0.3c0,0.3,0.1,0.4,0.4,0.4c0.1,0,0.3,0,0.5,0
			c0.2,0,0.3,0,0.5,0c0.1,0,0.3,0,0.5,0c0.2,0,0.4,0,0.5,0c0.3,0,0.5-0.1,0.5-0.4c0-0.1,0-0.2-0.1-0.3c-0.1-0.1-0.2-0.1-0.3-0.1
			c0,0-0.1,0-0.2,0c-0.1,0-0.1,0-0.2,0c-0.1,0-0.2-0.1-0.3-0.3c0-0.2,0-0.6,0-1.3V84c0-0.7,0.1-1.2,0.2-1.5c0.2-0.4,0.6-0.5,1.1-0.5
			c0.3,0,0.5,0.1,0.7,0.2c0.2,0.1,0.4,0.3,0.4,0.5c0.1,0.2,0.1,0.6,0.1,1.1v0.7v0.7c0,0.5,0,0.8-0.1,0.9c0,0.1-0.1,0.2-0.2,0.2
			c-0.1,0-0.1,0-0.2,0c-0.1,0-0.2,0-0.2,0c-0.2,0-0.4,0.1-0.4,0.3c0,0.3,0.2,0.4,0.5,0.4c0.1,0,0.3,0,0.5,0c0.2,0,0.4,0,0.5,0
			c0.1,0,0.3,0,0.5,0c0.2,0,0.4,0,0.5,0c0.3,0,0.4-0.1,0.4-0.4c0-0.2-0.1-0.3-0.4-0.3c-0.1,0-0.1,0-0.2,0c-0.1,0-0.2,0-0.2,0
			c-0.2,0-0.2-0.1-0.3-0.4c0-0.1,0-0.2,0-0.5v-0.8v-1.1c0-0.5,0-0.9-0.1-1.1c-0.1-0.4-0.4-0.6-0.8-0.8c-0.3-0.2-0.7-0.3-1.1-0.3
			c-0.4,0-0.7,0.1-1,0.2c-0.3,0.1-0.5,0.3-0.8,0.6c-0.3-0.6-0.9-0.8-1.6-0.8c-0.4,0-0.6,0.1-0.9,0.2c-0.2,0.1-0.5,0.3-0.7,0.7v-0.3
			c0-0.2-0.1-0.3-0.3-0.3h0l-0.3,0h-0.1h-0.1c-0.1,0-0.2,0-0.4,0c-0.1,0-0.2,0-0.3,0c-0.3,0-0.4,0.1-0.4,0.4c0,0.2,0.1,0.4,0.4,0.4
			c0,0,0.1,0,0.2,0c0.2,0,0.3-0.1,0.3-0.1c0.1,0,0.2,0.1,0.3,0.2c0,0.2,0,0.5,0,1.2v1.7v0.6c0,0.4-0.1,0.5-0.3,0.5c0,0,0,0,0,0
			l-0.3-0.1c0,0,0,0-0.1,0h-0.1c-0.3,0-0.4,0.1-0.4,0.3c0,0.3,0.1,0.4,0.4,0.4C51.7,86.9,51.9,86.9,52.2,86.9z"/>
		<path style="fill:#FFFFFF;" d="M163.3,86.2c0,0-0.1,0-0.2,0c-0.1,0-0.2,0-0.3,0c-0.2,0-0.3-0.1-0.3-0.4c0-0.1,0-0.2,0-0.6v-2.1
			c0-0.4-0.1-0.7-0.2-1c-0.1-0.3-0.4-0.5-0.7-0.7c-0.3-0.2-0.7-0.3-1.1-0.3c-0.7,0-1.3,0.3-1.8,0.8v-0.3c0-0.2-0.1-0.3-0.3-0.3
			c0,0-0.1,0-0.3,0c-0.1,0-0.2,0-0.3,0l-0.4,0c0,0-0.1,0-0.1,0c-0.3,0-0.5,0.1-0.5,0.4c0,0.2,0.1,0.4,0.4,0.4c0.1,0,0.1,0,0.2,0
			c0.1,0,0.2,0,0.2,0c0.1,0,0.2,0,0.3,0.1c0,0.1,0.1,0.3,0.1,0.5v0.4v1.3v1.2c0,0.4-0.1,0.6-0.3,0.6c-0.1,0-0.2,0-0.3,0
			c-0.1,0-0.2,0-0.2,0c-0.2,0-0.4,0.1-0.4,0.3c0,0.2,0.2,0.4,0.5,0.4c0,0,0.2,0,0.5-0.1c0.3,0,0.5,0,0.6,0c0.2,0,0.4,0,0.5,0
			c0.3,0,0.5,0.1,0.6,0.1c0.3,0,0.4-0.1,0.4-0.4c0-0.2-0.1-0.4-0.3-0.4c-0.1,0-0.1,0-0.3,0c-0.1,0-0.2,0-0.2,0
			c-0.1,0-0.2-0.1-0.2-0.2c0-0.1-0.1-0.3-0.1-0.7V84c0-0.7,0.1-1.2,0.3-1.5c0.3-0.4,0.7-0.6,1.3-0.6c0.3,0,0.6,0.1,0.8,0.3
			c0.2,0.2,0.4,0.4,0.4,0.6c0,0.1,0.1,0.4,0.1,0.8v0.8v0.7v0.6c0,0.4-0.1,0.6-0.3,0.6c0,0-0.1,0-0.3,0c-0.1,0-0.1,0-0.2,0
			c-0.3,0-0.4,0.1-0.4,0.3c0,0.3,0.1,0.4,0.4,0.4c0,0,0.2,0,0.6-0.1c0.1,0,0.3,0,0.5,0c0.2,0,0.4,0,0.7,0c0.2,0,0.4,0,0.5,0
			c0.1,0,0.2,0,0.3-0.1c0.1-0.1,0.1-0.2,0.1-0.3c0-0.1,0-0.2-0.1-0.2C163.5,86.3,163.4,86.2,163.3,86.2z"/>
		<path style="fill:#FFFFFF;" d="M86.6,80.7c0.1-0.1,0.2-0.3,0.2-0.4c0-0.2-0.1-0.3-0.2-0.4c-0.1-0.1-0.3-0.2-0.4-0.2
			c-0.2,0-0.3,0.1-0.4,0.2c-0.1,0.1-0.2,0.3-0.2,0.4c0,0.2,0.1,0.3,0.2,0.4c0.1,0.1,0.3,0.2,0.4,0.2C86.4,80.9,86.5,80.8,86.6,80.7z
			"/>
		<path style="fill:#FFFFFF;" d="M101.9,81.3v-1.2c0-0.3-0.1-0.4-0.4-0.4c-0.3,0-0.4,0.1-0.4,0.4v1.1c0,0.1-0.1,0.2-0.2,0.2h-0.4
			c-0.1,0-0.2,0-0.3,0.1c-0.1,0.1-0.1,0.2-0.1,0.3c0,0.1,0,0.2,0.1,0.3c0.1,0.1,0.2,0.1,0.3,0.1h0.4c0.1,0,0.2,0.1,0.2,0.2v2.6
			c0,0.6,0.1,1.1,0.3,1.4c0.2,0.4,0.7,0.6,1.2,0.6c0.6,0,1.1-0.2,1.4-0.6c0.2-0.3,0.3-0.9,0.3-1.7c0-0.3-0.1-0.5-0.4-0.5
			c-0.3,0-0.4,0.1-0.4,0.4v0.7c0,0.6-0.3,0.9-0.8,0.9c-0.5,0-0.8-0.4-0.8-1.1v-2.7c0-0.2,0.1-0.2,0.2-0.2h1.2c0.3,0,0.4-0.1,0.4-0.4
			c0-0.3-0.1-0.4-0.4-0.4h-1.2C102,81.5,101.9,81.4,101.9,81.3z"/>
		<path style="fill:#FFFFFF;" d="M93.2,81.7c0.1,0.1,0.2,0.1,0.3,0.1c0.2,0,0.3-0.1,0.4-0.2c0.1-0.1,0.2-0.3,0.2-0.4
			c0-0.3-0.1-0.5-0.3-0.7c-0.2-0.2-0.5-0.3-0.8-0.3c-0.8,0-1.2,0.4-1.2,1.1c-0.2-0.1-0.5-0.1-0.6-0.1c-0.6,0-1.1,0.2-1.4,0.5
			C89.2,82.1,89,82.5,89,83c0,0.3,0.1,0.6,0.3,0.9c-0.6,0.2-0.9,0.5-0.9,1c0,0.5,0.3,0.8,0.9,1c-0.7,0.2-1,0.7-1,1.3
			c0,0.5,0.2,0.9,0.7,1.2c0.5,0.3,1.1,0.4,2,0.4s1.5-0.2,2-0.5c0.5-0.3,0.7-0.7,0.7-1.3c0-0.3-0.1-0.6-0.4-0.9
			c-0.2-0.3-0.6-0.5-1-0.6c-0.4-0.1-1-0.2-1.7-0.2h-0.1h-0.2h-0.1c-0.8,0-1.2-0.2-1.2-0.6c0-0.1,0-0.2,0.1-0.3
			c0.1-0.1,0.2-0.1,0.3-0.1c0.1,0,0.2,0,0.3,0.1c0.4,0.2,0.9,0.3,1.3,0.3c0.6,0,1-0.2,1.4-0.5s0.6-0.8,0.6-1.3
			c0-0.6-0.3-1.1-0.8-1.5c0-0.5,0.2-0.7,0.6-0.7c0.2,0,0.3,0.1,0.4,0.2c-0.2,0.1-0.2,0.2-0.2,0.4C93,81.5,93.1,81.6,93.2,81.7z
			 M89.6,86.5c0.3-0.2,0.8-0.3,1.4-0.3c0.6,0,1,0.1,1.3,0.3c0.3,0.2,0.5,0.4,0.5,0.7c0,0.3-0.2,0.5-0.5,0.7
			c-0.3,0.2-0.8,0.3-1.4,0.3c-0.6,0-1-0.1-1.3-0.3c-0.3-0.2-0.5-0.4-0.5-0.7C89.1,86.9,89.3,86.7,89.6,86.5z M91.9,83.8
			c-0.2,0.2-0.5,0.3-0.9,0.3c-0.4,0-0.6-0.1-0.9-0.3c-0.2-0.2-0.3-0.5-0.3-0.8V83c0-0.3,0.1-0.5,0.4-0.7c0.2-0.2,0.5-0.3,0.8-0.3
			c0.3,0,0.6,0.1,0.9,0.3c0.2,0.2,0.3,0.5,0.3,0.8C92.2,83.4,92.1,83.6,91.9,83.8z"/>
		<path style="fill:#FFFFFF;" d="M99,85.1c0,0.3,0,0.4,0,0.5c0,0.5-0.1,0.7-0.3,0.7c-0.1,0-0.1,0-0.2,0c-0.1,0-0.2-0.1-0.3-0.1
			c-0.1,0-0.2,0-0.3,0.1c-0.1,0.1-0.1,0.1-0.1,0.2c0,0.1,0,0.2,0.1,0.3c0.1,0.1,0.2,0.1,0.3,0.1c0.1,0,0.3,0,0.6-0.1
			c0.1,0,0.2,0,0.4,0s0.4,0,0.7,0.1c0.2,0,0.3,0,0.4,0c0.4,0,0.5-0.1,0.5-0.4c0-0.2-0.1-0.4-0.4-0.4c-0.1,0-0.1,0-0.2,0
			c-0.1,0-0.2,0.1-0.3,0.1c-0.2,0-0.3-0.2-0.3-0.5c0,0,0-0.3,0-0.7v-1.8c0-0.6-0.2-1.1-0.6-1.4c-0.4-0.4-0.9-0.5-1.5-0.5
			c-0.3,0-0.6,0.1-0.9,0.2S96.3,81.7,96,82l0-2.1v0c0-0.2-0.1-0.4-0.3-0.4c-0.1,0-0.1,0-0.3,0c-0.1,0-0.2,0-0.3,0
			c-0.2,0-0.3,0-0.4,0c-0.2,0-0.3,0-0.4,0c-0.1,0-0.2,0-0.3,0.1c-0.1,0.1-0.1,0.2-0.1,0.3c0,0.2,0.1,0.3,0.4,0.3c0.1,0,0.1,0,0.2,0
			c0.1,0,0.2,0,0.2,0c0.2,0,0.3,0.1,0.3,0.4c0,0.3,0.1,1,0.1,2.1v2c0,0.7,0,1.1-0.1,1.4c0,0.2-0.1,0.3-0.2,0.3c-0.1,0-0.1,0-0.3,0
			c0,0-0.1,0-0.2,0c-0.3,0-0.4,0.1-0.4,0.3c0,0.3,0.2,0.4,0.5,0.4c0.1,0,0.3,0,0.6,0c0.2,0,0.4,0,0.5,0c0.2,0,0.4,0,0.7,0
			c0.2,0,0.4,0,0.5,0c0.3,0,0.5-0.1,0.5-0.4c0-0.2-0.1-0.3-0.4-0.3c-0.1,0-0.1,0-0.2,0c-0.1,0-0.2,0-0.3,0c-0.2,0-0.3-0.2-0.3-0.5
			c0-0.1,0-0.3,0-0.7v-0.2c0-0.1,0-0.2,0-0.2v-0.8c0-0.6,0.1-1,0.3-1.3c0.3-0.4,0.7-0.6,1.3-0.6c0.5,0,0.9,0.2,1.1,0.6
			c0.1,0.3,0.2,0.8,0.2,1.5v0.6V85.1z"/>
		<path style="fill:#FFFFFF;" d="M64.8,86.3c0.1,0.5,0.5,0.8,1.1,0.8c0.7,0,1.1-0.3,1.1-1v-0.6v-0.1c0-0.4-0.1-0.5-0.4-0.5
			c-0.2,0-0.3,0.1-0.3,0.3v0.5c0,0.5-0.1,0.7-0.4,0.7c-0.2,0-0.3-0.1-0.4-0.4c0-0.1,0-0.3,0-0.6v-2.2c0-1.3-0.7-1.9-2-1.9
			c-0.6,0-1.1,0.1-1.5,0.4c-0.4,0.3-0.6,0.6-0.6,1c0,0.2,0.1,0.4,0.2,0.5c0.1,0.1,0.3,0.2,0.5,0.2c0.2,0,0.3,0,0.4-0.1
			c0.1-0.1,0.2-0.2,0.2-0.4c0-0.2-0.1-0.3-0.2-0.4c-0.1,0-0.1-0.1-0.1-0.1c0-0.1,0.1-0.2,0.2-0.2c0.3-0.2,0.6-0.3,0.9-0.3
			c0.4,0,0.7,0.1,0.9,0.3c0.2,0.2,0.3,0.4,0.3,0.7c0,0.3-0.1,0.5-0.3,0.6c-0.2,0.1-0.6,0.2-1.2,0.3c-0.4,0.1-0.7,0.1-0.9,0.1
			c-0.1,0-0.3,0.1-0.5,0.2c-0.5,0.3-0.8,0.7-0.8,1.3c0,0.5,0.2,0.9,0.5,1.2c0.4,0.3,0.8,0.4,1.4,0.4C63.8,87.1,64.4,86.8,64.8,86.3z
			 M63,86.4c-0.3,0-0.6-0.1-0.8-0.2c-0.2-0.2-0.3-0.4-0.3-0.7c0-0.5,0.4-0.8,1.2-0.9c0.5,0,0.8-0.1,1-0.2c0.2-0.1,0.3-0.2,0.5-0.3
			v0.8c0,0.5-0.2,0.8-0.4,1.1C63.9,86.2,63.5,86.4,63,86.4z"/>
		<path style="fill:#FFFFFF;" d="M61.1,90.6c-0.3,0-0.4,0.1-0.4,0.4s0.1,0.4,0.4,0.4h1.7c0.3,0,0.4-0.1,0.4-0.4
			c0-0.2-0.1-0.4-0.4-0.4H61.1z"/>
	</g>
</g>
</svg>
