<?xml version="1.0" encoding="utf-8"?>
<!-- Generator: Adobe Illustrator 19.1.1, SVG Export Plug-In . SVG Version: 6.00 Build 0)  -->
<svg version="1.1" id="icons" xmlns="http://www.w3.org/2000/svg" xmlns:xlink="http://www.w3.org/1999/xlink" x="0px" y="0px"
	 viewBox="0 0 18 18" style="enable-background:new 0 0 18 18;" xml:space="preserve">
<g id="arrow-large-r">
</g>
<g id="link-external">
</g>
<g id="link-list">
</g>
<g id="download">
</g>
<g id="info">
	<g>
		<path style="fill:#029BE5;" d="M9,0C4,0,0,4,0,9s4,9,9,9s9-4,9-9S14,0,9,0z M8.6,4.9c0.1-0.1,0.1-0.2,0.2-0.3s0.2-0.1,0.4-0.2
			s0.3-0.1,0.4-0.1c0.1,0,0.3,0,0.4,0s0.2,0.1,0.3,0.1s0.2,0.1,0.2,0.2s0.1,0.2,0.1,0.3c0,0.2,0,0.3-0.1,0.4s-0.2,0.2-0.3,0.3
			S10,6,9.9,6S9.6,6,9.4,6C9.3,6,9.2,6,9.1,6S8.9,5.9,8.8,5.9S8.6,5.7,8.6,5.6S8.5,5.4,8.5,5.3C8.5,5.1,8.5,5,8.6,4.9z M10.4,13.2
			c-0.1,0.1-0.3,0.2-0.4,0.3s-0.3,0.1-0.5,0.2s-0.4,0.1-0.6,0.1c-0.5,0-0.8-0.1-1.1-0.3s-0.4-0.5-0.4-0.9c0-0.2,0-0.4,0-0.6
			s0.1-0.5,0.1-0.8l0.5-2.2c0-0.1,0-0.1,0-0.2s0-0.1,0-0.2s0-0.1,0-0.1s0-0.1,0-0.1c0-0.1,0-0.2,0-0.3S8.1,7.9,8,7.9
			S7.9,7.8,7.8,7.8s-0.2,0-0.3,0H7.3l0.1-0.6h2.8L9.4,11c0,0.2-0.1,0.4-0.1,0.6s0,0.4,0,0.5c0,0.2,0,0.3,0.1,0.4s0.2,0.1,0.3,0.1
			c0.1,0,0.2,0,0.3-0.1s0.2-0.1,0.4-0.2l0.3,0.4C10.6,13,10.5,13.1,10.4,13.2z"/>
	</g>
</g>
<g id="close">
</g>
<g id="dismiss">
</g>
<g id="search">
</g>
<g id="filter-open">
</g>
<g id="filter-close">
</g>
<g id="fail">
</g>
<g id="pass">
</g>
<g id="smart-t-fail">
</g>
<g id="smart-r-fail">
</g>
<g id="smart-a-fail">
</g>
<g id="smart-m-fail">
</g>
<g id="smart-s-fail">
	<g id="smart-s-fail_1_">
	</g>
</g>
<g id="smart-t">
</g>
<g id="smart-r">
</g>
<g id="smart-a">
</g>
<g id="smart-m">
</g>
<g id="smart-s">
	<g id="smart-s_1_">
	</g>
</g>
<g id="hrc-logo">
</g>
</svg>
