<svg xmlns="http://www.w3.org/2000/svg" viewBox="0 0 32 20"><title>hrc-icons</title><path d="M12,18.6V14.4l1.7-1.7,1.7,1.7V19h1.2V14.4l1.7-1.7L20,14.4v4.2l1.2-.3v-4l1.7-1.7,1.7,1.7v2.8l1.2-.6V14.4l4.7-4.7a5.8,5.8,0,0,0-.2-1.5l-5.1,5.1-1.5-1.5,5.6-5.6-0.8-1L22.9,11l-0.6-.6-0.9-.9L27,4l-1-.7L20.6,8.7l-0.4-.4-1-1,0.7-.7,4.2-4.2-1.3-.5L19,5.6h0l-0.7.7L16.8,4.9l3.7-3.7L19,1,16,4.1,12.9,1l-1.5.3,3.7,3.7L13.7,6.4,9.2,1.9l-1.3.5,4.2,4.2,0.7,0.7-0.6.6-0.8.8L6,3.3,4.9,4l5.6,5.6-0.8.8h0L9,11,3.4,5.4l-0.8,1,5.5,5.5L6.7,13.3l-5-5a5.9,5.9,0,0,0-.2,1.5l4.7,4.7v2.2l1.2,0.6V14.4L9,12.7l1.7,1.7v4Zm4-5.3-1.5-1.5L16,10.4l1.5,1.5Zm5.4-2.1,0.6,0.6-1.5,1.5-1.5-1.5,1.5-1.5ZM19.3,9.1h0l0.5,0.5L18.3,11,16.8,9.5l0.9-.9,0.6-.6ZM16,5.8l1.5,1.5-0.6.6h0L16,8.7,14.5,7.2ZM13.7,8.1l1.5,1.5L13.7,11,12.2,9.5ZM9.9,11.9l1.5-1.5,1.5,1.5-1.5,1.5Z" style="fill:#b5bec0"/></svg>