<?xml version="1.0" encoding="utf-8"?>
<!-- Generator: Adobe Illustrator 19.1.1, SVG Export Plug-In . SVG Version: 6.00 Build 0)  -->
<svg version="1.1" id="icons" xmlns="http://www.w3.org/2000/svg" xmlns:xlink="http://www.w3.org/1999/xlink" x="0px" y="0px"
	 viewBox="0 0 32 20" style="enable-background:new 0 0 32 20;" xml:space="preserve">
<g id="arrow-large-r">
</g>
<g id="link-external">
</g>
<g id="link-list">
</g>
<g id="linkedin_1_">
</g>
<g id="twitter">
</g>
<g id="facebook">
</g>
<g id="download">
</g>
<g id="info">
</g>
<g id="close">
</g>
<g id="delete">
</g>
<g id="dismiss-fat">
</g>
<g id="more">
</g>
<g id="dismiss">
</g>
<g id="search">
</g>
<g id="dropdown-close_1_">
</g>
<g id="dropdown-open_1_">
</g>
<g id="filter-open">
</g>
<g id="filter-close">
</g>
<g id="fail">
</g>
<g id="pass">
</g>
<g id="smart-t-fail">
	<g id="front_9_">
	</g>
</g>
<g id="smart-r-fail">
	<g id="front_8_">
	</g>
</g>
<g id="smart-a-fail">
	<g id="front_7_">
	</g>
</g>
<g id="smart-m-fail">
	<g id="front_6_">
	</g>
</g>
<g id="smart-s-fail">
	<g id="front_5_">
	</g>
</g>
<g id="smart-t">
</g>
<g id="smart-r">
</g>
<g id="smart-a">
</g>
<g id="smart-m">
</g>
<g id="smart-s">
	<g id="smart-s_1_">
	</g>
</g>
<g id="smart-m-pass">
</g>
<g id="smart-s-pass">
</g>
<g id="smart-a-pass">
</g>
<g id="smart-r-pass">
</g>
<g id="smart-t-pass">
</g>
<g id="hrc-logo">
</g>
<g id="hrc-logo-icon">
	<path style="fill:#B5BEC0;" d="M12,18.6v-4.2l1.7-1.7l1.7,1.7V19c0.2,0,0.4,0,0.6,0c0.2,0,0.4,0,0.6,0v-4.6l1.7-1.7l1.7,1.7v4.2
		c0.4-0.1,0.8-0.2,1.2-0.3v-4l1.7-1.7l1.7,1.7v2.8c0.4-0.2,0.8-0.4,1.2-0.6v-2.2l4.7-4.7c0-0.5-0.1-1-0.2-1.5l-5.1,5.1l-1.5-1.5
		l5.6-5.6c-0.2-0.3-0.5-0.6-0.8-1L22.9,11l-0.6-0.6l-0.9-0.9L27,4c-0.3-0.2-0.7-0.5-1-0.7l-5.4,5.4l-0.4-0.4l-1-1l0.7-0.7l4.2-4.2
		c-0.4-0.2-0.8-0.3-1.3-0.5L19,5.6v0l-0.7,0.7l-1.5-1.5l3.7-3.7C20,1.2,19.5,1.1,19,1L16,4.1L12.9,1c-0.5,0.1-1,0.2-1.5,0.3l3.7,3.7
		l-1.5,1.5L9.2,1.9C8.7,2,8.3,2.2,7.9,2.3l4.2,4.2l0.7,0.7l-0.6,0.6l-0.8,0.8L6,3.3C5.6,3.5,5.3,3.8,4.9,4l5.6,5.6l-0.8,0.8l0,0
		L9,11L3.4,5.4C3.1,5.7,2.9,6,2.6,6.3l5.5,5.5l-1.5,1.5l-5-5c-0.1,0.5-0.2,1-0.2,1.5l4.7,4.7v2.2c0.4,0.2,0.8,0.4,1.2,0.6v-2.8
		L9,12.7l1.7,1.7v4C11.1,18.5,11.6,18.6,12,18.6z M16,13.3l-1.5-1.5l1.5-1.5l1.5,1.5L16,13.3z M21.4,11.2l0.6,0.6l-1.5,1.5l-1.5-1.5
		l1.5-1.5L21.4,11.2z M19.3,9.1L19.3,9.1l0.5,0.5L18.3,11l-1.5-1.5l0.9-0.9l0.6-0.6L19.3,9.1z M16,5.8l1.5,1.5l-0.6,0.6l0,0L16,8.7
		l-1.5-1.5L16,5.8z M13.7,8.1l1.5,1.5L13.7,11l-1.5-1.5L13.7,8.1z M9.9,11.9l1.5-1.5l1.5,1.5l-1.5,1.5L9.9,11.9z"/>
</g>
</svg>
