<?xml version="1.0" encoding="utf-8"?>
<!-- Generator: Adobe Illustrator 19.1.1, SVG Export Plug-In . SVG Version: 6.00 Build 0)  -->
<svg version="1.1" id="icons" xmlns="http://www.w3.org/2000/svg" xmlns:xlink="http://www.w3.org/1999/xlink" x="0px" y="0px"
	 viewBox="0 0 20 20" style="enable-background:new 0 0 20 20;" xml:space="preserve">
<g id="arrow-large-r">
</g>
<g id="link-external">
</g>
<g id="link-list">
</g>
<g id="linkedin_1_">
</g>
<g id="twitter">
</g>
<g id="facebook">
</g>
<g id="download">
	<polygon style="fill:#78909C;" points="14.6,0 4.2,0 4.2,7.2 5.2,7.2 5.2,1 14.1,1 14.1,1.1 14.1,5.8 18.7,5.8 18.7,5.8 18.7,19 
		6.1,19 5.4,20 19.7,20 19.7,5.4 	"/>
	<rect x="6.9" y="7" style="fill:#78909C;" width="10.2" height="0.5"/>
	<rect x="6.9" y="9.7" style="fill:#78909C;" width="10.2" height="0.5"/>
	<rect x="6.9" y="12.5" style="fill:#78909C;" width="10.2" height="0.5"/>
	<rect x="6.9" y="15.2" style="fill:#78909C;" width="10.2" height="0.5"/>
	<g>
		<polygon style="fill:#78909C;" points="5.8,13.9 5.8,8.2 2.6,8.2 2.6,13.9 0.3,13.9 4.2,20 4.2,20 8.1,13.9 		"/>
	</g>
</g>
<g id="info">
</g>
<g id="close">
</g>
<g id="delete">
</g>
<g id="dismiss-fat">
</g>
<g id="more">
</g>
<g id="dismiss">
</g>
<g id="search">
</g>
<g id="dropdown-close_1_">
</g>
<g id="dropdown-open_1_">
</g>
<g id="filter-open">
</g>
<g id="filter-close">
</g>
<g id="fail">
</g>
<g id="pass">
</g>
<g id="smart-t-fail">
	<g id="front_9_">
	</g>
</g>
<g id="smart-r-fail">
	<g id="front_8_">
	</g>
</g>
<g id="smart-a-fail">
	<g id="front_7_">
	</g>
</g>
<g id="smart-m-fail">
	<g id="front_6_">
	</g>
</g>
<g id="smart-s-fail">
	<g id="front_5_">
	</g>
</g>
<g id="smart-t">
</g>
<g id="smart-r">
</g>
<g id="smart-a">
</g>
<g id="smart-m">
</g>
<g id="smart-s">
	<g id="smart-s_1_">
	</g>
</g>
<g id="smart-m-pass">
</g>
<g id="smart-s-pass">
</g>
<g id="smart-a-pass">
</g>
<g id="smart-r-pass">
</g>
<g id="smart-t-pass">
</g>
<g id="hrc-logo">
</g>
<g id="hrc-logo-icon">
</g>
</svg>
