<?xml version="1.0" encoding="utf-8"?>
<!-- Generator: Adobe Illustrator 19.2.1, SVG Export Plug-In . SVG Version: 6.00 Build 0)  -->
<svg version="1.1" id="icons" xmlns="http://www.w3.org/2000/svg" xmlns:xlink="http://www.w3.org/1999/xlink" x="0px" y="0px"
	 viewBox="0 0 84 58" style="enable-background:new 0 0 84 58;" xml:space="preserve">
<g id="arrow-large-r">
</g>
<g id="link-external">
</g>
<g id="link-list">
</g>
<g id="linkedin_1_">
</g>
<g id="twitter">
</g>
<g id="facebook">
</g>
<g id="download">
</g>
<g id="info">
</g>
<g id="close">
</g>
<g id="delete">
</g>
<g id="dismiss-fat">
</g>
<g id="more">
</g>
<g id="dismiss">
</g>
<g id="search">
</g>
<g id="dropdown-close_1_">
</g>
<g id="dropdown-open_1_">
</g>
<g id="filter-open">
</g>
<g id="filter-close">
</g>
<g id="cat-treatybodies">
	<g>
		<path style="fill:#6E848E;" d="M82.4,24.9c-1.1-1.1-2.4-2.1-4-3v0l0,0l0,0v-4.4c0-0.7-0.3-1.3-0.9-1.6c-1.5-0.9-3.3-1.7-5.2-2.4
			c-0.6-0.2-1.3,0.2-1.3,0.9v4.3l0,0l0,0l0,0c-2.8-1-5.8-1.8-8.9-2.4v-4.6c0-0.7-0.5-1.2-1.1-1.4c-1.7-0.3-3.5-0.6-5.2-0.9
			c-0.6-0.1-1.1,0.4-1.1,0.9V15l0,0c-3-0.4-6-0.6-8.9-0.8V9.3c0-0.5-0.4-0.9-0.9-0.9c-0.9,0-1.9,0-2.8,0c-0.9,0-1.9,0-2.8,0
			c-0.5,0-0.9,0.4-0.9,0.9v4.9c-2.9,0.1-5.9,0.4-8.9,0.7v-4.7c0-0.6-0.5-1-1.1-0.9c-1.8,0.3-3.5,0.6-5.2,0.9
			C22.4,10.4,22,11,22,11.6v4.6c-3.1,0.7-6.2,1.5-8.9,2.4l0-4.3c0-0.7-0.7-1.1-1.3-0.9c-1.9,0.7-3.7,1.5-5.2,2.4
			c-0.6,0.3-0.9,0.9-0.9,1.6l0,4.4c-1.6,0.9-2.9,1.9-4,3h0v13.9h7.8v0l0,0c3.2-1.9,7.2-3.5,11.7-4.7l0.4-1.1
			c-4.6,1.2-8.8,2.9-12.1,4.7V25.6c6.8-4.3,19.5-7,32.7-7c13.1,0,25.8,2.8,32.6,7v12.1c-3.3-1.9-7.5-3.5-12.1-4.7l0.4,1.1
			c4.5,1.3,8.5,2.9,11.7,4.7l0,0v0h7.8L82.4,24.9L82.4,24.9z M76.8,21c-0.1,0-0.1-0.1-0.2-0.1C76.7,21,76.7,21,76.8,21z M74.9,20.1
			C74.9,20.1,74.9,20.1,74.9,20.1C74.9,20.1,74.9,20.1,74.9,20.1z M58.4,15.5C58.4,15.5,58.3,15.5,58.4,15.5
			C58.3,15.5,58.4,15.5,58.4,15.5z M42,14.1L42,14.1L42,14.1L42,14.1L42,14.1z M25.7,15.5C25.7,15.5,25.6,15.5,25.7,15.5
			C25.6,15.5,25.7,15.5,25.7,15.5z M9.1,20.1C9.1,20.1,9.1,20.1,9.1,20.1C9.1,20.1,9.1,20.1,9.1,20.1z M7.4,21C7.3,21,7.3,21,7.2,21
			C7.3,21,7.3,21,7.4,21z M8.5,37.9H2.5V25.8h5.9V37.9z M42,17.7c-13.3,0-26.3,2.8-33.2,7.2H3c5.8-5,20.6-9.9,39-9.9
			c18.3,0,33.2,4.9,39,9.9h-5.8C68.3,20.5,55.3,17.7,42,17.7z M81.5,37.9h-5.9V25.8h5.9V37.9z"/>
		<polygon style="fill:#6E848E;" points="78.3,21.9 78.3,21.9 78.3,21.9 		"/>
		<polygon style="fill:#6E848E;" points="70.9,18.6 70.9,18.6 70.9,18.6 		"/>
	</g>
	<g>
		<path style="fill:#6E848E;" d="M33.5,33.8c0-0.7-0.6-1.3-1.3-1.3h-3.8c-0.7,0-1.3,0.6-1.3,1.3v7.3h6.4V33.8z"/>
		<rect x="38.5" y="44.5" style="fill:#6E848E;" width="0.9" height="5.2"/>
		<polygon style="fill:#6E848E;" points="37.9,42.1 37.9,43.5 45.9,43.5 45.9,42.1 45.9,42.1 37.9,42.1 		"/>
		<path style="fill:#6E848E;" d="M45.1,33.8c0-0.7-0.6-1.3-1.3-1.3H40c-0.7,0-1.3,0.6-1.3,1.3v7.3h6.4V33.8z"/>
		<polygon style="fill:#6E848E;" points="26.3,42.1 26.3,43.5 34.3,43.5 34.3,42.1 34.3,42.1 26.3,42.1 		"/>
		<polygon style="fill:#6E848E;" points="25.4,41.2 26.2,41.2 26.2,37.6 24.6,37.6 24.6,43.5 25.4,43.5 25.4,42.1 		"/>
		<rect x="44.3" y="44.5" style="fill:#6E848E;" width="0.9" height="5.2"/>
		<rect x="26.9" y="44.5" style="fill:#6E848E;" width="0.9" height="5.2"/>
		<rect x="32.8" y="44.5" style="fill:#6E848E;" width="0.9" height="5.2"/>
		<path style="fill:#6E848E;" d="M56.6,33.8c0-0.7-0.6-1.3-1.3-1.3h-3.8c-0.7,0-1.3,0.6-1.3,1.3v7.3h6.4V33.8z"/>
		<path style="fill:#6E848E;" d="M51.6,31.6h3.8c1.2,0,2.2,1,2.2,2.2v2.8h5.4l-2.8-7.1H23.8l-2.8,7.1h5.1v-2.8c0-1.2,1-2.2,2.2-2.2
			h3.8c1.2,0,2.2,1,2.2,2.2v2.8h3.4v-2.8c0-1.2,1-2.2,2.2-2.2h3.8c1.2,0,2.2,1,2.2,2.2v2.8h3.4v-2.8C49.4,32.6,50.4,31.6,51.6,31.6z
			"/>
		<polygon style="fill:#6E848E;" points="57.6,41.2 58.4,41.2 58.4,42.1 58.4,43.5 59.2,43.5 59.2,37.6 57.6,37.6 		"/>
		<polygon style="fill:#6E848E;" points="49.5,42.1 49.5,42.1 49.5,43.5 57.4,43.5 57.4,42.1 57.4,42.1 		"/>
		<rect x="55.9" y="44.5" style="fill:#6E848E;" width="0.9" height="5.2"/>
		<rect x="50.1" y="44.5" style="fill:#6E848E;" width="0.9" height="5.2"/>
		<rect x="59.6" y="37.6" style="fill:#6E848E;" width="1.8" height="10.2"/>
		<rect x="22.3" y="37.6" style="fill:#6E848E;" width="1.8" height="10.2"/>
	</g>
</g>
<g id="fail">
</g>
<g id="fail-active">
</g>
<g id="pass">
</g>
<g id="pass-active">
</g>
<g id="smart-t-fail">
	<g id="front_9_">
	</g>
</g>
<g id="smart-r-fail">
	<g id="front_8_">
	</g>
</g>
<g id="smart-a-fail">
	<g id="front_7_">
	</g>
</g>
<g id="smart-m-fail">
	<g id="front_6_">
	</g>
</g>
<g id="smart-s-fail">
	<g id="front_5_">
	</g>
</g>
<g id="smart-t">
</g>
<g id="smart-r">
</g>
<g id="smart-a">
</g>
<g id="smart-m">
</g>
<g id="smart-s">
	<g id="smart-s_1_">
	</g>
</g>
<g id="smart-m-pass">
</g>
<g id="smart-s-pass">
</g>
<g id="smart-a-pass">
</g>
<g id="smart-r-pass">
</g>
<g id="smart-t-pass">
</g>
<g id="hrc-logo">
</g>
<g id="hrc-logo-icon">
</g>
</svg>
