<svg xmlns="http://www.w3.org/2000/svg" viewBox="0 0 200 100"><title>hrc-icons</title><path d="M112.4,17.8h-1.2a1.2,1.2,0,0,0-1,.5,1.8,1.8,0,0,0-.4,1.2,1.6,1.6,0,0,0,1.8,1.8h4.7l1.7,0.2a1.6,1.6,0,0,0,1.8-1.8,1.9,1.9,0,0,0-.4-1.2,1.1,1.1,0,0,0-.9-0.5h-1.1q-0.7,0-.7-1.7V8.5l4.8,11.1a4.2,4.2,0,0,0,.6,1.1,1.5,1.5,0,0,0,1.1.4h3.3q1.4,0,1.4-1.7V9.1a6.7,6.7,0,0,1,.1-1.1,0.7,0.7,0,0,1,.7-0.6h1.2a1.2,1.2,0,0,0,1-.5,1.8,1.8,0,0,0,.4-1.2,1.8,1.8,0,0,0-.5-1.3,1.8,1.8,0,0,0-1.3-.5l-1.7.2H123a1.6,1.6,0,0,0-1.3.5,1.8,1.8,0,0,0-.5,1.3,1.9,1.9,0,0,0,.4,1.2,1.1,1.1,0,0,0,.9.5h1q0.7,0,.7,1.7v7.4L119.8,5.8l-0.6-1.2a1.2,1.2,0,0,0-1.1-.5h-6.6a1.8,1.8,0,0,0-1.3.5,1.8,1.8,0,0,0-.5,1.3,1.8,1.8,0,0,0,.4,1.2,1.2,1.2,0,0,0,1,.5h1.2q0.7,0,.7,1.7v6.9Q113,17.8,112.4,17.8Z" style="fill:#fff"/><path d="M131.7,17.9a3,3,0,0,0-.5,1.4,1.6,1.6,0,0,0,.5,1.3,1.9,1.9,0,0,0,1.4.5h11.3q1.9,0,1.9-1.5a8.3,8.3,0,0,0-.1-1,8.3,8.3,0,0,1-.1-1,13.1,13.1,0,0,1,.1-1.4,9.3,9.3,0,0,0,.1-1,2,2,0,0,0-.5-1.4,1.8,1.8,0,0,0-1.3-.5,1.8,1.8,0,0,0-1.4.5,1.9,1.9,0,0,0-.5,1.3q0,0.3.1,0.9t0.1,0.9a0.9,0.9,0,0,1-.7.9h-5l8.1-10a3.4,3.4,0,0,0,.9-2,1.5,1.5,0,0,0-1.6-1.7h-11l-1.1.2a0.9,0.9,0,0,0-.4.9c0,0.4,0,.6,0,0.8s0.1,1,.1,1.1,0,0.5-.1,1-0.1,1-.1,1.1a1.8,1.8,0,0,0,.5,1.4,1.9,1.9,0,0,0,1.4.5,2,2,0,0,0,1.4-.5,1.6,1.6,0,0,0,.6-1.2V8.7a4.7,4.7,0,0,1,0-.6,0.9,0.9,0,0,1,.3-0.8,1.7,1.7,0,0,1,1-.2h3.4l-8,10.1Z" style="fill:#fff"/><path d="M112.4,37.6h-1.2a1.2,1.2,0,0,0-1,.5,1.8,1.8,0,0,0-.4,1.2,1.8,1.8,0,0,0,.5,1.3,1.7,1.7,0,0,0,1.3.5l1.7-.2h4.6a1.5,1.5,0,0,0,1.2-.5,1.9,1.9,0,0,0,.5-1.3q0-1.5-1.1-1.5H118a0.5,0.5,0,0,1-.5-0.5V33.6h5.3v2.5q0,0.6,0,.8a0.5,0.5,0,0,1-.5.5h-0.5q-1.1,0-1.1,1.5a1.9,1.9,0,0,0,.5,1.3,1.5,1.5,0,0,0,1.2.5l1.5-.2h4.9a1.7,1.7,0,0,0,1.3-.5,1.9,1.9,0,0,0,.5-1.3,1.8,1.8,0,0,0-.4-1.2,1.2,1.2,0,0,0-1-.5h-1.2q-0.7,0-.7-1.7V28.9a6.7,6.7,0,0,1,.1-1.1,0.7,0.7,0,0,1,.7-0.6H129a1.2,1.2,0,0,0,1-.5,1.8,1.8,0,0,0,.4-1.2,1.9,1.9,0,0,0-.5-1.3,1.7,1.7,0,0,0-1.3-.5l-1.7.2h-4.6a1.6,1.6,0,0,0-1.2.5,1.9,1.9,0,0,0-.5,1.3q0,1.5,1.1,1.5h0.5a0.5,0.5,0,0,1,.5.5,6.8,6.8,0,0,1,0,.9v1.8h-5.3V27.8a0.5,0.5,0,0,1,.5-0.5h0.5q1.1,0,1.1-1.5a1.9,1.9,0,0,0-.5-1.3,1.5,1.5,0,0,0-1.2-.5l-1.4.2h-3.3l-1.6-.2a1.8,1.8,0,0,0-1.3.5,2,2,0,0,0-.1,2.5,1.2,1.2,0,0,0,1,.5h1.2q0.7,0,.7,1.7v6.9Q113,37.6,112.4,37.6Z" style="fill:#fff"/><path d="M134,28.1h-3.7a1.4,1.4,0,0,0-1.5,1.7,1.1,1.1,0,0,0,1.1,1.4h0.5l0.4,0.2a2.5,2.5,0,0,1,.1,1v3.9a7.9,7.9,0,0,0,.4,3.1,3,3,0,0,0,1.4,1.3,4.5,4.5,0,0,0,2.1.5,5.3,5.3,0,0,0,4.4-2.1v1a0.7,0.7,0,0,0,.7.8h3.4q1.5,0,1.5-1.7a1.1,1.1,0,0,0-1.1-1.3H143q-0.5,0-.5-1.3V29a0.8,0.8,0,0,0-.8-0.9h-3.9q-1.4,0-1.4,1.7t0.9,1.3h0.8q0.6,0,.6,1.3v2.3q0,3.1-2.3,3.1t-1.6-2V29.2Q134.8,28.1,134,28.1Z" style="fill:#fff"/><path d="M145.2,29.8a1.2,1.2,0,0,0,1.2,1.4h0.8q0.4,0,.4,1.4v4.1q0,1.4-.4,1.4h-0.8a1.2,1.2,0,0,0-1.2,1.4,1.7,1.7,0,0,0,.4,1.2,1.4,1.4,0,0,0,1.1.5h5q1.4,0,1.4-1.6a1.1,1.1,0,0,0-1-1.3l-0.5-.2a0.9,0.9,0,0,1-.1-0.5v-3q0-3,2.2-3a1.3,1.3,0,0,1,1.2.6,4.1,4.1,0,0,1,.3,2v3.7a0.6,0.6,0,0,1-.5.6,1.2,1.2,0,0,0-.8,1.3q0,1.6,1.2,1.6h3.7q1.4,0,1.4-1.7a1.1,1.1,0,0,0-.8-1.3,0.5,0.5,0,0,1-.4-0.3,4.5,4.5,0,0,1-.1-1.1V34.2q0-3,2.1-3a1.4,1.4,0,0,1,1.3.6,4.8,4.8,0,0,1,.3,2.2v2.6a3.9,3.9,0,0,1-.1,1.1,0.7,0.7,0,0,1-.6.3,1.2,1.2,0,0,0-.9,1.3,1.7,1.7,0,0,0,.4,1.2,1.2,1.2,0,0,0,1,.5h4.9a1.3,1.3,0,0,0,1.1-.5,1.9,1.9,0,0,0,.4-1.3,1.1,1.1,0,0,0-1.1-1.3h-0.8q-0.5,0-.5-1.3V32.8a5.9,5.9,0,0,0-.8-3.5,4.2,4.2,0,0,0-3.6-1.6,5,5,0,0,0-2.1.4,9.6,9.6,0,0,0-2.1,1.5,3.7,3.7,0,0,0-3.2-1.9,5.4,5.4,0,0,0-4.2,2.3V28.9a0.6,0.6,0,0,0-.7-0.8h-3.4a1.4,1.4,0,0,0-1.1.5A1.8,1.8,0,0,0,145.2,29.8Z" style="fill:#fff"/><path d="M180.5,41.2a3.2,3.2,0,0,0,1.9-.5,1.6,1.6,0,0,0,.7-1.3,1.3,1.3,0,0,0-.4-1,1.3,1.3,0,0,0-1-.4h-0.6c-0.3,0-.4-0.3-0.4-0.8V32q0-2.5-1.4-3.4a7.8,7.8,0,0,0-4-.8,8.3,8.3,0,0,0-3.9.8,2.4,2.4,0,0,0-1.4,2.1,2,2,0,0,0,.6,1.5,2.3,2.3,0,0,0,1.6.6,2.2,2.2,0,0,0,1.5-.5,1.5,1.5,0,0,0,.6-1.2h0V30.7q0-.5.8-0.5a1.9,1.9,0,0,1,1.2.4,1.2,1.2,0,0,1,.5,1,1.3,1.3,0,0,1-.6,1.2,7.7,7.7,0,0,1-2.4.7l-2.3.6a3.2,3.2,0,0,0-2.3,3.4,3.5,3.5,0,0,0,1.2,2.8,4.6,4.6,0,0,0,3.2,1,5.9,5.9,0,0,0,4.2-1.7A2.7,2.7,0,0,0,180.5,41.2Zm-3.7-5.4a2,2,0,0,1-2.2,2.3,1.1,1.1,0,0,1-1.3-1.2q0-.7,1.4-1.1l2.2-.6v0.6Z" style="fill:#fff"/><path d="M198.9,37.8h-0.8q-0.5,0-.5-1.3V32.9a6.6,6.6,0,0,0-.6-3.2,3.9,3.9,0,0,0-3.7-2A5.7,5.7,0,0,0,189,30V28.8a0.6,0.6,0,0,0-.7-0.7H185a1.4,1.4,0,0,0-1.1.5,1.8,1.8,0,0,0-.4,1.2,1.1,1.1,0,0,0,1.2,1.4h0.8q0.4,0,.4,1.4v4.1q0,1.4-.4,1.4h-0.8a1.2,1.2,0,0,0-1.2,1.4,1.4,1.4,0,0,0,1.6,1.7h5q1.3,0,1.3-1.6a1.1,1.1,0,0,0-.9-1.4,0.7,0.7,0,0,1-.6-0.3,5.1,5.1,0,0,1-.1-1.4V33.6a2.5,2.5,0,0,1,.7-1.8,2.2,2.2,0,0,1,1.7-.7,1.4,1.4,0,0,1,1.3.6,4,4,0,0,1,.4,2v3.5a0.6,0.6,0,0,1-.7.6,1.2,1.2,0,0,0-1,1.4,1.3,1.3,0,0,0,1.5,1.5h4.9q1.5,0,1.5-1.8A1.1,1.1,0,0,0,198.9,37.8Z" style="fill:#fff"/><path d="M113.4,60.5h5.3a1.6,1.6,0,0,0,1.8-1.8,1.9,1.9,0,0,0-.4-1.2,1.1,1.1,0,0,0-.9-0.5h-1.1q-0.6,0-.6-1.7V55a2.3,2.3,0,0,1,.1-0.9,0.9,0.9,0,0,1,.9-0.4,4.2,4.2,0,0,1,2.4.5,2.1,2.1,0,0,1,.7,1.8v1.8a3.3,3.3,0,0,0,.6,2,1.8,1.8,0,0,0,1.5.8H127a1.7,1.7,0,0,0,1.3-.5,1.8,1.8,0,0,0,.5-1.3,2,2,0,0,0-.3-1.2,1,1,0,0,0-.9-0.5h-0.9q-0.6,0-.6-1V55.1a3.1,3.1,0,0,0-.8-2.3,4.6,4.6,0,0,0-2.6-1.1,6.8,6.8,0,0,0,2.3-.9,3.1,3.1,0,0,0,1.3-2.8,4.1,4.1,0,0,0-1.4-3.3,5.6,5.6,0,0,0-3.8-1.2h-2.2l-3.7.2h-1.6l-1.8-.2h-0.2a1.6,1.6,0,0,0-1.3.5,1.9,1.9,0,0,0-.5,1.3,1.8,1.8,0,0,0,.4,1.2,1.2,1.2,0,0,0,1,.5h1.2a0.7,0.7,0,0,1,.6.7,6.3,6.3,0,0,1,.1,1v6.9q0,1.7-.7,1.7h-1.2a1.2,1.2,0,0,0-1,.5,1.8,1.8,0,0,0-.4,1.2,1.6,1.6,0,0,0,1.8,1.8h1.8Zm4-12.3a1.1,1.1,0,0,1,.6-1.1h1.3q2.3,0,2.3,1.7t-3.3,1.9l-0.7-.2a1.1,1.1,0,0,1-.2-0.8V48.2Z" style="fill:#fff"/><path d="M131,57.7h-0.2l-0.7-.2A1.2,1.2,0,0,0,129,59a1.7,1.7,0,0,0,.4,1.2,1.4,1.4,0,0,0,1.1.5h5.6q1.5,0,1.5-1.8a1.1,1.1,0,0,0-1.1-1.3h-0.8q-0.5,0-.5-1.3V48.9q0-1-.7-1h-4.1a1.5,1.5,0,0,0-1.1.5,1.7,1.7,0,0,0-.4,1.2,1.2,1.2,0,0,0,1.2,1.4H131q0.4,0,.4,1.4v4.1Q131.4,57.7,131,57.7Z" style="fill:#fff"/><path d="M133.2,42.4a2.3,2.3,0,1,0,1.6.7A2.2,2.2,0,0,0,133.2,42.4Z" style="fill:#fff"/><path d="M150.1,58.1a6.1,6.1,0,0,0-3.7-.9h-3.7a1.1,1.1,0,0,1-1.2-1,0.8,0.8,0,0,1,.4-0.6H142a7,7,0,0,0,2.7.6,6.2,6.2,0,0,0,3.9-1.2,3.8,3.8,0,0,0,1.5-3.1,3.3,3.3,0,0,0-2.4-3.4,0.9,0.9,0,0,1,0-.3q0-.7.5-0.7l0.3,0.2,0.3,0.4a1.1,1.1,0,0,0,1,.5,1.4,1.4,0,0,0,1-.4,1.5,1.5,0,0,0,.4-1.1,1.8,1.8,0,0,0-.8-1.5,3.2,3.2,0,0,0-2-.6,3.4,3.4,0,0,0-2.3.7,2.5,2.5,0,0,0-.9,2h-1a5.9,5.9,0,0,0-3.7,1.2,3.6,3.6,0,0,0-1.5,2.9,3.2,3.2,0,0,0,.9,2.2,4.1,4.1,0,0,0-1.6,1.1,2.4,2.4,0,0,0-.4,1.5,2.2,2.2,0,0,0,2,2.3q-2.5.8-2.5,2.8a3.4,3.4,0,0,0,1.8,3,9.1,9.1,0,0,0,4.8,1.1,9.5,9.5,0,0,0,5.3-1.3,4,4,0,0,0,2-3.5A3.2,3.2,0,0,0,150.1,58.1Zm-6.7-7.5a1.6,1.6,0,0,1,1.2-.5,1.5,1.5,0,0,1,1.2.5,1.7,1.7,0,0,1,.5,1.2,1.6,1.6,0,0,1-.5,1.2,1.6,1.6,0,0,1-2.3,0,1.7,1.7,0,0,1-.5-1.2A1.6,1.6,0,0,1,143.5,50.6Zm1,11.9q-3,0-3-1.3a1.4,1.4,0,0,1,1.1-1.2h2.9q2,0,2,1.1T144.5,62.5Z" style="fill:#fff"/><path d="M166.7,57.5h-0.8q-0.5,0-.5-1.3V52.1a5.8,5.8,0,0,0-.7-3.1,3.7,3.7,0,0,0-3.3-1.5,4.6,4.6,0,0,0-1.8.3,7.7,7.7,0,0,0-1.8,1.2V44.5a0.7,0.7,0,0,0-.7-0.9H153a1.4,1.4,0,0,0-1.1.5,1.7,1.7,0,0,0-.4,1.2,1.1,1.1,0,0,0,1.2,1.4h0.9q0.4,0,.4,1.4v8.4q0,1.4-.4,1.4h-0.8a1.2,1.2,0,0,0-1.2,1.4,1.7,1.7,0,0,0,.4,1.2,1.4,1.4,0,0,0,1.1.5H158q1.4,0,1.4-1.7a1,1,0,0,0-.8-1.3l-0.6-.2a1.2,1.2,0,0,1-.1-0.7v-3q0-3,2.2-3t1.6,2.1v3.8a1.6,1.6,0,0,1-.1.7,0.6,0.6,0,0,1-.5.2,1.1,1.1,0,0,0-1,1.4,1.6,1.6,0,0,0,.4,1.1,1.3,1.3,0,0,0,1,.4h4.9q1.5,0,1.5-1.8A1.1,1.1,0,0,0,166.7,57.5Z" style="fill:#fff"/><path d="M175.4,54.2a1.2,1.2,0,0,0-1.4,1.4v0.9q0,1.3-.9,1.3t-0.9-1.5a5.2,5.2,0,0,0,.1-0.7V51.3a1.2,1.2,0,0,1,.1-0.6l0.6-.2h2.1a1.2,1.2,0,0,0,1.4-1.3,1.3,1.3,0,0,0-1.5-1.4h-1.8l-0.7-.2a1.8,1.8,0,0,1-.1-0.9V45.5a1.4,1.4,0,0,0-.3-1.1,2,2,0,0,0-1.2-.3,3.1,3.1,0,0,0-1.7.3,1.4,1.4,0,0,0-.5,1.2v1.2a2.1,2.1,0,0,1-.1.7,0.6,0.6,0,0,1-.7.4h-0.5a0.9,0.9,0,0,0-.7.4,1.6,1.6,0,0,0-.3,1,1.4,1.4,0,0,0,.3.9,1,1,0,0,0,.8.4h0.4l0.5,0.2a1.7,1.7,0,0,1,.1.8v0.8q0,0.7-.1,2.1t-0.1,2.1q0,4.4,4.1,4.4a4.6,4.6,0,0,0,3.3-1.1,4.1,4.1,0,0,0,1.2-3.1Q176.9,54.2,175.4,54.2Z" style="fill:#fff"/><path d="M187.6,53.3a10.3,10.3,0,0,0-2.4-.7l-2.5-.6a0.7,0.7,0,0,1-.5-0.7q0-1,1.5-1a2.5,2.5,0,0,1,2.1,1.1,2,2,0,0,0,1.7.9,1.2,1.2,0,0,0,1.3-1.3h0V50a5.2,5.2,0,0,1,.1-0.9,2.7,2.7,0,0,0,.1-0.7q0-.9-1.3-0.9a1.2,1.2,0,0,0-1.4,1.1,5,5,0,0,0-3.3-1.1,4.5,4.5,0,0,0-3.2,1.2,4,4,0,0,0-1.2,3.1,4,4,0,0,0,.4,1.9,2.7,2.7,0,0,0,1.2,1.2,11.2,11.2,0,0,0,2.5.8l1.5,0.3q1.5,0.3,1.5,1.1t-1.8,1.1a3.3,3.3,0,0,1-1.6-.3,3.8,3.8,0,0,1-1.2-1.2,2.6,2.6,0,0,0-.8-0.8l-1-.2q-1.4,0-1.4,1.1t0,0.7,0,0.7-0.1.8,0,0.8a1.1,1.1,0,0,0,1.4,1.1,1.1,1.1,0,0,0,1.3-1.2,6.4,6.4,0,0,0,4,1.4,5.4,5.4,0,0,0,3.7-1.3,4.1,4.1,0,0,0,1.5-3.2,3.6,3.6,0,0,0-.6-2.1A3.3,3.3,0,0,0,187.6,53.3Z" style="fill:#fff"/><path d="M192.1,55.8a2.5,2.5,0,0,0-2.5,2.5,2.5,2.5,0,0,0,.7,1.8,2.5,2.5,0,0,0,3.6,0,2.5,2.5,0,0,0,.7-1.8A2.5,2.5,0,0,0,192.1,55.8Z" style="fill:#fff"/><path d="M37,62.2V47.3l6-6,6,6V63.4h4.3V47.3l6-6,6,6V62.2l4.3-.9v-14l6-6,6,6v9.9l4.3-2.2V47.3l16.5-16.5a20.6,20.6,0,0,0-.8-5.2L83.7,43.4l-5.1-5.1L98.2,18.6a30.2,30.2,0,0,0-2.7-3.3L75.6,35.2l-2.1-2.1-3-3L90.1,10.5,86.4,8.1l-19,19-1.5-1.5-3.6-3.6,2.3-2.3,15-15L75.2,3,61.9,16.4h0l-2.6,2.6-5.1-5.1L67.1,0.9,61.9,0,51.1,10.8,40.4,0l-5.2.9L48.1,13.8,43,18.9,27.1,3.1,22.7,4.7,37.6,19.5,40,21.9l-2.3,2.3-2.9,2.9L15.9,8.1l-3.6,2.4L31.8,30.1,29,32.9h0l-2.3,2.3L6.8,15.4a30.1,30.1,0,0,0-2.7,3.4L23.7,38.2l-5.1,5.1L0.8,25.6A20.7,20.7,0,0,0,0,30.9L16.4,47.3v7.6l4.3,2.2V47.3l6-6,6,6v14ZM51.1,43.4L46,38.2l5.1-5.1,5.1,5.1ZM70.3,36l2.2,2.2-5.1,5.1-5.1-5.1,5.1-5.1Zm-7.5-7.5h0l1.6,1.6-5.1,5.1-5.1-5.1,3-3L59.3,25ZM51.1,16.8l5.1,5.1L54.2,24h0l-3,3L46,21.9ZM43,25l5.1,5.1L43,35.2l-5.1-5.1ZM29.7,38.2l5.1-5.1L40,38.2l-5.1,5.1Z" style="fill:#fff"/><path d="M45.7,92.4a2.4,2.4,0,0,0-1.9.8,3.2,3.2,0,0,0-.7,2.2,3,3,0,0,0,.7,2.1,2.3,2.3,0,0,0,1.8.8,2.6,2.6,0,0,0,1.6-.6,1.6,1.6,0,0,0,.7-1.3,0.4,0.4,0,0,0-.4-0.4,0.3,0.3,0,0,0-.4.3v0.3a1.2,1.2,0,0,1-.5.7l-0.9.3a1.6,1.6,0,0,1-1.2-.5,2,2,0,0,1-.5-1.4h4a1.3,1.3,0,0,0,.1-0.5,2.4,2.4,0,0,0-.7-1.7A2.3,2.3,0,0,0,45.7,92.4ZM47,94.7H44.4c-0.2,0-.2-0.1-0.2-0.2a1.3,1.3,0,0,1,.5-1,1.7,1.7,0,0,1,1.1-.4,1.4,1.4,0,0,1,1,.4,1.4,1.4,0,0,1,.4,1C47.2,94.6,47.1,94.7,47,94.7Z" style="fill:#fff"/><path d="M42.3,90.7H36.8a0.4,0.4,0,0,0-.4.5v0.5q0,0.3,0,.6t0,0.7v0.5a0.4,0.4,0,0,0,.4.5q0.4,0,.4-0.7a2.7,2.7,0,0,0,0-.3V92.5c0-.1,0-0.2,0-0.4a0.7,0.7,0,0,1,.8-0.8h0.3a0.7,0.7,0,0,1,.8.8v4.4q0,0.8-.5.8H38a0.3,0.3,0,0,0-.3.3,0.4,0.4,0,0,0,.5.4H41q0.5,0,.5-0.4V97.5H40.6q-0.6,0-.6-0.8V92.1a0.8,0.8,0,0,1,.2-0.6l0.6-.2h0.3a0.7,0.7,0,0,1,.9.8q0,0.2,0,.6t0,0.6,0.4,0.5a0.4,0.4,0,0,0,.4-0.4V92.8c0-.2,0-0.4,0-0.5h0v-1h0A0.4,0.4,0,0,0,42.3,90.7Z" style="fill:#fff"/><path d="M92.6,91a0.6,0.6,0,0,0-.2.4,0.6,0.6,0,0,0,.2.4L93,92l0.4-.2a0.6,0.6,0,0,0,.2-0.4,0.6,0.6,0,0,0-.2-0.4L93,90.8Z" style="fill:#fff"/><path d="M101.2,97.4h-0.4a1.6,1.6,0,0,1-.8-0.7l-1.4-1.8V94.6l1.1-1.1,0.6-.3h0.5a0.3,0.3,0,0,0,.4-0.4c0-.2-0.2-0.4-0.5-0.4H98.2a0.4,0.4,0,0,0-.5.4,0.3,0.3,0,0,0,.4.3h0.8v0.2l-1.9,1.8V91a0.4,0.4,0,0,0-.4-0.4H95.3a0.4,0.4,0,0,0-.4.4,0.3,0.3,0,0,0,.4.3h0.5L96,91.4a3.4,3.4,0,0,1,.1.7V97q0,0.4-.3.4H95.3a0.3,0.3,0,0,0-.4.4,0.4,0.4,0,0,0,.4.4h2.3a0.3,0.3,0,0,0,.4-0.4,0.3,0.3,0,0,0-.4-0.4H97.2a0.3,0.3,0,0,1-.3-0.4V96.2l0.8-.7h0.3l1.1,1.5v0.4H98.9a0.3,0.3,0,0,0-.4.4,0.3,0.3,0,0,0,.4.4h2.2q0.5,0,.5-0.4A0.3,0.3,0,0,0,101.2,97.4Z" style="fill:#fff"/><path d="M94.3,97.4H93.9c-0.2,0-.3-0.2-0.3-0.5s0-.3,0-0.6V94.9q0-.5,0-0.9t0-.7h0c0-.3-0.1-0.4-0.3-0.4H92a0.4,0.4,0,0,0-.5.4,0.3,0.3,0,0,0,.4.4h0.5q0.3,0,.3.7v2.8c0,0.5-.1.7-0.3,0.7H91.9a0.3,0.3,0,0,0-.4.4,0.4,0.4,0,0,0,.4.4h2.6a0.3,0.3,0,0,0,.1-0.3A0.3,0.3,0,0,0,94.3,97.4Z" style="fill:#fff"/><path d="M144.8,95.4a0.4,0.4,0,0,0-.4.4v0.7a0.8,0.8,0,0,1-.8.9q-0.8,0-.8-1.1V93.6c0-.2.1-0.2,0.2-0.2h1.2a0.4,0.4,0,0,0,.4-0.4,0.4,0.4,0,0,0-.4-0.4H143a0.2,0.2,0,0,1-.2-0.2V91.3a0.4,0.4,0,0,0-.4-0.4,0.4,0.4,0,0,0-.4.4v1.1a0.2,0.2,0,0,1-.2.2h-0.7a0.4,0.4,0,0,0-.1.3,0.4,0.4,0,0,0,.1.3h0.7a0.2,0.2,0,0,1,.2.2v2.6a2.6,2.6,0,0,0,.3,1.4,1.4,1.4,0,0,0,1.2.6,1.5,1.5,0,0,0,1.4-.6,3.3,3.3,0,0,0,.3-1.7Q145.1,95.4,144.8,95.4Z" style="fill:#fff"/><path d="M90.4,90.7H85a0.4,0.4,0,0,0-.4.5v0.5q0,0.3,0,.6t0,0.7v0.5a0.4,0.4,0,0,0,.4.5q0.4,0,.4-0.7a2.4,2.4,0,0,0,0-.3V92.5c0-.1,0-0.2,0-0.4a0.7,0.7,0,0,1,.8-0.8h0.3a0.7,0.7,0,0,1,.8.8v4.4q0,0.8-.5.8H86.2a0.3,0.3,0,0,0-.3.3,0.4,0.4,0,0,0,.5.4h2.8c0.3,0,.5-0.1.5-0.4V97.5H88.7q-0.6,0-.6-0.8V92.1a0.8,0.8,0,0,1,.2-0.6l0.6-.2h0.3a0.7,0.7,0,0,1,.9.8q0,0.2,0,.6c0,0.3,0,.5,0,0.6s0.1,0.5.4,0.5a0.4,0.4,0,0,0,.4-0.4V92.8c0-.2,0-0.4,0-0.5h0v-1h0A0.4,0.4,0,0,0,90.4,90.7Z" style="fill:#fff"/><path d="M80.2,91.8a0.6,0.6,0,0,0,.2-0.4,0.6,0.6,0,0,0-.2-0.4l-0.4-.2-0.4.2a0.6,0.6,0,0,0-.2.4,0.6,0.6,0,0,0,.2.4L79.8,92Z" style="fill:#fff"/><path d="M107.4,95.9a0.3,0.3,0,0,0-.3.3v0.5q0,0.7-.4.7a0.4,0.4,0,0,1-.4-0.4,4.6,4.6,0,0,1,0-.6V94.3a1.7,1.7,0,0,0-2-1.9,2.4,2.4,0,0,0-1.5.4,1.3,1.3,0,0,0-.6,1,0.7,0.7,0,0,0,.2.5l0.5,0.2h0.4a0.5,0.5,0,0,0,.2-0.4,0.4,0.4,0,0,0-.2-0.4h-0.1l0.2-.2,0.9-.3a1.3,1.3,0,0,1,.9.3,0.9,0.9,0,0,1,.3.7,0.7,0.7,0,0,1-.3.6l-1.2.3h-0.9l-0.5.2a1.4,1.4,0,0,0-.8,1.3,1.4,1.4,0,0,0,.5,1.2,2.2,2.2,0,0,0,1.4.4,2,2,0,0,0,1.7-.8,1,1,0,0,0,1.1.8,1,1,0,0,0,1.1-1V96.5h0C107.8,96.1,107.7,95.9,107.4,95.9Zm-2,.1a1.5,1.5,0,0,1-.4,1.1,1.6,1.6,0,0,1-1.2.4,1.3,1.3,0,0,1-.8-0.2,0.8,0.8,0,0,1-.3-0.7q0-.8,1.2-0.9l1-.2,0.5-.3V96Z" style="fill:#fff"/><path d="M134.4,96.8l-1.7-.2h-0.4q-1.2,0-1.2-.6a0.5,0.5,0,0,1,.1-0.3h0.6l1.3,0.3a2.1,2.1,0,0,0,1.4-.5,1.6,1.6,0,0,0,.6-1.3,1.7,1.7,0,0,0-.8-1.5,0.6,0.6,0,0,1,.6-0.7l0.4,0.2a0.5,0.5,0,0,0-.2.4,0.4,0.4,0,0,0,.1.3h0.3l0.4-.2a0.6,0.6,0,0,0,.2-0.4,0.8,0.8,0,0,0-.3-0.7,1.3,1.3,0,0,0-.8-0.3,1.1,1.1,0,0,0-1.2,1.1H133a2.1,2.1,0,0,0-1.4.5,1.6,1.6,0,0,0-.6,1.2,1.5,1.5,0,0,0,.3.9,1.1,1.1,0,0,0-.9,1.1,1.2,1.2,0,0,0,.9,1,1.3,1.3,0,0,0-1,1.3,1.3,1.3,0,0,0,.7,1.2,3.8,3.8,0,0,0,2,.4,3.7,3.7,0,0,0,2-.5,1.4,1.4,0,0,0,.7-1.3,1.3,1.3,0,0,0-.4-0.9A2.1,2.1,0,0,0,134.4,96.8Zm-2.6-2.7a1,1,0,0,1,.4-0.7,1.2,1.2,0,0,1,.8-0.3,1.3,1.3,0,0,1,.9.3,1,1,0,0,1,.3.8,0.9,0.9,0,0,1-.3.8,1.3,1.3,0,0,1-.9.3,1.2,1.2,0,0,1-.9-0.3,1,1,0,0,1-.3-0.8h0Zm2.5,4.9a3.1,3.1,0,0,1-1.4.3,2.9,2.9,0,0,1-1.3-.3,0.8,0.8,0,0,1-.5-0.7,0.8,0.8,0,0,1,.5-0.7,3,3,0,0,1,1.4-.3,2.9,2.9,0,0,1,1.4.3A0.8,0.8,0,0,1,134.4,99Z" style="fill:#fff"/><path d="M129.6,97.4h-0.5a0.3,0.3,0,0,1-.3-0.4c0-.1,0-0.2,0-0.6V94.4a2.6,2.6,0,0,0-.2-1,1.6,1.6,0,0,0-.7-0.7,2.2,2.2,0,0,0-1.1-.3,2.1,2.1,0,0,0-1.8.8V92.9a0.3,0.3,0,0,0-.3-0.3h-1.1q-0.5,0-.5.4a0.3,0.3,0,0,0,.4.4h0.7a1.4,1.4,0,0,1,.1.5v2.9c0,0.4-.1.6-0.3,0.6h-0.5a0.3,0.3,0,0,0-.4.4,0.4,0.4,0,0,0,.5.4h2.3a0.4,0.4,0,0,0,.4-0.4,0.3,0.3,0,0,0-.3-0.4h-0.5l-0.2-.2a2.1,2.1,0,0,1-.1-0.7V95.1a2.9,2.9,0,0,1,.3-1.5,1.4,1.4,0,0,1,1.3-.6l0.8,0.3a1.1,1.1,0,0,1,.4.6,3.9,3.9,0,0,1,.1.8v2.1q0,0.6-.3.6h-0.5a0.3,0.3,0,0,0-.4.3,0.4,0.4,0,0,0,.4.4h2.5a0.3,0.3,0,0,0,.1-0.3V97.5h-0.2Z" style="fill:#fff"/><path d="M141.3,95.9a0.3,0.3,0,0,0-.3.3v0.5c0,0.5-.1.7-0.4,0.7a0.4,0.4,0,0,1-.4-0.4,4.7,4.7,0,0,1,0-.6V94.3a1.7,1.7,0,0,0-2-1.9,2.4,2.4,0,0,0-1.5.4,1.3,1.3,0,0,0-.6,1,0.7,0.7,0,0,0,.2.5l0.5,0.2h0.4a0.5,0.5,0,0,0,.2-0.4,0.4,0.4,0,0,0-.2-0.4h-0.1l0.2-.2,0.9-.3a1.3,1.3,0,0,1,.9.3,0.9,0.9,0,0,1,.3.7,0.7,0.7,0,0,1-.3.6l-1.2.3H137l-0.5.2a1.4,1.4,0,0,0-.8,1.3,1.4,1.4,0,0,0,.5,1.2,2.2,2.2,0,0,0,1.4.4,2,2,0,0,0,1.7-.8,1,1,0,0,0,1.1.8,1,1,0,0,0,1.1-1V96.5h0Q141.6,95.9,141.3,95.9Zm-2,.1a1.5,1.5,0,0,1-.4,1.1,1.6,1.6,0,0,1-1.2.4,1.3,1.3,0,0,1-.8-0.2,0.8,0.8,0,0,1-.3-0.7q0-.8,1.2-0.9l1-.2,0.5-.3V96Z" style="fill:#fff"/><path d="M122.7,95.9a0.3,0.3,0,0,0-.3.3v0.5q0,0.7-.4.7a0.4,0.4,0,0,1-.4-0.4,4.6,4.6,0,0,1,0-.6V94.3a1.7,1.7,0,0,0-2-1.9,2.4,2.4,0,0,0-1.5.4,1.3,1.3,0,0,0-.6,1,0.7,0.7,0,0,0,.2.5l0.5,0.2h0.4a0.5,0.5,0,0,0,.2-0.4,0.4,0.4,0,0,0-.2-0.4h-0.1l0.2-.2,0.9-.3a1.3,1.3,0,0,1,.9.3,0.9,0.9,0,0,1,.3.7,0.7,0.7,0,0,1-.3.6l-1.2.3h-0.9l-0.5.2a1.4,1.4,0,0,0-.8,1.3,1.4,1.4,0,0,0,.5,1.2,2.2,2.2,0,0,0,1.4.4,2,2,0,0,0,1.8-.8,1,1,0,0,0,1.1.8,1,1,0,0,0,1.1-1V96.5h0Q123.1,95.9,122.7,95.9Zm-2,.1a1.5,1.5,0,0,1-.4,1.1,1.6,1.6,0,0,1-1.2.4,1.3,1.3,0,0,1-.8-0.2,0.8,0.8,0,0,1-.3-0.7q0-.8,1.2-0.9l1-.2,0.5-.3V96Z" style="fill:#fff"/><path d="M81.1,97.4H80.7c-0.2,0-.3-0.2-0.3-0.5s0-.3,0-0.6V94.9q0-.5,0-0.9t0-.7h0q0-.4-0.3-0.4H78.8a0.4,0.4,0,0,0-.5.4,0.3,0.3,0,0,0,.4.4h0.5c0.2,0,.3.2,0.3,0.7v2.8q-0.1.7-.3,0.7H78.7a0.3,0.3,0,0,0-.4.4,0.4,0.4,0,0,0,.4.4h2.6a0.3,0.3,0,0,0,.1-0.3A0.3,0.3,0,0,0,81.1,97.4Z" style="fill:#fff"/><path d="M116.6,90.7h-5.4a0.4,0.4,0,0,0-.4.5v0.5q0,0.3,0,.6v1.2a0.4,0.4,0,0,0,.4.5q0.4,0,.4-0.7a2.7,2.7,0,0,0,0-.3V92.5c0-.1,0-0.2,0-0.4a0.7,0.7,0,0,1,.8-0.8h0.3a0.7,0.7,0,0,1,.8.8v4.4q0,0.8-.5.8h-0.5a0.3,0.3,0,0,0-.4.3,0.4,0.4,0,0,0,.5.4h2.8q0.5,0,.5-0.4V97.5h-0.8q-0.6,0-.6-0.8V92.1a0.8,0.8,0,0,1,.2-0.6l0.6-.2h0.3a0.7,0.7,0,0,1,.9.8c0,0.1,0,.3,0,0.6s0,0.5,0,.6,0.1,0.5.4,0.5a0.4,0.4,0,0,0,.4-0.4V92.8c0-.2,0-0.4,0-0.5h0v-1h0A0.4,0.4,0,0,0,116.6,90.7Z" style="fill:#fff"/><path d="M77.8,97.4H77.3q-0.3,0-.3-0.6c0-.1,0-0.3,0-0.7V94.4a10.3,10.3,0,0,1,.1-1.2,1,1,0,0,0,0-.2,0.3,0.3,0,0,0-.3-0.4H75.6a0.4,0.4,0,0,0-.4.4,0.3,0.3,0,0,0,.4.3h0.3c0.2,0,.2.2,0.3,0.5v1.3a4.9,4.9,0,0,1-.2,1.6,1.2,1.2,0,0,1-.5.6l-0.8.2a1.1,1.1,0,0,1-1.2-.7,4.3,4.3,0,0,1-.2-1.4V93a0.3,0.3,0,0,0-.3-0.4H71.9q-0.5,0-.5.3a0.3,0.3,0,0,0,.4.4h0.4q0.3,0,.3,1.5v0.9c0,0.5,0,.8,0,1a1.7,1.7,0,0,0,.2.8,2,2,0,0,0,1.8.8,2,2,0,0,0,1.7-.8v0.3a0.3,0.3,0,0,0,.3.3h1.1a0.4,0.4,0,0,0,.5-0.4A0.3,0.3,0,0,0,77.8,97.4Z" style="fill:#fff"/><path d="M65,95.9a0.3,0.3,0,0,0-.3.3v0.5q0,0.7-.4.7a0.4,0.4,0,0,1-.4-0.4,4.6,4.6,0,0,1,0-.6V94.3a1.7,1.7,0,0,0-2-1.9,2.4,2.4,0,0,0-1.5.4,1.3,1.3,0,0,0-.6,1,0.7,0.7,0,0,0,.2.5l0.5,0.2h0.4a0.5,0.5,0,0,0,.2-0.4,0.4,0.4,0,0,0-.2-0.4H60.8l0.2-.2,0.9-.3a1.3,1.3,0,0,1,.9.3,0.9,0.9,0,0,1,.3.7,0.7,0.7,0,0,1-.3.6l-1.2.3H60.7l-0.5.2a1.4,1.4,0,0,0-.8,1.3,1.5,1.5,0,0,0,.2.8H58.9a2,2,0,0,1-1-.9l-1.8-2.4L56,93.8V93.4l2.1-1.7a1.1,1.1,0,0,1,.7-0.3h0.4a0.3,0.3,0,0,0,.4-0.4,0.3,0.3,0,0,0-.4-0.4h-3q-0.5,0-.5.4a0.3,0.3,0,0,0,.4.4H57v0.2l-3.1,2.6V93a4.9,4.9,0,0,1,.1-1.3,0.4,0.4,0,0,1,.5-0.3h0.8a0.4,0.4,0,0,0,.1-0.3,0.4,0.4,0,0,0-.5-0.4H51.9a0.4,0.4,0,0,0-.5.4,0.3,0.3,0,0,0,.3.4h0.5q0.5,0,.5.8v4.4q0,0.8-.5.8H51.8a0.3,0.3,0,0,0-.3.4,0.4,0.4,0,0,0,.5.4h2.8a0.4,0.4,0,0,0,.5-0.4,0.4,0.4,0,0,0-.1-0.3H54.3a0.6,0.6,0,0,1-.5-0.6s0-.4,0-1,0-.3,0-0.4l1.1-1h0.3l2,2.8v0.2H56.2a0.4,0.4,0,0,0-.4.4,0.3,0.3,0,0,0,.4.4h3.2a0.4,0.4,0,0,0,.4-0.4V97.5L60,97.8a2.2,2.2,0,0,0,1.4.4,2,2,0,0,0,1.8-.8,1,1,0,0,0,1.1.8,1,1,0,0,0,1.1-1V96.5h0Q65.4,95.9,65,95.9ZM63,96a1.5,1.5,0,0,1-.4,1.1,1.6,1.6,0,0,1-1.2.4,1.3,1.3,0,0,1-.8-0.2,0.8,0.8,0,0,1-.3-0.7q0-.8,1.2-0.9l1-.2,0.5-.3V96Z" style="fill:#fff"/><path d="M151.2,95.9a0.3,0.3,0,0,0-.3.3v0.5q0,0.7-.4.7a0.4,0.4,0,0,1-.4-0.4,4.6,4.6,0,0,1,0-.6V94.3a1.7,1.7,0,0,0-2-1.9,2.4,2.4,0,0,0-1.5.4,1.3,1.3,0,0,0-.6,1,0.7,0.7,0,0,0,.2.5l0.5,0.2h0.4a0.5,0.5,0,0,0,.2-0.4,0.4,0.4,0,0,0-.2-0.4H147l0.2-.2,0.9-.3a1.3,1.3,0,0,1,.9.3,0.9,0.9,0,0,1,.3.7,0.7,0.7,0,0,1-.3.6l-1.2.3h-0.9l-0.5.2a1.4,1.4,0,0,0-.8,1.3,1.4,1.4,0,0,0,.5,1.2,2.2,2.2,0,0,0,1.4.4,2,2,0,0,0,1.8-.8,1,1,0,0,0,1.1.8,1,1,0,0,0,1.1-1V96.5h0Q151.5,95.9,151.2,95.9Zm-2,.1a1.5,1.5,0,0,1-.4,1.1,1.6,1.6,0,0,1-1.2.4,1.3,1.3,0,0,1-.8-0.2,0.8,0.8,0,0,1-.3-0.7q0-.8,1.2-0.9l1-.2,0.5-.3V96Z" style="fill:#fff"/><path d="M71.8,97.3H71.4c-0.2,0-.3-0.2-0.3-0.5s0-.3,0-0.7V94.3a1.8,1.8,0,0,0-.6-1.4,2.1,2.1,0,0,0-1.5-.5l-0.9.2-0.8.6V91h0q0-.4-0.3-0.4H65.5a0.3,0.3,0,0,0-.1.3,0.3,0.3,0,0,0,.4.4h0.5c0.2,0,.3.1,0.3,0.4a18.8,18.8,0,0,1,.1,2.1v2a10.3,10.3,0,0,1-.1,1.4c0,0.2-.1.3-0.2,0.3H65.8a0.3,0.3,0,0,0-.4.3,0.4,0.4,0,0,0,.5.4h2.3a0.4,0.4,0,0,0,.5-0.4,0.3,0.3,0,0,0-.4-0.3H67.7q-0.3,0-.3-0.5t0-.7V95a2.4,2.4,0,0,1,.3-1.3,1.4,1.4,0,0,1,1.3-.6,1.2,1.2,0,0,1,1.1.6,3.4,3.4,0,0,1,.2,1.5v1.6c0,0.5-.1.7-0.3,0.7H69.2v0.2a0.4,0.4,0,0,0,.1.3h2.5q0.5,0,.5-0.4A0.3,0.3,0,0,0,71.8,97.3Z" style="fill:#fff"/><path d="M37.2,86.3H36.4v0.2a0.4,0.4,0,0,0,.5.4h2.8a0.4,0.4,0,0,0,.5-0.4,0.3,0.3,0,0,0-.3-0.3H39.2a0.6,0.6,0,0,1-.5-0.6q0-.1,0-1V83.4h3.5v1.2q0,0.9,0,1a0.6,0.6,0,0,1-.5.6H41.1a0.3,0.3,0,0,0-.4.4,0.4,0.4,0,0,0,.5.4H44a0.4,0.4,0,0,0,.5-0.4,0.3,0.3,0,0,0-.3-0.3H43.6q-0.5,0-.5-0.8V81.1q0-.8.6-0.8h0.5a0.3,0.3,0,0,0,.3-0.4,0.4,0.4,0,0,0-.5-0.4H41.2a0.4,0.4,0,0,0-.5.4,0.3,0.3,0,0,0,.4.4h0.5q0.6,0,.6.8v1.6H38.6V81.1q0-.8.5-0.8H40a0.4,0.4,0,0,0,.1-0.3,0.4,0.4,0,0,0-.5-0.4H36.8q-0.5,0-.5.4v0.3h0.8q0.6,0,.6.8v4.4Q37.7,86.3,37.2,86.3Z" style="fill:#fff"/><path d="M135.9,84.6v1q-0.1.7-.3,0.7h-0.5a0.3,0.3,0,0,0-.4.4,0.4,0.4,0,0,0,.4.4h2.6a0.3,0.3,0,0,0,.1-0.3,0.3,0.3,0,0,0-.4-0.4H137q-0.2,0-.3-0.5t0-.6V83.7c0-.3,0-0.6,0-0.9s0-.6,0-0.7h0q0-.4-0.3-0.4h-1.3a0.4,0.4,0,0,0-.5.4,0.3,0.3,0,0,0,.4.4h0.5c0.2,0,.3.2,0.3,0.7v1.8Z" style="fill:#fff"/><path d="M118.2,80.3a2.4,2.4,0,0,0-2-.9,2.9,2.9,0,0,0-2.4,1.1,4.4,4.4,0,0,0-.9,2.9,4.1,4.1,0,0,0,.9,2.8,2.9,2.9,0,0,0,2.4,1,3,3,0,0,0,2.1-.7,2.5,2.5,0,0,0,.8-1.9,0.4,0.4,0,0,0-.5-0.5,0.4,0.4,0,0,0-.4.5,2.3,2.3,0,0,1-.1.9,1.6,1.6,0,0,1-.7.8,2.2,2.2,0,0,1-2.8-.5,4.7,4.7,0,0,1,0-4.6,2,2,0,0,1,1.7-.8,1.9,1.9,0,0,1,1.3.5,1.6,1.6,0,0,1,.5,1.3v0.4a0.4,0.4,0,0,0,.4.5,0.4,0.4,0,0,0,.4-0.5h0V81.7a5.6,5.6,0,0,1,0-.6q0-.2.1-0.8V79.8a0.4,0.4,0,0,0-.4-0.5,0.3,0.3,0,0,0-.3.4V80h0Z" style="fill:#fff"/><path d="M120.2,82a3.6,3.6,0,0,0,0,4.3,2.3,2.3,0,0,0,1.8.8,2.4,2.4,0,0,0,1.9-.8,3.1,3.1,0,0,0,.7-2.1,3.1,3.1,0,0,0-.7-2.1,2.4,2.4,0,0,0-1.9-.8A2.4,2.4,0,0,0,120.2,82Zm3.6,2.1a2.6,2.6,0,0,1-.5,1.6,1.5,1.5,0,0,1-1.3.6,1.4,1.4,0,0,1-1.2-.6,2.7,2.7,0,0,1-.4-1.6h0a2.5,2.5,0,0,1,.5-1.5A1.5,1.5,0,0,1,122,82Q123.7,82,123.7,84.2Z" style="fill:#fff"/><path d="M135.7,79.8a0.6,0.6,0,0,0-.2.4,0.6,0.6,0,0,0,.2.4l0.4,0.2,0.4-.2a0.6,0.6,0,0,0,.2-0.4,0.6,0.6,0,0,0-.2-0.4l-0.4-.2Z" style="fill:#fff"/><path d="M50.4,86.2H50q-0.3,0-.3-0.6c0-.1,0-0.3,0-0.7V83.3a10,10,0,0,1,.1-1.2,1.1,1.1,0,0,0,0-.2,0.3,0.3,0,0,0-.3-0.4H48.3a0.4,0.4,0,0,0-.4.4,0.3,0.3,0,0,0,.4.3h0.3q0.2,0,.3.5V84a4.9,4.9,0,0,1-.2,1.6,1.1,1.1,0,0,1-.5.6l-0.8.2a1.1,1.1,0,0,1-1.2-.7,4.3,4.3,0,0,1-.2-1.4V81.8a0.3,0.3,0,0,0-.3-0.4H44.5c-0.3,0-.5.1-0.5,0.3a0.3,0.3,0,0,0,.4.4h0.4q0.3,0,.3,1.5v0.9c0,0.5,0,.8,0,1a1.7,1.7,0,0,0,.2.8,2,2,0,0,0,1.8.8,2,2,0,0,0,1.7-.8v0.3a0.3,0.3,0,0,0,.3.3h1.1a0.4,0.4,0,0,0,.5-0.4A0.3,0.3,0,0,0,50.4,86.2Z" style="fill:#fff"/><path d="M131,86.6a0.3,0.3,0,0,0-.1-0.3h-0.6A0.3,0.3,0,0,1,130,86a9.5,9.5,0,0,1,0-1.3V84a3.3,3.3,0,0,1,.2-1.5,1.1,1.1,0,0,1,1.1-.5l0.7,0.2a1,1,0,0,1,.4.5,3.8,3.8,0,0,1,.1,1.1v1.4a5.3,5.3,0,0,1-.1.9l-0.2.2h-0.4a0.3,0.3,0,0,0-.4.3,0.4,0.4,0,0,0,.5.4h2.1a0.4,0.4,0,0,0,.4-0.4,0.3,0.3,0,0,0-.4-0.3h-0.5q-0.2,0-.3-0.4c0-.1,0-0.2,0-0.5V83.5a3.4,3.4,0,0,0-.1-1.1,1.6,1.6,0,0,0-.8-0.8l-1.1-.3-1,.2-0.8.6a1.7,1.7,0,0,0-1.6-.8l-0.9.2-0.7.7V81.8a0.3,0.3,0,0,0-.3-0.3H125a0.4,0.4,0,0,0-.4.4,0.3,0.3,0,0,0,.4.4h0.5a0.3,0.3,0,0,1,.3.2,7.7,7.7,0,0,1,0,1.2v2.3q0,0.5-.3.5H125a0.3,0.3,0,0,0-.4.3,0.4,0.4,0,0,0,.4.4h2.1q0.5,0,.5-0.4a0.4,0.4,0,0,0-.4-0.4h-0.4q-0.2,0-.2-0.4c0-.1,0-0.2,0-0.5V84a2.6,2.6,0,0,1,.3-1.5,1.3,1.3,0,0,1,1.1-.5,1,1,0,0,1,.9.4,2.5,2.5,0,0,1,.3,1.3v2.1c0,0.4-.1.6-0.3,0.6h-0.4a0.3,0.3,0,0,0-.3.3,0.4,0.4,0,0,0,.4.4h2C130.9,86.9,131,86.8,131,86.6Z" style="fill:#fff"/><path d="M151.6,86.2h-0.4q-0.2,0-.3-0.5t0-.6V83.7q0-.5,0-0.9t0-.7h0q0-.4-0.3-0.4h-1.3a0.4,0.4,0,0,0-.5.4,0.3,0.3,0,0,0,.4.4h0.5c0.2,0,.3.2,0.3,0.7v2.8q-0.1.7-.3,0.7h-0.5a0.3,0.3,0,0,0-.4.4,0.4,0.4,0,0,0,.4.4h2.6a0.3,0.3,0,0,0,.1-0.3A0.3,0.3,0,0,0,151.6,86.2Z" style="fill:#fff"/><path d="M143.8,86.7a0.4,0.4,0,0,0,.4.4,0.3,0.3,0,0,0,.4-0.4V86.6a2.5,2.5,0,0,0,1.6.5,2.4,2.4,0,0,0,1.6-.5,1.6,1.6,0,0,0,.6-1.3q0-1.3-1.9-1.5h-0.6a0.9,0.9,0,0,1-1-.8,0.8,0.8,0,0,1,.3-0.6A1.4,1.4,0,0,1,146,82l0.9,0.2a0.7,0.7,0,0,1,.4.6v0.4a0.3,0.3,0,0,0,.4.4,0.3,0.3,0,0,0,.4-0.4V82.3a2.7,2.7,0,0,1,0-.4V81.5a0.3,0.3,0,0,0-.4-0.3,0.3,0.3,0,0,0-.4.4h0a1.9,1.9,0,0,0-1.2-.4,2.3,2.3,0,0,0-1.5.5,1.5,1.5,0,0,0-.6,1.2,1.2,1.2,0,0,0,.6,1.1,4.7,4.7,0,0,0,1.7.4q1.2,0.1,1.2.9a0.8,0.8,0,0,1-.4.7,1.4,1.4,0,0,1-.9.3,2.3,2.3,0,0,1-1.2-.3,0.9,0.9,0,0,1-.5-0.8,1.7,1.7,0,0,0-.1-0.6h-0.3a0.3,0.3,0,0,0-.3.4v0.4a2.6,2.6,0,0,1,0,.5,2.1,2.1,0,0,1,0,.3v0.6Z" style="fill:#fff"/><path d="M149.9,79.8a0.6,0.6,0,0,0-.2.4,0.6,0.6,0,0,0,.2.4l0.4,0.2,0.4-.2a0.6,0.6,0,0,0,.2-0.4,0.6,0.6,0,0,0-.2-0.4l-0.4-.2Z" style="fill:#fff"/><path d="M138.4,86.7a0.4,0.4,0,0,0,.4.4,0.3,0.3,0,0,0,.4-0.4V86.6a2.5,2.5,0,0,0,1.6.5,2.4,2.4,0,0,0,1.6-.5,1.6,1.6,0,0,0,.6-1.3q0-1.3-1.9-1.5h-0.6a0.9,0.9,0,0,1-1-.8,0.8,0.8,0,0,1,.3-0.6,1.4,1.4,0,0,1,.8-0.3l0.9,0.2a0.7,0.7,0,0,1,.4.6v0.4a0.3,0.3,0,0,0,.4.4,0.3,0.3,0,0,0,.4-0.4V82.3a2.7,2.7,0,0,1,0-.4V81.5a0.3,0.3,0,0,0-.4-0.3,0.3,0.3,0,0,0-.4.4h0a1.9,1.9,0,0,0-1.2-.4,2.3,2.3,0,0,0-1.5.5,1.5,1.5,0,0,0-.6,1.2,1.2,1.2,0,0,0,.6,1.1,4.7,4.7,0,0,0,1.7.4q1.2,0.1,1.2.9a0.8,0.8,0,0,1-.3.7,1.4,1.4,0,0,1-.9.3,2.3,2.3,0,0,1-1.2-.3,0.9,0.9,0,0,1-.5-0.8,1.7,1.7,0,0,0-.1-0.6h-0.3a0.3,0.3,0,0,0-.3.4v0.4a2.6,2.6,0,0,1,0,.5,2.2,2.2,0,0,1,0,.3v0.6Z" style="fill:#fff"/><path d="M71.9,85.1v0.6q0,0.6-.3.6H71.2a0.3,0.3,0,0,0-.4.3,0.4,0.4,0,0,0,.4.4h2.5a0.3,0.3,0,0,0,.1-0.3V86.3H73a0.3,0.3,0,0,1-.3-0.4q0-.1,0-0.6V83.3a2.6,2.6,0,0,0-.2-1,1.6,1.6,0,0,0-.7-0.7,2.2,2.2,0,0,0-1.1-.3,2.1,2.1,0,0,0-1.8.8V81.8a0.3,0.3,0,0,0-.3-0.3H67.6q-0.5,0-.5.4a0.3,0.3,0,0,0,.4.4h0.7a1.4,1.4,0,0,1,.1.5v2.9c0,0.4-.1.6-0.3,0.6H67.4a0.3,0.3,0,0,0-.4.3,0.4,0.4,0,0,0,.5.4h2.3a0.4,0.4,0,0,0,.4-0.4,0.3,0.3,0,0,0-.3-0.4H69.4l-0.2-.2a2.1,2.1,0,0,1-.1-0.7V84a2.9,2.9,0,0,1,.3-1.5,1.4,1.4,0,0,1,1.3-.6l0.8,0.3a1.1,1.1,0,0,1,.4.6,3.8,3.8,0,0,1,.1.8v1.5Z" style="fill:#fff"/><path d="M156.5,82a2.4,2.4,0,0,0-1.9-.8,2.4,2.4,0,0,0-1.9.8,3.6,3.6,0,0,0,0,4.3,2.3,2.3,0,0,0,1.8.8,2.4,2.4,0,0,0,1.9-.8,3.1,3.1,0,0,0,.7-2.1A3.1,3.1,0,0,0,156.5,82Zm-0.6,3.8a1.5,1.5,0,0,1-1.3.6,1.4,1.4,0,0,1-1.2-.6,2.7,2.7,0,0,1-.4-1.6h0a2.5,2.5,0,0,1,.5-1.5,1.5,1.5,0,0,1,1.2-.5q1.7,0,1.7,2.2A2.6,2.6,0,0,1,155.8,85.8Z" style="fill:#fff"/><path d="M107.5,83.8h-0.6a0.9,0.9,0,0,1-1-.8,0.8,0.8,0,0,1,.3-0.6,1.4,1.4,0,0,1,.8-0.3l0.9,0.2a0.7,0.7,0,0,1,.4.6v0.4a0.3,0.3,0,0,0,.4.4,0.3,0.3,0,0,0,.4-0.4V82.3a2.7,2.7,0,0,1,0-.4V81.5a0.3,0.3,0,0,0-.4-0.3,0.3,0.3,0,0,0-.4.4h0a1.9,1.9,0,0,0-1.2-.4,2.3,2.3,0,0,0-1.5.5A1.5,1.5,0,0,0,105,83a1.2,1.2,0,0,0,.6,1.1,4.7,4.7,0,0,0,1.7.4q1.2,0.1,1.2.9a0.8,0.8,0,0,1-.3.7,1.4,1.4,0,0,1-.9.3,2.3,2.3,0,0,1-1.2-.3,0.9,0.9,0,0,1-.5-0.8,1.7,1.7,0,0,0-.1-0.6h-0.3a0.3,0.3,0,0,0-.4.4v0.4a2.6,2.6,0,0,1,0,.5,2.2,2.2,0,0,1,0,.3v0.6a0.4,0.4,0,0,0,.4.4,0.3,0.3,0,0,0,.4-0.4V86.6a2.5,2.5,0,0,0,1.6.5,2.4,2.4,0,0,0,1.6-.5,1.6,1.6,0,0,0,.6-1.3Q109.4,84,107.5,83.8Z" style="fill:#fff"/><path d="M85.9,84.6v1q-0.1.7-.3,0.7H85.1a0.3,0.3,0,0,0-.4.4,0.4,0.4,0,0,0,.4.4h2.6a0.3,0.3,0,0,0,.1-0.3,0.3,0.3,0,0,0-.4-0.4H87.1q-0.2,0-.3-0.5c0-.1,0-0.3,0-0.6V83.7q0-.5,0-0.9t0-.7h0q0-.4-0.3-0.4H85.2a0.4,0.4,0,0,0-.5.4,0.3,0.3,0,0,0,.4.4h0.5c0.2,0,.3.2,0.3,0.7v1.8Z" style="fill:#fff"/><path d="M84.2,83.9l-0.3.2a1.4,1.4,0,0,0,0,.4v0.7q0,0.9-.5.9t-0.5-.8h0V84.8a2.2,2.2,0,0,0-.2-1.2,1.3,1.3,0,0,0-.9-0.5l0.8-.3a1.5,1.5,0,0,0,.8-1.5q0-1.8-2.4-1.8H77.3a0.4,0.4,0,0,0-.5.4v0.2h0.8q0.6,0,.6.8v4.4q0,0.8-.6.8H77.1a0.3,0.3,0,0,0-.3.3,0.4,0.4,0,0,0,.5.4h2.8a0.4,0.4,0,0,0,.5-0.4,0.3,0.3,0,0,0-.4-0.4H79.7a0.5,0.5,0,0,1-.5-0.5q0-.1,0-0.9V83.9a0.3,0.3,0,0,1,.3-0.4h1a1.9,1.9,0,0,1,1.1.2,1.3,1.3,0,0,1,.3,1v0.9A1.1,1.1,0,0,0,83.2,87a1.2,1.2,0,0,0,1.3-1.3V84.4A0.4,0.4,0,0,0,84.2,83.9Zm-3.7-1.1H79.2a0.3,0.3,0,0,1-.1-0.2V80.9a0.5,0.5,0,0,1,.3-0.5h1.2q1.7,0,1.7,1.2a1.1,1.1,0,0,1-.6,1.1A2.8,2.8,0,0,1,80.5,82.8Z" style="fill:#fff"/><path d="M52.2,86.9h1.6q0.5,0,.5-0.4a0.4,0.4,0,0,0-.4-0.4H53.5c-0.1,0-.2-0.1-0.2-0.4s0-.2,0-0.5V84a2.6,2.6,0,0,1,.3-1.5,1.3,1.3,0,0,1,1.1-.5,1,1,0,0,1,.9.4,2.5,2.5,0,0,1,.3,1.3v2.1c0,0.4-.1.6-0.3,0.6H55.1a0.3,0.3,0,0,0-.3.3,0.4,0.4,0,0,0,.4.4h2c0.3,0,.5-0.1.5-0.4a0.3,0.3,0,0,0-.1-0.3H56.9a0.3,0.3,0,0,1-.3-0.3,9.5,9.5,0,0,1,0-1.3V84a3.3,3.3,0,0,1,.2-1.5,1.1,1.1,0,0,1,1.1-.5l0.7,0.2a1,1,0,0,1,.4.5,3.8,3.8,0,0,1,.1,1.1v1.4a5.3,5.3,0,0,1-.1.9l-0.2.2H58.5a0.3,0.3,0,0,0-.4.3,0.4,0.4,0,0,0,.5.4h2.1a0.4,0.4,0,0,0,.4-0.4,0.3,0.3,0,0,0-.4-0.3H60.3q-0.2,0-.3-0.4c0-.1,0-0.2,0-0.5V83.5a3.3,3.3,0,0,0-.1-1.1,1.6,1.6,0,0,0-.8-0.8L58,81.2l-1,.2-0.8.6a1.7,1.7,0,0,0-1.6-.8l-0.9.2-0.7.7V81.8a0.3,0.3,0,0,0-.3-0.3H51.6a0.4,0.4,0,0,0-.4.4,0.3,0.3,0,0,0,.4.4h0.5a0.3,0.3,0,0,1,.3.2,7.7,7.7,0,0,1,0,1.2v2.3q0,0.5-.3.5H51.6a0.3,0.3,0,0,0-.4.3,0.4,0.4,0,0,0,.4.4h0.6Z" style="fill:#fff"/><path d="M163.3,86.2h-0.5a0.3,0.3,0,0,1-.3-0.4q0-.1,0-0.6V83.3a2.6,2.6,0,0,0-.2-1,1.6,1.6,0,0,0-.7-0.7,2.2,2.2,0,0,0-1.1-.3,2.1,2.1,0,0,0-1.8.8V81.8a0.3,0.3,0,0,0-.3-0.3h-1.1q-0.5,0-.5.4a0.3,0.3,0,0,0,.4.4H158a1.4,1.4,0,0,1,.1.5v2.9c0,0.4-.1.6-0.3,0.6h-0.5a0.3,0.3,0,0,0-.4.3,0.4,0.4,0,0,0,.5.4h2.3a0.4,0.4,0,0,0,.4-0.4,0.3,0.3,0,0,0-.3-0.4h-0.5l-0.2-.2a2.2,2.2,0,0,1-.1-0.7V84a2.9,2.9,0,0,1,.3-1.5,1.4,1.4,0,0,1,1.3-.6l0.8,0.3a1.1,1.1,0,0,1,.4.6,3.9,3.9,0,0,1,.1.8v2.1q0,0.6-.3.6H161a0.3,0.3,0,0,0-.4.3,0.4,0.4,0,0,0,.4.4h2.5a0.3,0.3,0,0,0,.1-0.3V86.3h-0.2Z" style="fill:#fff"/><path d="M86.6,80.7a0.6,0.6,0,0,0,.2-0.4,0.6,0.6,0,0,0-.2-0.4l-0.4-.2-0.4.2a0.6,0.6,0,0,0-.2.4,0.6,0.6,0,0,0,.2.4l0.4,0.2Z" style="fill:#fff"/><path d="M101.9,81.3V80.1a0.4,0.4,0,0,0-.4-0.4,0.4,0.4,0,0,0-.4.4v1.1a0.2,0.2,0,0,1-.2.2h-0.7a0.4,0.4,0,0,0-.1.3,0.4,0.4,0,0,0,.1.3h0.7a0.2,0.2,0,0,1,.2.2v2.6a2.6,2.6,0,0,0,.3,1.4,1.4,1.4,0,0,0,1.2.6,1.5,1.5,0,0,0,1.4-.6,3.3,3.3,0,0,0,.3-1.7q0-.5-0.4-0.5a0.4,0.4,0,0,0-.4.4v0.7a0.8,0.8,0,0,1-.8.9q-0.8,0-.8-1.1V82.5c0-.2.1-0.2,0.2-0.2h1.2a0.4,0.4,0,0,0,.4-0.4,0.4,0.4,0,0,0-.4-0.4h-1.2A0.2,0.2,0,0,1,101.9,81.3Z" style="fill:#fff"/><path d="M93.2,81.7h0.3l0.4-.2a0.6,0.6,0,0,0,.2-0.4,0.8,0.8,0,0,0-.3-0.7,1.3,1.3,0,0,0-.8-0.3,1.1,1.1,0,0,0-1.2,1.1H91a2.1,2.1,0,0,0-1.4.5A1.6,1.6,0,0,0,89,83a1.5,1.5,0,0,0,.3.9,1.1,1.1,0,0,0-.9,1,1.2,1.2,0,0,0,.9,1,1.3,1.3,0,0,0-1,1.3,1.3,1.3,0,0,0,.7,1.2,3.8,3.8,0,0,0,2,.4,3.7,3.7,0,0,0,2-.5,1.4,1.4,0,0,0,.7-1.3,1.3,1.3,0,0,0-.4-0.9,2.1,2.1,0,0,0-1-.6l-1.7-.2H90.3q-1.2,0-1.2-.6a0.5,0.5,0,0,1,.1-0.3h0.6l1.3,0.3a2.1,2.1,0,0,0,1.4-.5,1.6,1.6,0,0,0,.6-1.3,1.7,1.7,0,0,0-.8-1.5,0.6,0.6,0,0,1,.6-0.7l0.4,0.2a0.5,0.5,0,0,0-.2.4A0.4,0.4,0,0,0,93.2,81.7Zm-3.5,4.8a3,3,0,0,1,1.4-.3,2.9,2.9,0,0,1,1.3.3,0.8,0.8,0,0,1,0,1.4,3.1,3.1,0,0,1-1.4.3,2.9,2.9,0,0,1-1.3-.3,0.8,0.8,0,0,1-.5-0.7A0.8,0.8,0,0,1,89.6,86.5Zm2.3-2.7a1.3,1.3,0,0,1-.9.3,1.2,1.2,0,0,1-.9-0.3,1,1,0,0,1-.3-0.8h0a1,1,0,0,1,.4-0.7A1.2,1.2,0,0,1,91,82a1.3,1.3,0,0,1,.9.3,1,1,0,0,1,.3.8A0.9,0.9,0,0,1,91.9,83.8Z" style="fill:#fff"/><path d="M99,85.1v0.5q0,0.7-.3.7H97.9v0.2a0.4,0.4,0,0,0,.1.3h2.5q0.5,0,.5-0.4a0.3,0.3,0,0,0-.4-0.4h-0.4c-0.2,0-.3-0.2-0.3-0.5s0-.3,0-0.7V83.2a1.8,1.8,0,0,0-.6-1.4,2.1,2.1,0,0,0-1.5-.5l-0.9.2L96,82V79.8h0c0-.2-0.1-0.4-0.3-0.4H94.1a0.3,0.3,0,0,0-.1.3,0.3,0.3,0,0,0,.4.3h0.5q0.2,0,.3.4a18.9,18.9,0,0,1,.1,2.1v2a9.9,9.9,0,0,1-.1,1.4c0,0.2-.1.3-0.2,0.3H94.4a0.3,0.3,0,0,0-.4.3,0.4,0.4,0,0,0,.5.4h2.3a0.4,0.4,0,0,0,.5-0.4,0.3,0.3,0,0,0-.4-0.3H96.4q-0.3,0-.3-0.5c0-.1,0-0.3,0-0.7V83.8a2.4,2.4,0,0,1,.3-1.3,1.4,1.4,0,0,1,1.3-.6,1.2,1.2,0,0,1,1.1.6A3.4,3.4,0,0,1,99,84v1.1Z" style="fill:#fff"/><path d="M64.8,86.3a1,1,0,0,0,1.1.8A1,1,0,0,0,67,86V85.4h0q0-.5-0.4-0.5a0.3,0.3,0,0,0-.3.3v0.5q0,0.7-.4.7a0.4,0.4,0,0,1-.4-0.4,4.5,4.5,0,0,1,0-.6V83.2a1.7,1.7,0,0,0-2-1.9,2.5,2.5,0,0,0-1.5.4,1.3,1.3,0,0,0-.6,1,0.7,0.7,0,0,0,.2.5l0.5,0.2h0.4a0.5,0.5,0,0,0,.2-0.4,0.4,0.4,0,0,0-.2-0.4H62.4l0.2-.2,0.9-.3a1.3,1.3,0,0,1,.9.3,0.9,0.9,0,0,1,.3.7,0.7,0.7,0,0,1-.3.6l-1.2.3H62.3l-0.5.2a1.4,1.4,0,0,0-.8,1.3,1.4,1.4,0,0,0,.5,1.2,2.2,2.2,0,0,0,1.4.4A2,2,0,0,0,64.8,86.3Zm-1.7.1a1.3,1.3,0,0,1-.8-0.2,0.8,0.8,0,0,1-.3-0.7q0-.8,1.2-0.9l1-.2,0.5-.3v0.8a1.5,1.5,0,0,1-.4,1.1A1.6,1.6,0,0,1,63,86.4Z" style="fill:#fff"/><path d="M61.1,90.6a0.4,0.4,0,1,0,0,.8h1.7a0.4,0.4,0,0,0,.4-0.4,0.4,0.4,0,0,0-.4-0.4H61.1Z" style="fill:#fff"/></svg>