<svg xmlns="http://www.w3.org/2000/svg" viewBox="0 0 32 32"><title>hrc-icons</title><circle cx="16" cy="16" r="16" style="fill:#fcfcfc"/><path d="M23.6,16a7.5,7.5,0,0,0-1.3-4.3l-0.6.6a6.6,6.6,0,0,1,.3,6.8l0.6,0.6A7.5,7.5,0,0,0,23.6,16Z" style="fill:#657c87"/><path d="M16,9.3a6.6,6.6,0,0,1,3.7,1.1l0.6-.6a7.5,7.5,0,0,0-8.2-.3l0.6,0.6A6.6,6.6,0,0,1,16,9.3Z" style="fill:#657c87"/><path d="M16,22.7a6.7,6.7,0,0,1-5.9-9.8l-0.6-.6A7.5,7.5,0,0,0,19.8,22.5l-0.6-.6A6.6,6.6,0,0,1,16,22.7Z" style="fill:#657c87"/><path d="M16,12.2a3.7,3.7,0,0,1,1.6.4l0.7-.7a4.5,4.5,0,0,0-3.9-.3L15,12.4h1Z" style="fill:#657c87"/><path d="M16,20.7a4.6,4.6,0,0,0,1.7-.3L17,19.6H16A3.8,3.8,0,0,1,12.2,16a3.7,3.7,0,0,1,.1-1l-0.7-.7a4.6,4.6,0,0,0-.3,1.7A4.7,4.7,0,0,0,16,20.7Z" style="fill:#657c87"/><path d="M20.7,16a4.6,4.6,0,0,0-.6-2.2l-0.7.6a3.6,3.6,0,0,1,.2,2.5l0.7,0.7A4.6,4.6,0,0,0,20.7,16Z" style="fill:#657c87"/><path d="M22.3,10.4h1.6l2.8-2.7H24.8l-2.6,2.5-0.3-.3,2.6-2.5V5.4L21.8,8.2a8.5,8.5,0,0,1,0,1.6h0L17,14.4,17.7,15Z" style="fill:#657c87"/><rect x="15.5" y="1.7" width="1" height="28.6" transform="translate(-6.6 16) rotate(-45)" style="fill:#657c87"/></svg>