<?xml version="1.0" encoding="utf-8"?>
<!-- Generator: Adobe Illustrator 19.1.1, SVG Export Plug-In . SVG Version: 6.00 Build 0)  -->
<svg version="1.1" id="icons" xmlns="http://www.w3.org/2000/svg" xmlns:xlink="http://www.w3.org/1999/xlink" x="0px" y="0px"
	 viewBox="0 0 32 32" style="enable-background:new 0 0 32 32;" xml:space="preserve">
<g id="arrow-large-r">
</g>
<g id="link-external">
</g>
<g id="link-list">
</g>
<g id="linkedin_1_">
</g>
<g id="twitter">
</g>
<g id="facebook">
</g>
<g id="download">
</g>
<g id="info">
</g>
<g id="close">
</g>
<g id="delete">
</g>
<g id="dismiss-fat">
</g>
<g id="more">
</g>
<g id="dismiss">
</g>
<g id="search">
</g>
<g id="dropdown-close_1_">
</g>
<g id="dropdown-open_1_">
</g>
<g id="filter-open">
</g>
<g id="filter-close">
</g>
<g id="fail">
</g>
<g id="pass">
</g>
<g id="smart-t-fail">
	<g id="front_9_">
	</g>
</g>
<g id="smart-r-fail">
	<g id="front_8_">
	</g>
</g>
<g id="smart-a-fail">
	<circle id="back_7_" style="fill:#C9D3D7;" cx="16" cy="16" r="16"/>
	<g id="front_7_">
		<g>
			<g>
				<polygon style="fill:#546E7A;" points="19.2,12.8 16.3,13.6 18.4,15.7 				"/>
				<path style="fill:#546E7A;" d="M14.3,17l-2.9,2.9c-1-0.7-2.5-0.6-3.4,0.3c-1,1-1,2.7,0,3.7c0.5,0.5,1.2,0.8,1.9,0.8
					c0.7,0,1.4-0.3,1.9-0.8c0.9-0.9,1-2.4,0.3-3.4l2.8-2.8L14.3,17z"/>
				<path style="fill:#546E7A;" d="M22,12.6c0.7,0,1.4-0.3,1.9-0.8c1-1,1-2.7,0-3.8c-1-1-2.8-1-3.8,0c-1,1-1,2.7,0,3.8
					C20.7,12.3,21.3,12.6,22,12.6z M20.8,8.7c0.3-0.3,0.8-0.5,1.3-0.5c0.5,0,0.9,0.2,1.3,0.5c0.7,0.7,0.7,1.8,0,2.5
					c-0.7,0.7-1.8,0.7-2.5,0C20.1,10.5,20.1,9.4,20.8,8.7z"/>
			</g>
			<g>
				
					<rect x="1.7" y="15.5" transform="matrix(0.7071 0.7071 -0.7071 0.7071 16.0005 -6.6273)" style="fill:#546E7A;" width="28.6" height="1"/>
			</g>
		</g>
	</g>
</g>
<g id="smart-m-fail">
	<g id="front_6_">
	</g>
</g>
<g id="smart-s-fail">
	<g id="front_5_">
	</g>
</g>
<g id="smart-t">
</g>
<g id="smart-r">
</g>
<g id="smart-a">
</g>
<g id="smart-m">
</g>
<g id="smart-s">
	<g id="smart-s_1_">
	</g>
</g>
<g id="smart-m-pass">
</g>
<g id="smart-s-pass">
</g>
<g id="smart-a-pass">
</g>
<g id="smart-r-pass">
</g>
<g id="smart-t-pass">
</g>
<g id="hrc-logo">
</g>
<g id="hrc-logo-icon">
</g>
</svg>
