<svg xmlns="http://www.w3.org/2000/svg" viewBox="0 0 84 58"><title>hrc-icons</title><path d="M57.5,39.5l-1,1-2.9-2.9a20.8,20.8,0,1,0-2.5,2.7l2.8,2.8-1,1L62.9,54l4.6-4.6ZM37.4,42.3A17.6,17.6,0,1,1,54.9,24.8,17.6,17.6,0,0,1,37.4,42.3Z" style="fill:#fff"/><polygon points="35.1 28.9 39.5 29 40.5 12.6 34.3 12.5 35.1 28.9" style="fill:#fff"/><circle cx="37.3" cy="33.9" r="3.1" transform="translate(3.1 71) rotate(-89.6)" style="fill:#fff"/><path d="M37.4,9.1A15.7,15.7,0,1,0,53.1,24.8,15.7,15.7,0,0,0,37.4,9.1Zm0,30.5A14.8,14.8,0,1,1,52.1,24.8,14.8,14.8,0,0,1,37.4,39.6Z" style="fill:#fff"/></svg>