<?xml version="1.0" encoding="utf-8"?>
<!-- Generator: Adobe Illustrator 19.2.1, SVG Export Plug-In . SVG Version: 6.00 Build 0)  -->
<svg version="1.1" id="icons" xmlns="http://www.w3.org/2000/svg" xmlns:xlink="http://www.w3.org/1999/xlink" x="0px" y="0px"
	 viewBox="0 0 84 58" style="enable-background:new 0 0 84 58;" xml:space="preserve">
<g id="arrow-large-r">
</g>
<g id="link-external">
</g>
<g id="link-list">
</g>
<g id="linkedin_1_">
</g>
<g id="twitter">
</g>
<g id="facebook">
</g>
<g id="download">
</g>
<g id="info">
</g>
<g id="close">
</g>
<g id="delete">
</g>
<g id="dismiss-fat">
</g>
<g id="more">
</g>
<g id="dismiss">
</g>
<g id="search">
</g>
<g id="dropdown-close_1_">
</g>
<g id="dropdown-open_1_">
</g>
<g id="filter-open">
</g>
<g id="filter-close">
</g>
<g id="cat-groups">
	<g>
		<circle style="fill:#6E848E;" cx="25.3" cy="10.9" r="3.3"/>
		<circle style="fill:#6E848E;" cx="38.7" cy="10.9" r="3.3"/>
		<circle style="fill:#6E848E;" cx="52.1" cy="10.9" r="3.3"/>
	</g>
	<g>
		<path style="fill:#6E848E;" d="M34.6,20.9h-1.5h-2.5h-1.5c-1.3,0-2.4,1-2.5,2.3l-0.8,11.2c-0.1,0.9,0.6,1.7,1.5,1.7h1l0.9,12.7
			c0.1,0.9,0.8,1.6,1.7,1.6h1.7c0.9,0,1.7-0.7,1.7-1.6l0.9-12.7h1c0.9,0,1.6-0.8,1.5-1.7l-0.8-11.2C37,21.9,35.9,20.9,34.6,20.9z"/>
		<path style="fill:#6E848E;" d="M54.2,37c-0.7,0-1.4-0.3-1.8-0.8c-0.2-0.2-0.3-0.4-0.4-0.6c-0.1,0.2-0.2,0.4-0.4,0.6
			c-0.5,0.5-1.1,0.8-1.8,0.8h-0.2l-0.3,3.8l0.2,2.6c0.1,0.9,0.8,1.6,1.7,1.6h1.7c0.9,0,1.7-0.7,1.7-1.6l0.1-1.4l-0.3-5H54.2z"/>
		<circle style="fill:#6E848E;" cx="31.9" cy="16.3" r="3.3"/>
		<path style="fill:#6E848E;" d="M40.8,37c-0.7,0-1.4-0.3-1.8-0.8c-0.2-0.2-0.3-0.4-0.4-0.6c-0.1,0.2-0.2,0.4-0.4,0.6
			c-0.5,0.5-1.1,0.8-1.8,0.8h-0.2l-0.3,3.8l0.2,2.6c0.1,0.9,0.8,1.6,1.7,1.6h1.7c0.9,0,1.7-0.7,1.7-1.6l0.1-1.4L41,37H40.8z"/>
		<path style="fill:#6E848E;" d="M47.3,20H48c1.8,0,3.3,1.3,3.4,3.1L52,31l0.5-7.9c0.2-1.8,1.7-3.1,3.4-3.1h0.8
			c-1.4-0.7-2.3-2.1-2.3-3.7c0-0.2,0-0.5,0.1-0.7h-1.2h-2.5h-1.4c0,0.2,0.1,0.5,0.1,0.7C49.5,17.9,48.6,19.3,47.3,20z"/>
		<path style="fill:#6E848E;" d="M33.8,20h0.8c1.8,0,3.3,1.3,3.4,3.1l0.5,7.9l0.5-7.9c0.2-1.8,1.7-3.1,3.4-3.1h0.8
			c-1.4-0.7-2.3-2.1-2.3-3.7c0-0.2,0-0.5,0.1-0.7H40h-2.5h-1.4c0,0.2,0.1,0.5,0.1,0.7C36.1,17.9,35.2,19.3,33.8,20z"/>
		<path style="fill:#6E848E;" d="M27.4,37c-0.7,0-1.4-0.3-1.8-0.8c-0.5-0.5-0.7-1.2-0.6-1.9l0.8-11.3c0.2-1.8,1.7-3.1,3.4-3.1H30
			c-1.4-0.7-2.3-2.1-2.3-3.7c0-0.2,0-0.5,0.1-0.7h-1.2H24h-1.5c-1.3,0-2.4,1-2.5,2.3l-0.8,11.2c-0.1,0.9,0.6,1.7,1.5,1.7h1l0.9,12.7
			c0.1,0.9,0.8,1.6,1.7,1.6h1.7c0.9,0,1.7-0.7,1.7-1.6l0.1-1.4l-0.3-5H27.4z"/>
		<circle style="fill:#6E848E;" cx="45.3" cy="16.3" r="3.3"/>
		<path style="fill:#6E848E;" d="M56.2,48.8c0.1,0.9,0.8,1.6,1.7,1.6h1.7c0.9,0,1.7-0.7,1.7-1.6l0.9-12.7h1c0.9,0,1.6-0.8,1.5-1.7
			L64,23.2c-0.1-1.3-1.2-2.3-2.5-2.3H60h-2.5H56c-1.3,0-2.4,1-2.5,2.3l-0.8,11.2c-0.1,0.9,0.6,1.7,1.5,1.7h1L56.2,48.8z"/>
		<path style="fill:#6E848E;" d="M48,20.9h-1.5H44h-1.5c-1.3,0-2.4,1-2.5,2.3l-0.8,11.2c-0.1,0.9,0.6,1.7,1.5,1.7h1l0.9,12.7
			c0.1,0.9,0.8,1.6,1.7,1.6h1.7c0.9,0,1.7-0.7,1.7-1.6l0.9-12.7h1c0.9,0,1.6-0.8,1.5-1.7l-0.8-11.2C50.4,21.9,49.3,20.9,48,20.9z"/>
		<circle style="fill:#6E848E;" cx="58.7" cy="16.3" r="3.3"/>
	</g>
</g>
<g id="fail">
</g>
<g id="fail-active">
</g>
<g id="pass">
</g>
<g id="pass-active">
</g>
<g id="smart-t-fail">
	<g id="front_9_">
	</g>
</g>
<g id="smart-r-fail">
	<g id="front_8_">
	</g>
</g>
<g id="smart-a-fail">
	<g id="front_7_">
	</g>
</g>
<g id="smart-m-fail">
	<g id="front_6_">
	</g>
</g>
<g id="smart-s-fail">
	<g id="front_5_">
	</g>
</g>
<g id="smart-t">
</g>
<g id="smart-r">
</g>
<g id="smart-a">
</g>
<g id="smart-m">
</g>
<g id="smart-s">
	<g id="smart-s_1_">
	</g>
</g>
<g id="smart-m-pass">
</g>
<g id="smart-s-pass">
</g>
<g id="smart-a-pass">
</g>
<g id="smart-r-pass">
</g>
<g id="smart-t-pass">
</g>
<g id="hrc-logo">
</g>
<g id="hrc-logo-icon">
</g>
</svg>
