<?xml version="1.0" encoding="utf-8"?>
<!-- Generator: Adobe Illustrator 19.2.1, SVG Export Plug-In . SVG Version: 6.00 Build 0)  -->
<svg version="1.1" id="icons" xmlns="http://www.w3.org/2000/svg" xmlns:xlink="http://www.w3.org/1999/xlink" x="0px" y="0px"
	 viewBox="0 0 84 58" style="enable-background:new 0 0 84 58;" xml:space="preserve">
<g id="arrow-large-r">
</g>
<g id="link-external">
</g>
<g id="link-list">
</g>
<g id="linkedin_1_">
</g>
<g id="twitter">
</g>
<g id="facebook">
</g>
<g id="download">
</g>
<g id="info">
</g>
<g id="close">
</g>
<g id="delete">
</g>
<g id="dismiss-fat">
</g>
<g id="more">
</g>
<g id="dismiss">
</g>
<g id="search">
</g>
<g id="dropdown-close_1_">
</g>
<g id="dropdown-open_1_">
</g>
<g id="filter-open">
</g>
<g id="filter-close">
</g>
<g id="cat-issues">
	<path style="fill:#6E848E;" d="M57.5,39.5l-1,1l-2.9-2.9c2.8-3.5,4.5-8,4.5-12.9C58.1,13.3,48.8,4,37.4,4s-20.8,9.3-20.8,20.8
		s9.3,20.8,20.8,20.8c5.3,0,10.1-2,13.8-5.2l2.8,2.8l-1,1l9.9,9.9l4.6-4.6L57.5,39.5z M37.4,42.3c-9.7,0-17.6-7.9-17.6-17.6
		c0-9.7,7.9-17.6,17.6-17.6s17.6,7.9,17.6,17.6C54.9,34.5,47.1,42.3,37.4,42.3z"/>
	<polygon style="fill:#6E848E;" points="35.1,28.9 39.5,29 40.5,12.6 34.3,12.5 	"/>
	
		<ellipse transform="matrix(6.268390e-03 -1 1 6.268390e-03 3.119 71.0162)" style="fill:#6E848E;" cx="37.3" cy="33.9" rx="3.1" ry="3.1"/>
	<path style="fill:#6E848E;" d="M37.4,9.1c-8.7,0-15.7,7-15.7,15.7s7,15.7,15.7,15.7s15.7-7,15.7-15.7S46,9.1,37.4,9.1z M37.4,39.6
		c-8.2,0-14.8-6.6-14.8-14.8S29.2,10,37.4,10s14.8,6.6,14.8,14.8S45.5,39.6,37.4,39.6z"/>
</g>
<g id="fail">
</g>
<g id="fail-active">
</g>
<g id="pass">
</g>
<g id="pass-active">
</g>
<g id="smart-t-fail">
	<g id="front_9_">
	</g>
</g>
<g id="smart-r-fail">
	<g id="front_8_">
	</g>
</g>
<g id="smart-a-fail">
	<g id="front_7_">
	</g>
</g>
<g id="smart-m-fail">
	<g id="front_6_">
	</g>
</g>
<g id="smart-s-fail">
	<g id="front_5_">
	</g>
</g>
<g id="smart-t">
</g>
<g id="smart-r">
</g>
<g id="smart-a">
</g>
<g id="smart-m">
</g>
<g id="smart-s">
	<g id="smart-s_1_">
	</g>
</g>
<g id="smart-m-pass">
</g>
<g id="smart-s-pass">
</g>
<g id="smart-a-pass">
</g>
<g id="smart-r-pass">
</g>
<g id="smart-t-pass">
</g>
<g id="hrc-logo">
</g>
<g id="hrc-logo-icon">
</g>
</svg>
