<?xml version="1.0" encoding="utf-8"?>
<!-- Generator: Adobe Illustrator 19.1.0, SVG Export Plug-In . SVG Version: 6.00 Build 0)  -->
<svg version="1.1" id="Layer_1" xmlns="http://www.w3.org/2000/svg" xmlns:xlink="http://www.w3.org/1999/xlink" x="0px" y="0px"
	 viewBox="0 0 16 16" style="enable-background:new 0 0 16 16;" xml:space="preserve">
<style type="text/css">
	.st0{fill:#FFFFFF;}
	.st1{fill:#69A41E;}
	.st2{fill:none;stroke:#0A262D;stroke-miterlimit:10;}
	.st3{fill:#C9D3D7;}
	.st4{fill:#546E7A;}
	.st5{fill:none;stroke:#C9D3D7;stroke-width:4;stroke-miterlimit:10;}
	.st6{fill:none;stroke:#546E7A;stroke-miterlimit:10;}
	.st7{fill:#0383C9;}
	.st8{fill:none;stroke:#FFFFFF;stroke-width:2;stroke-miterlimit:10;}
	.st9{fill:none;stroke:#546E7A;stroke-width:2;stroke-miterlimit:10;}
	.st10{fill:#029BE5;}
	.st11{fill:none;stroke:#029BE5;stroke-width:2;stroke-miterlimit:10;}
	.st12{fill:none;stroke:#029BE5;stroke-width:4;stroke-miterlimit:10;}
	.st13{fill:none;stroke:#69A41E;stroke-width:2;stroke-miterlimit:10;}
	.st14{fill-rule:evenodd;clip-rule:evenodd;fill:#FFFFFF;}
	.st15{fill:#6E848E;}
	.st16{fill:#78909C;}
	.st17{fill:none;stroke:#36474F;stroke-width:2;stroke-miterlimit:10;}
	.st18{fill:none;stroke:#039CE5;stroke-width:2;stroke-miterlimit:10;}
	.st19{fill:#FCFCFC;}
	.st20{fill:#657C87;}
	.st21{fill:#F9F9F8;}
	.st22{fill:#36474F;}
	.st23{fill:none;stroke:#69A41E;stroke-width:3;stroke-miterlimit:10;}
</style>
<g id="Time_bound_yes">
</g>
<g id="Time_bound_no">
</g>
<g id="Specific_active">
</g>
<g id="Measurable_Yes">
</g>
<g id="Assignable_yes">
</g>
<g id="Result-oriented_yes">
</g>
<g id="Time_bound_yes_1_">
</g>
<g id="Measurable_no">
</g>
<g id="Specific_No">
</g>
<g id="Assignable_no">
</g>
<g id="Result-oriented_no_x0D_">
</g>
<g id="Time_bound_no_2_">
</g>
<g id="Time_bound_no_1_">
	<g id="Yes">
	</g>
	<g id="No">
	</g>
	<g id="info">
	</g>
	<g id="link_out">
	</g>
	<g id="Back">
	</g>
	<g id="magnifier">
		<g id="Search">
		</g>
	</g>
	<g>
		<path id="twitter_2_" class="st14" d="M10.9,1.6c1.3,0,1.9,0.4,2.6,1c0.5,0,1.3-0.4,1.7-0.6c0.1-0.1,0.3-0.1,0.4-0.2
			c-0.2,0.6-0.6,1.1-1.1,1.5c-0.1,0.1-0.2,0.2-0.4,0.3c0,0,0,0,0,0c0.7,0,1.3-0.3,1.9-0.5v0c-0.3,0.5-0.7,0.9-1.1,1.3
			c-0.2,0.1-0.3,0.3-0.5,0.4c0,0.7,0,1.5-0.2,2.1c-0.8,3.7-3,6.1-6.4,7.2c-1.2,0.4-3.2,0.5-4.6,0.2c-0.7-0.2-1.3-0.4-1.9-0.6
			c-0.3-0.1-0.6-0.3-0.9-0.5C0.2,13.1,0.1,13,0,13c0.3,0,0.7,0.1,1,0C1.4,13,1.7,13,2,12.9c0.7-0.2,1.4-0.4,2-0.7
			c0.3-0.2,0.7-0.3,0.9-0.6c-0.4,0-0.7-0.1-1-0.2c-1.1-0.4-1.7-1.1-2.1-2.1c0.3,0,1.2,0.1,1.5-0.1C2.8,9.3,2.5,9,2.2,8.9
			C1.3,8.3,0.6,7.5,0.6,6.1C0.7,6.1,0.9,6.2,1,6.3c0.2,0.1,0.4,0.1,0.7,0.2c0.1,0,0.3,0.1,0.4,0h0C1.9,6.3,1.7,6.2,1.5,6
			C0.9,5.3,0.4,4.2,0.8,3C0.8,2.7,1,2.4,1.1,2.2l0,0c0.1,0.1,0.2,0.2,0.3,0.3c0.3,0.3,0.6,0.7,1,0.9c1.2,0.9,2.3,1.5,4,1.9
			c0.4,0.1,0.9,0.2,1.5,0.2C7.7,5.1,7.8,4.4,7.9,4c0.3-1,0.9-1.8,1.9-2.2c0.2-0.1,0.5-0.2,0.7-0.2C10.6,1.6,10.7,1.6,10.9,1.6z"/>
	</g>
	<g id="Download">
	</g>
	<g id="Arrow_list_1">
	</g>
	<g id="Specific_any">
	</g>
	<g id="Measurable_Any">
	</g>
	<g id="Assignable_Any">
	</g>
	<g id="Result-oriented_any">
	</g>
	<g id="Time_bound_any">
	</g>
	<g id="filter-open">
	</g>
	<g id="filter-close">
	</g>
	<g id="New_Symbol">
	</g>
	<g id="Yes_on">
	</g>
	<g id="x">
	</g>
</g>
</svg>
