<?xml version="1.0" encoding="utf-8"?>
<!-- Generator: Adobe Illustrator 19.1.0, SVG Export Plug-In . SVG Version: 6.00 Build 0)  -->
<svg version="1.1" id="Layer_1" xmlns="http://www.w3.org/2000/svg" xmlns:xlink="http://www.w3.org/1999/xlink" x="0px" y="0px"
	 viewBox="0 0 84 58" style="enable-background:new 0 0 84 58;" xml:space="preserve">
<style type="text/css">
	.st0{fill:#FFFFFF;}
	.st1{fill:#69A41E;}
	.st2{fill:none;stroke:#0A262D;stroke-miterlimit:10;}
	.st3{fill:#C9D3D7;}
	.st4{fill:#546E7A;}
	.st5{fill:none;stroke:#C9D3D7;stroke-width:4;stroke-miterlimit:10;}
	.st6{fill:none;stroke:#546E7A;stroke-miterlimit:10;}
	.st7{fill:#0383C9;}
	.st8{fill:none;stroke:#FFFFFF;stroke-width:2;stroke-miterlimit:10;}
	.st9{fill:none;stroke:#546E7A;stroke-width:2;stroke-miterlimit:10;}
	.st10{fill:#029BE5;}
	.st11{fill:none;stroke:#029BE5;stroke-width:2;stroke-miterlimit:10;}
	.st12{fill:none;stroke:#029BE5;stroke-width:4;stroke-miterlimit:10;}
	.st13{fill:none;stroke:#69A41E;stroke-width:2;stroke-miterlimit:10;}
	.st14{fill-rule:evenodd;clip-rule:evenodd;fill:#FFFFFF;}
	.st15{fill:#6E848E;}
	.st16{fill:#78909C;}
	.st17{fill:none;stroke:#36474F;stroke-width:2;stroke-miterlimit:10;}
	.st18{fill:none;stroke:#039CE5;stroke-width:2;stroke-miterlimit:10;}
	.st19{fill:#FCFCFC;}
	.st20{fill:#657C87;}
	.st21{fill:#F9F9F8;}
	.st22{fill:#36474F;}
	.st23{fill:none;stroke:#69A41E;stroke-width:3;stroke-miterlimit:10;}
</style>
<g id="Time_bound_yes">
</g>
<g id="Time_bound_no">
</g>
<g id="Specific_active">
</g>
<g id="Measurable_Yes">
</g>
<g id="Assignable_yes">
</g>
<g id="Result-oriented_yes">
</g>
<g id="Time_bound_yes_1_">
</g>
<g id="Measurable_no">
</g>
<g id="Specific_No">
</g>
<g id="Assignable_no">
</g>
<g id="Result-oriented_no_x0D_">
</g>
<g id="Time_bound_no_2_">
</g>
<g id="Time_bound_no_1_">
	<g id="Yes">
	</g>
	<g id="No">
	</g>
	<g id="info">
	</g>
	<g id="link_out">
	</g>
	<g id="Back">
	</g>
	<g id="magnifier">
		<g id="Search">
		</g>
	</g>
	<g>
		<g>
			<circle class="st15" cx="25.3" cy="10.9" r="3.3"/>
			<circle class="st15" cx="38.7" cy="10.9" r="3.3"/>
			<circle class="st15" cx="52.1" cy="10.9" r="3.3"/>
		</g>
		<g>
			<path class="st15" d="M34.6,20.9h-1.5h-2.5h-1.5c-1.3,0-2.4,1-2.5,2.3l-0.8,11.2c-0.1,0.9,0.6,1.7,1.5,1.7h1l0.9,12.7
				c0.1,0.9,0.8,1.6,1.7,1.6h1.7c0.9,0,1.7-0.7,1.7-1.6l0.9-12.7h1c0.9,0,1.6-0.8,1.5-1.7l-0.8-11.2C37,21.9,35.9,20.9,34.6,20.9z"
				/>
			<path class="st15" d="M54.2,37c-0.7,0-1.4-0.3-1.8-0.8c-0.2-0.2-0.3-0.4-0.4-0.6c-0.1,0.2-0.2,0.4-0.4,0.6
				c-0.5,0.5-1.1,0.8-1.8,0.8h-0.2l-0.3,3.8l0.2,2.6c0.1,0.9,0.8,1.6,1.7,1.6h1.7c0.9,0,1.7-0.7,1.7-1.6l0.1-1.4l-0.3-5H54.2z"/>
			<circle class="st15" cx="31.9" cy="16.3" r="3.3"/>
			<path class="st15" d="M40.8,37c-0.7,0-1.4-0.3-1.8-0.8c-0.2-0.2-0.3-0.4-0.4-0.6c-0.1,0.2-0.2,0.4-0.4,0.6
				c-0.5,0.5-1.1,0.8-1.8,0.8h-0.2l-0.3,3.8l0.2,2.6c0.1,0.9,0.8,1.6,1.7,1.6h1.7c0.9,0,1.7-0.7,1.7-1.6l0.1-1.4L41,37H40.8z"/>
			<path class="st15" d="M47.3,20H48c1.8,0,3.3,1.3,3.4,3.1L52,31l0.5-7.9c0.2-1.8,1.7-3.1,3.4-3.1h0.8c-1.4-0.7-2.3-2.1-2.3-3.7
				c0-0.2,0-0.5,0.1-0.7h-1.2h-2.5h-1.4c0,0.2,0.1,0.5,0.1,0.7C49.5,17.9,48.6,19.3,47.3,20z"/>
			<path class="st15" d="M33.8,20h0.8c1.8,0,3.3,1.3,3.4,3.1l0.5,7.9l0.5-7.9c0.2-1.8,1.7-3.1,3.4-3.1h0.8c-1.4-0.7-2.3-2.1-2.3-3.7
				c0-0.2,0-0.5,0.1-0.7H40h-2.5h-1.4c0,0.2,0.1,0.5,0.1,0.7C36.1,17.9,35.2,19.3,33.8,20z"/>
			<path class="st15" d="M27.4,37c-0.7,0-1.4-0.3-1.8-0.8c-0.5-0.5-0.7-1.2-0.6-1.9l0.8-11.3c0.2-1.8,1.7-3.1,3.4-3.1H30
				c-1.4-0.7-2.3-2.1-2.3-3.7c0-0.2,0-0.5,0.1-0.7h-1.2H24h-1.5c-1.3,0-2.4,1-2.5,2.3l-0.8,11.2c-0.1,0.9,0.6,1.7,1.5,1.7h1
				l0.9,12.7c0.1,0.9,0.8,1.6,1.7,1.6h1.7c0.9,0,1.7-0.7,1.7-1.6l0.1-1.4l-0.3-5H27.4z"/>
			<circle class="st15" cx="45.3" cy="16.3" r="3.3"/>
			<path class="st15" d="M56.2,48.8c0.1,0.9,0.8,1.6,1.7,1.6h1.7c0.9,0,1.7-0.7,1.7-1.6l0.9-12.7h1c0.9,0,1.6-0.8,1.5-1.7L64,23.2
				c-0.1-1.3-1.2-2.3-2.5-2.3H60h-2.5H56c-1.3,0-2.4,1-2.5,2.3l-0.8,11.2c-0.1,0.9,0.6,1.7,1.5,1.7h1L56.2,48.8z"/>
			<path class="st15" d="M48,20.9h-1.5H44h-1.5c-1.3,0-2.4,1-2.5,2.3l-0.8,11.2c-0.1,0.9,0.6,1.7,1.5,1.7h1l0.9,12.7
				c0.1,0.9,0.8,1.6,1.7,1.6h1.7c0.9,0,1.7-0.7,1.7-1.6l0.9-12.7h1c0.9,0,1.6-0.8,1.5-1.7l-0.8-11.2C50.4,21.9,49.3,20.9,48,20.9z"
				/>
			<circle class="st15" cx="58.7" cy="16.3" r="3.3"/>
		</g>
	</g>
	<g id="Download">
	</g>
	<g id="Arrow_list_1">
	</g>
	<g id="Specific_any">
	</g>
	<g id="Measurable_Any">
	</g>
	<g id="Assignable_Any">
	</g>
	<g id="Result-oriented_any">
	</g>
	<g id="Time_bound_any">
	</g>
	<g id="filter-open">
	</g>
	<g id="filter-close">
	</g>
	<g id="New_Symbol">
	</g>
	<g id="Yes_on">
	</g>
	<g id="x">
	</g>
</g>
</svg>
