<?xml version="1.0" encoding="utf-8"?>
<!-- Generator: Adobe Illustrator 19.1.0, SVG Export Plug-In . SVG Version: 6.00 Build 0)  -->
<svg version="1.1" id="Layer_1" xmlns="http://www.w3.org/2000/svg" xmlns:xlink="http://www.w3.org/1999/xlink" x="0px" y="0px"
	 viewBox="0 0 32 32" style="enable-background:new 0 0 32 32;" xml:space="preserve">
<style type="text/css">
	.st0{fill:#FFFFFF;}
	.st1{fill:#69A41E;}
	.st2{fill:none;stroke:#0A262D;stroke-miterlimit:10;}
	.st3{fill:#C9D3D7;}
	.st4{fill:#546E7A;}
	.st5{fill:none;stroke:#C9D3D7;stroke-width:4;stroke-miterlimit:10;}
	.st6{fill:none;stroke:#546E7A;stroke-miterlimit:10;}
	.st7{fill:#0383C9;}
	.st8{fill:none;stroke:#FFFFFF;stroke-width:2;stroke-miterlimit:10;}
	.st9{fill:none;stroke:#546E7A;stroke-width:2;stroke-miterlimit:10;}
	.st10{fill:#029BE5;}
	.st11{fill:none;stroke:#029BE5;stroke-width:2;stroke-miterlimit:10;}
	.st12{fill:none;stroke:#029BE5;stroke-width:4;stroke-miterlimit:10;}
	.st13{fill:none;stroke:#69A41E;stroke-width:2;stroke-miterlimit:10;}
	.st14{fill-rule:evenodd;clip-rule:evenodd;fill:#FFFFFF;}
	.st15{fill:#6E848E;}
	.st16{fill:#78909C;}
	.st17{fill:none;stroke:#36474F;stroke-width:2;stroke-miterlimit:10;}
	.st18{fill:none;stroke:#039CE5;stroke-width:2;stroke-miterlimit:10;}
	.st19{fill:#FCFCFC;}
	.st20{fill:#657C87;}
	.st21{fill:#F9F9F8;}
	.st22{fill:#36474F;}
	.st23{fill:none;stroke:#69A41E;stroke-width:3;stroke-miterlimit:10;}
</style>
<g id="Time_bound_yes">
</g>
<g id="Time_bound_no">
</g>
<g id="Specific_active">
</g>
<g id="Measurable_Yes">
</g>
<g id="Assignable_yes">
</g>
<g id="Result-oriented_yes">
</g>
<g id="Time_bound_yes_1_">
</g>
<g id="Measurable_no">
</g>
<g id="Specific_No">
</g>
<g id="Assignable_no">
	<circle class="st3" cx="16" cy="16" r="16"/>
	<g>
		<path class="st4" d="M14.1,14.2l1.6,1.6l-4.2,4.2c-1-0.7-2.5-0.6-3.4,0.3c-1,1-1,2.7,0,3.7c0.5,0.5,1.2,0.8,1.9,0.8
			c0.7,0,1.4-0.3,1.9-0.8c0.9-0.9,1-2.4,0.3-3.4l4.2-4.2l1.6,1.6l1.4-5.1L14.1,14.2z"/>
		<g>
			<path class="st4" d="M22,12.6c-0.7,0-1.4-0.3-1.9-0.8c-1-1-1-2.7,0-3.8c1-1,2.8-1,3.8,0c1,1,1,2.7,0,3.8
				C23.4,12.3,22.8,12.6,22,12.6z M22,8.2c-0.5,0-0.9,0.2-1.3,0.5c-0.7,0.7-0.7,1.8,0,2.5c0.7,0.7,1.8,0.7,2.5,0
				c0.7-0.7,0.7-1.8,0-2.5C23,8.4,22.5,8.2,22,8.2z"/>
		</g>
	</g>
	<g>
		<line class="st5" x1="5.9" y1="5.9" x2="26.1" y2="26.1"/>
		<line class="st6" x1="5.9" y1="5.9" x2="26.1" y2="26.1"/>
	</g>
</g>
<g id="Result-oriented_no_x0D_">
</g>
<g id="Time_bound_no_2_">
</g>
<g id="Time_bound_no_1_">
	<g id="Yes">
	</g>
	<g id="No">
	</g>
	<g id="info">
	</g>
	<g id="link_out">
	</g>
	<g id="Back">
	</g>
	<g id="magnifier">
		<g id="Search">
		</g>
	</g>
	<g id="Download">
	</g>
	<g id="Arrow_list_1">
	</g>
	<g id="Specific_any">
	</g>
	<g id="Measurable_Any">
	</g>
	<g id="Assignable_Any">
	</g>
	<g id="Result-oriented_any">
	</g>
	<g id="Time_bound_any">
	</g>
	<g id="filter-open">
	</g>
	<g id="filter-close">
	</g>
	<g id="New_Symbol">
	</g>
	<g id="Yes_on">
	</g>
	<g id="x">
	</g>
</g>
</svg>
