<?xml version="1.0" encoding="utf-8"?>
<!-- Generator: Adobe Illustrator 19.1.0, SVG Export Plug-In . SVG Version: 6.00 Build 0)  -->
<svg version="1.1" id="Layer_1" xmlns="http://www.w3.org/2000/svg" xmlns:xlink="http://www.w3.org/1999/xlink" x="0px" y="0px"
	 viewBox="0 0 84 58" style="enable-background:new 0 0 84 58;" xml:space="preserve">
<style type="text/css">
	.st0{fill:#FFFFFF;}
	.st1{fill:#69A41E;}
	.st2{fill:none;stroke:#0A262D;stroke-miterlimit:10;}
	.st3{fill:#C9D3D7;}
	.st4{fill:#546E7A;}
	.st5{fill:none;stroke:#C9D3D7;stroke-width:4;stroke-miterlimit:10;}
	.st6{fill:none;stroke:#546E7A;stroke-miterlimit:10;}
	.st7{fill:#0383C9;}
	.st8{fill:none;stroke:#FFFFFF;stroke-width:2;stroke-miterlimit:10;}
	.st9{fill:none;stroke:#546E7A;stroke-width:2;stroke-miterlimit:10;}
	.st10{fill:#029BE5;}
	.st11{fill:none;stroke:#029BE5;stroke-width:2;stroke-miterlimit:10;}
	.st12{fill:none;stroke:#029BE5;stroke-width:4;stroke-miterlimit:10;}
	.st13{fill:none;stroke:#69A41E;stroke-width:2;stroke-miterlimit:10;}
	.st14{fill-rule:evenodd;clip-rule:evenodd;fill:#FFFFFF;}
	.st15{fill:#6E848E;}
	.st16{fill:#78909C;}
	.st17{fill:none;stroke:#36474F;stroke-width:2;stroke-miterlimit:10;}
	.st18{fill:none;stroke:#039CE5;stroke-width:2;stroke-miterlimit:10;}
	.st19{fill:#FCFCFC;}
	.st20{fill:#657C87;}
	.st21{fill:#F9F9F8;}
	.st22{fill:#36474F;}
	.st23{fill:none;stroke:#69A41E;stroke-width:3;stroke-miterlimit:10;}
</style>
<g id="Time_bound_yes">
</g>
<g id="Time_bound_no">
</g>
<g id="Specific_active">
</g>
<g id="Measurable_Yes">
</g>
<g id="Assignable_yes">
</g>
<g id="Result-oriented_yes">
</g>
<g id="Time_bound_yes_1_">
</g>
<g id="Measurable_no">
</g>
<g id="Specific_No">
</g>
<g id="Assignable_no">
</g>
<g id="Result-oriented_no_x0D_">
</g>
<g id="Time_bound_no_2_">
</g>
<g id="Time_bound_no_1_">
	<g id="Yes">
	</g>
	<g id="No">
	</g>
	<g id="info">
	</g>
	<g id="link_out">
	</g>
	<g id="Back">
	</g>
	<g id="magnifier">
		<g id="Search">
		</g>
	</g>
	<g>
		<polygon class="st15" points="46,18.5 50.1,11.5 46,4.5 38,4.5 33.9,11.5 38,18.5 		"/>
		<polygon class="st15" points="27,25.9 27,24.2 28.8,24.2 28.8,23.5 33.7,23.5 36.4,18.9 32.4,12 24.3,12 20.3,18.9 24.3,25.9 		
			"/>
		<polygon class="st15" points="51.6,25.9 59.7,25.9 63.7,18.9 59.7,12 51.6,12 47.6,18.9 		"/>
		<polygon class="st15" points="51.6,27.5 47.6,34.5 51.6,41.5 59.7,41.5 63.7,34.5 59.7,27.5 		"/>
		<path class="st15" d="M47.1,42.6v-0.4v-4h-1.4v-2.9h-1.4v-2.9h-1.4v-2.9H42v-2.9h-1.6v-1.6h-1.8v-0.7h-8.8v0.7h-1.8v1.6h-1.6v2.9
			h-0.9v2.9H24v2.9h-1.4v2.9h-1.4v4v0.4v8.1h-0.9v2.8H48v-2.8h-0.9V42.6z M27.2,27.7h13.9v1.9H27.2V27.7z M26.3,30.5H42v1.9H26.3
			V30.5z M24.9,33.4h18.5v1.9H24.9V33.4z M23.5,36.2h21.2v1.9H23.5V36.2z M24,50.7H23v-8.1H24V50.7z M31.1,50.7h-0.9v-8.1h0.9V50.7z
			 M38.2,50.7h-0.9v-8.1h0.9V50.7z M45.3,50.7h-0.9v-8.1h0.9V50.7z M46.2,41.6h-24v-2.5h24V41.6z"/>
	</g>
	<g id="Download">
	</g>
	<g id="Arrow_list_1">
	</g>
	<g id="Specific_any">
	</g>
	<g id="Measurable_Any">
	</g>
	<g id="Assignable_Any">
	</g>
	<g id="Result-oriented_any">
	</g>
	<g id="Time_bound_any">
	</g>
	<g id="filter-open">
	</g>
	<g id="filter-close">
	</g>
	<g id="New_Symbol">
	</g>
	<g id="Yes_on">
	</g>
	<g id="x">
	</g>
</g>
</svg>
